<?xml version="1.0" standalone="no"?>
<!DOCTYPE svg PUBLIC "-//W3C//DTD SVG 1.1//EN" "http://www.w3.org/Graphics/SVG/1.1/DTD/svg11.dtd" >
<svg xmlns="http://www.w3.org/2000/svg" xmlns:xlink="http://www.w3.org/1999/xlink" version="1.1">
<metadata>
Created by FontForge 20170812 at Sun Sep  3 13:05:54 2017
 By www-data
Copyright (c) 2015 by Goran Soderstrom. All rights reserved.
</metadata>
<defs>
<font id="Trim-SemiBold" horiz-adv-x="461" >
  <font-face 
    font-family="Trim SemiBold"
    font-weight="600"
    font-stretch="normal"
    units-per-em="1000"
    panose-1="0 0 7 0 0 0 0 0 0 0"
    ascent="750"
    descent="-250"
    x-height="542"
    cap-height="700"
    bbox="-309 -250 1264 914"
    underline-thickness="50"
    underline-position="-150"
    unicode-range="U+000D-FB02"
  />
<missing-glyph horiz-adv-x="603" 
d="M545 800v-900h-488v900h488zM434 704h-265v-708h265v708z" />
    <glyph glyph-name="fi" unicode="fi" horiz-adv-x="612" 
d="M225 585v-43h118v-108h-118v-434h-148v434h-53v108h53v92q15 38 57 67q42 27 119 27q29 0 54 -3q29 -6 36 -8v-102q-14 2 -35 2q-66 0 -83 -32zM561 542v-542h-148v542h148zM437 734q20 12 50 12q33 0 52 -12t27 -29v-60q-7 -16 -27 -28q-19 -12 -52 -12q-30 0 -50 12
q-22 13 -29 28v60q7 15 29 29z" />
    <glyph glyph-name="fl" unicode="fl" horiz-adv-x="609" 
d="M225 585v-43h118v-108h-118v-434h-148v434h-53v108h53v92q15 38 57 67q42 27 119 27q29 0 54 -3q29 -6 36 -8v-102q-14 2 -35 2q-66 0 -83 -32zM560 700v-700h-148v700h148z" />
    <glyph glyph-name="f_f" unicode="ff" horiz-adv-x="678" 
d="M567 608q-17 -8 -28 -23v-43h119v-108h-119v-434h-148v434h-166v-434h-148v434h-53v108h53v92q15 38 57 67q42 27 119 27q29 0 54 -3q29 -6 36 -8v-102q-14 2 -35 2q-62 0 -83 -32v-43h166v92q13 38 57 67q44 27 119 27q53 0 91 -11v-102q-16 2 -36 2q-37 0 -55 -9z" />
    <glyph glyph-name=".notdef" horiz-adv-x="603" 
d="M545 800v-900h-488v900h488zM434 704h-265v-708h265v708z" />
    <glyph glyph-name=".null" horiz-adv-x="0" 
 />
    <glyph glyph-name="nonmarkingreturn" horiz-adv-x="333" 
 />
    <glyph glyph-name="NULL" horiz-adv-x="0" 
 />
    <glyph glyph-name="NULL" horiz-adv-x="0" 
 />
    <glyph glyph-name="CR" unicode="&#xd;" horiz-adv-x="250" 
 />
    <glyph glyph-name="space" unicode=" " horiz-adv-x="203" 
 />
    <glyph glyph-name="exclam" unicode="!" horiz-adv-x="287" 
d="M61 700h166v-144l-18 -370h-130l-18 370v144zM93 128q19 12 50 12q32 0 53 -12q20 -12 27 -28v-71q-7 -16 -28 -28q-20 -13 -52 -13q-31 0 -50 13q-21 12 -28 28v71q7 16 28 28z" />
    <glyph glyph-name="quotedbl" unicode="&#x22;" horiz-adv-x="386" 
d="M34 700h128v-125l-19 -133h-90l-19 132v126zM224 700h128v-125l-19 -133h-90l-19 132v126z" />
    <glyph glyph-name="numbersign" unicode="#" horiz-adv-x="569" 
d="M470 409l-18 -114h54v-105h-71l-31 -190h-104v79l18 111h-120l-31 -190h-103v79l18 111h-55v105h72l18 114h-55v106h72l30 185h103v-79l-17 -106h120l30 185h104v-79l-17 -106h55v-106h-72zM353 409h-120l-18 -114h120z" />
    <glyph glyph-name="dollar" unicode="$" horiz-adv-x="592" 
d="M391 483v65q-7 18 -33 35q-25 16 -62 16q-38 0 -61 -16q-24 -17 -34 -35v-70q7 -16 24 -28q16 -13 54 -22l50 -12q104 -23 148 -53q45 -30 68 -72v-173q-22 -41 -67 -77q-47 -38 -121 -51v-82h-121v82q-74 13 -121 51q-48 39 -67 77v107h153v-73q10 -18 35 -34
q22 -16 60 -16q37 0 62 16q26 17 33 34v87q-7 19 -24 31q-18 12 -53 20l-51 12q-101 22 -147 54q-48 32 -68 71v155q16 36 65 76q46 38 123 52v82h121v-82q76 -14 123 -52q48 -40 65 -76v-99h-154z" />
    <glyph glyph-name="percent" unicode="%" horiz-adv-x="908" 
d="M102 682q43 27 110 27t112 -27q45 -30 58 -65v-181q-15 -36 -59 -64q-43 -27 -111 -27q-66 0 -110 27q-44 28 -59 64v181q15 38 59 65zM660 700h66v-62l-476 -638h-66v62zM174 431q16 -9 38 -9q24 0 40 9q17 8 23 20v151q-6 12 -23 22q-18 8 -40 8q-21 0 -39 -8
q-17 -10 -23 -22v-151q6 -13 24 -20zM585 329q43 27 110 27t111 -27q43 -28 59 -65v-181q-15 -38 -59 -65t-111 -27q-68 0 -111 28q-45 28 -58 64v181q14 36 59 65zM656 77q16 -9 39 -9t39 9q17 8 23 21v151q-6 12 -23 22q-18 8 -39 8t-39 -8q-17 -10 -23 -22v-151
q6 -13 23 -21z" />
    <glyph glyph-name="ampersand" unicode="&#x26;" horiz-adv-x="685" 
d="M667 88v-88h-87l-60 56q-38 -34 -88 -52q-48 -19 -118 -19q-107 0 -175 41t-92 95v154q16 33 48 62t76 45l-73 68v148q13 25 43 52q27 26 77 46q47 19 111 19q91 0 149 -36q58 -38 83 -81v-98h-149v69q-9 11 -32 23q-21 10 -51 10t-50 -10q-23 -10 -33 -24v-86l217 -203
v74h129v-195zM242 114q33 -16 76 -16q68 0 112 42l-170 159q-24 -6 -40 -18q-18 -15 -25 -30v-98q12 -24 47 -39z" />
    <glyph glyph-name="quotesingle" unicode="'" horiz-adv-x="196" 
d="M34 700h128v-125l-19 -133h-90l-19 132v126z" />
    <glyph glyph-name="parenleft" unicode="(" horiz-adv-x="356" 
d="M143 -94q-65 50 -90 118v526q25 68 90 118q65 48 172 48h10v-106h-10q-38 0 -69 -20q-31 -22 -41 -49v-509q11 -30 42 -49q29 -19 68 -19h10v-106h-10q-107 0 -172 48z" />
    <glyph glyph-name="parenright" unicode=")" horiz-adv-x="356" 
d="M213 668q65 -50 90 -118v-526q-25 -68 -90 -118q-65 -48 -172 -48h-10v106h10q38 0 69 20q31 22 41 49v509q-11 29 -41 49q-31 19 -69 19h-10v106h10q107 0 172 -48z" />
    <glyph glyph-name="asterisk" unicode="*" horiz-adv-x="492" 
d="M457 563q0 -10 -2 -20l-146 -24l105 -106q-10 -25 -42 -49q-29 -21 -58 -24l-68 132l-68 -132q-29 3 -58 24q-32 24 -42 49l105 106l-146 24q-2 10 -2 20q0 21 7 43q14 36 33 54l131 -66l-22 145q26 15 62 15q38 0 61 -15l-22 -146l132 67q19 -18 33 -54q7 -22 7 -43z
" />
    <glyph glyph-name="plus" unicode="+" horiz-adv-x="587" 
d="M552 276h-199v-201h-120v201h-198v117h198v200h120v-200h199v-117z" />
    <glyph glyph-name="comma" unicode="," horiz-adv-x="224" 
d="M164 135q20 -14 27 -29v-163q-7 -24 -36 -48t-70 -24h-38v63h29q10 0 21 6q9 7 14 16v30q-29 0 -49 12q-22 14 -29 29v79q6 14 28 29q20 12 50 12q32 0 53 -12z" />
    <glyph glyph-name="hyphen" unicode="-" horiz-adv-x="367" 
d="M332 393v-117h-297v117h297z" />
    <glyph glyph-name="period" unicode="." horiz-adv-x="224" 
d="M61 135q20 12 50 12q32 0 53 -12q20 -14 27 -29v-77q-7 -16 -28 -28q-20 -13 -52 -13q-31 0 -50 13q-21 13 -28 28v77q7 16 28 29z" />
    <glyph glyph-name="slash" unicode="/" horiz-adv-x="412" 
d="M247 731h125v-79l-208 -762h-126v79z" />
    <glyph glyph-name="zero" unicode="0" horiz-adv-x="592" 
d="M95 643q31 30 84 51q51 21 117 21t118 -21q51 -21 84 -51q33 -33 47 -61v-463q-14 -30 -47 -61q-32 -31 -84 -52t-118 -21t-117 21q-53 21 -84 52q-34 31 -47 61v463q13 28 47 61zM237 117q25 -15 59 -15t60 15q24 14 35 36v395q-11 21 -36 36t-59 15t-59 -15t-36 -36
v-395q11 -21 36 -36z" />
    <glyph glyph-name="one" unicode="1" horiz-adv-x="443" 
d="M45 103h109v448l-110 -46v110l156 85h107v-597h103v-103h-365v103z" />
    <glyph glyph-name="two" unicode="2" horiz-adv-x="569" 
d="M318 382q50 46 54 63v103q-11 22 -35 36q-25 15 -60 15q-33 0 -56 -13q-23 -12 -35 -31v-94h-142v146q27 40 83 73q59 35 150 35q65 0 118 -21q51 -21 84 -51q34 -34 46 -61v-172q-4 -10 -23 -34q-20 -22 -48 -48l-206 -197v-8h281v-123h-489v115z" />
    <glyph glyph-name="three" unicode="3" horiz-adv-x="573" 
d="M183 211v-58q11 -21 36 -36t60 -15t60 15q24 13 35 36v95q-11 26 -35 41q-25 16 -60 16h-89v111h85q31 0 57 15q25 15 35 33v91q-12 19 -35 31q-25 13 -57 13q-33 0 -56 -13q-25 -13 -36 -31v-60h-141v112q13 20 42 46q27 23 78 43q48 19 113 19q64 0 116 -20
q51 -21 83 -50q33 -30 46 -56v-147q-9 -17 -37 -40q-24 -20 -61 -36q38 -17 65 -41q28 -25 40 -51v-155q-13 -29 -47 -60q-32 -31 -84 -52q-51 -22 -117 -22q-63 0 -114 20q-49 19 -80 47q-28 24 -43 49v110h141z" />
    <glyph glyph-name="four" unicode="4" horiz-adv-x="593" 
d="M269 700h227v-435h78v-117h-78v-148h-147v148h-322v112zM349 558h-17l-164 -293h181v293z" />
    <glyph glyph-name="five" unicode="5" horiz-adv-x="562" 
d="M450 421q49 -31 69 -76v-244q-24 -40 -83 -78q-58 -38 -153 -38q-94 0 -152 37q-61 39 -85 79v106h142v-54q10 -21 36 -36t59 -15t60 15q26 15 35 36v140q-9 21 -35 36t-59 15q-58 0 -90 -42h-141v398h463v-124h-322v-170q59 47 138 47q68 0 118 -32z" />
    <glyph glyph-name="six" unicode="6" horiz-adv-x="579" 
d="M391 494v54q-9 21 -35 36t-60 15t-59 -15t-36 -36v-155q61 50 142 50q71 0 120 -31q48 -31 70 -77v-234q-15 -25 -43 -49q-31 -28 -79 -47q-51 -20 -115 -20q-66 0 -117 21q-53 21 -84 52q-34 31 -47 61v463q14 30 48 62q31 30 83 51q52 20 117 20q95 0 153 -37
q59 -38 84 -78v-106h-142zM201 302v-149q11 -21 36 -36t59 -15t60 15t35 36v132q-9 21 -35 35q-28 14 -62 14q-50 0 -93 -32z" />
    <glyph glyph-name="seven" unicode="7" horiz-adv-x="508" 
d="M327 561v15h-311v124h469v-112l-246 -588h-132v89z" />
    <glyph glyph-name="eight" unicode="8" horiz-adv-x="584" 
d="M505 317q24 -25 36 -51v-147q-12 -29 -46 -61q-32 -31 -84 -52q-53 -21 -118 -21t-118 21t-84 52q-34 31 -47 61v147q13 25 36 50t59 45q-49 28 -80 71v175q27 39 84 73q58 35 149 35t150 -35q56 -34 84 -73v-175q-30 -42 -81 -70q35 -20 60 -45zM201 452q9 -15 35 -29
q25 -14 56 -14q32 0 57 14q26 14 35 29v104q-10 16 -35 30q-23 13 -57 13q-33 0 -56 -13q-25 -14 -35 -30v-104zM388 260q-10 21 -36 36t-60 15t-59 -15t-36 -36v-107q9 -21 36 -36q25 -15 59 -15t60 15t36 36v107z" />
    <glyph glyph-name="nine" unicode="9" horiz-adv-x="576" 
d="M399 694q51 -21 84 -51q34 -34 46 -61v-463q-14 -29 -47 -62q-33 -31 -84 -51q-51 -21 -117 -21q-94 0 -152 37q-60 37 -85 79v99h142v-47q9 -21 35 -36q25 -15 60 -15t60 15q24 14 35 36v144q-58 -49 -140 -49q-71 0 -121 32q-51 32 -71 76v244q13 22 43 49q32 27 80 46
q51 20 114 20q66 0 118 -21zM376 389v159q-10 21 -36 36t-59 15q-35 0 -60 -15q-26 -15 -35 -36v-143q9 -20 35 -34t62 -14q50 0 93 32z" />
    <glyph glyph-name="colon" unicode=":" horiz-adv-x="238" 
d="M68 135q19 12 50 12q32 0 53 -12q20 -14 27 -29v-77q-7 -16 -28 -28q-20 -13 -52 -13q-31 0 -50 13q-21 13 -28 28v77q7 16 28 29zM68 464q20 12 50 12q32 0 53 -12q20 -14 27 -29v-77q-7 -16 -28 -28q-20 -13 -52 -13q-31 0 -50 13q-21 13 -28 28v77q7 16 28 29z" />
    <glyph glyph-name="semicolon" unicode=";" horiz-adv-x="238" 
d="M171 135q20 -14 27 -29v-163q-8 -24 -36 -48t-70 -24h-38v63h29q11 0 21 6q9 7 14 16v30q-30 0 -49 12q-22 14 -29 29v79q6 14 28 29q19 12 50 12q32 0 53 -12zM68 464q20 12 50 12q32 0 53 -12q20 -14 27 -29v-77q-7 -16 -28 -28q-20 -13 -52 -13q-31 0 -50 13
q-21 13 -28 28v77q7 16 28 29z" />
    <glyph glyph-name="less" unicode="&#x3c;" horiz-adv-x="587" 
d="M451 542h108v-80l-381 -167l381 -165v-81h-108l-424 194v105z" />
    <glyph glyph-name="equal" unicode="=" horiz-adv-x="587" 
d="M552 286v-117h-517v117h517zM552 500v-117h-517v117h517z" />
    <glyph glyph-name="greater" unicode="&#x3e;" horiz-adv-x="587" 
d="M409 295l-382 167v80h108l424 -194v-105l-424 -194h-108v81z" />
    <glyph glyph-name="question" unicode="?" horiz-adv-x="540" 
d="M290 405q33 23 44 32q21 16 26 25v85q-14 20 -38 33q-25 13 -58 13t-58 -13q-26 -14 -39 -33v-68h-142v128q31 43 90 76q59 32 149 32q98 0 160 -38q62 -39 90 -87v-179q-11 -21 -79 -68l-135 -93v-55h-152v114zM174 135q20 12 50 12q32 0 53 -12q21 -14 26 -29v-77
q-6 -15 -26 -28t-53 -13q-31 0 -50 13q-22 13 -29 28v77q7 15 29 29z" />
    <glyph glyph-name="at" unicode="@" horiz-adv-x="922" 
d="M668 674q87 -41 143 -102q56 -62 75 -118v-349q-24 -36 -67 -55q-42 -19 -95 -19q-101 0 -156 67q-62 -63 -152 -63q-46 0 -82 18q-38 18 -60 45q-22 26 -33 51v251q16 43 60 79q44 35 110 35q82 0 134 -55v42h131v-363q16 -28 58 -28q20 0 33 7t24 21v298q-19 43 -58 86
q-41 44 -109 76q-69 32 -159 32q-111 0 -197 -51q-87 -53 -128 -146v-313q43 -93 130 -145q88 -53 195 -53q99 0 179 47l48 -67q-104 -63 -227 -63q-145 0 -257 69q-114 69 -163 190v358q31 78 97 138q64 58 150 90q84 31 176 31q110 0 200 -41zM509 144q23 10 36 27v208
q-13 17 -36 27t-54 10t-53 -12q-22 -13 -28 -27v-204q7 -13 29 -27q20 -13 52 -13q29 0 54 11z" />
    <glyph glyph-name="A" unicode="A" horiz-adv-x="628" 
d="M603 89v-89h-147l-41 163h-217l-42 -163h-131v89l172 611h233zM385 285l-68 272h-18l-70 -272h156z" />
    <glyph glyph-name="B" unicode="B" horiz-adv-x="601" 
d="M354 700q69 0 122 -35q51 -35 78 -84v-143q-10 -19 -32 -39q-24 -22 -44 -33q21 -10 47 -31q22 -19 36 -41v-175q-27 -49 -81 -83q-54 -36 -126 -36h-296v700h296zM372 426q21 11 35 33v73q-13 24 -35 37t-54 13h-100v-169h105q27 0 49 13zM414 168v91q-12 19 -36 33
q-25 13 -54 13h-106v-187h102q65 0 94 50z" />
    <glyph glyph-name="C" unicode="C" horiz-adv-x="617" 
d="M573 127q-28 -55 -92 -99q-62 -43 -168 -43q-105 0 -172 47t-93 107v423q26 60 93 107q64 46 172 46q106 0 168 -43q65 -45 92 -98v-146h-155v101q-11 28 -37 44q-29 17 -68 17q-38 0 -66 -17q-27 -16 -39 -44v-358q11 -27 39 -43q27 -18 66 -18q38 0 66 17q27 16 39 44
v112h155v-156z" />
    <glyph glyph-name="D" unicode="D" horiz-adv-x="629" 
d="M497 41q-59 -41 -149 -41h-290v700h290q91 0 149 -40t84 -98v-424q-25 -56 -84 -97zM384 564q-28 15 -68 15h-98v-458h98q40 0 68 16q26 14 37 41v344q-11 26 -37 42z" />
    <glyph glyph-name="E" unicode="E" horiz-adv-x="535" 
d="M490 700v-122h-272v-159h254v-122h-254v-175h279v-122h-439v700h432z" />
    <glyph glyph-name="F" unicode="F" horiz-adv-x="514" 
d="M478 700v-121h-260v-167h248v-121h-248v-291h-160v700h420z" />
    <glyph glyph-name="G" unicode="G" horiz-adv-x="616" 
d="M418 459v70q-11 28 -37 44q-29 17 -68 17q-38 0 -66 -17q-27 -16 -39 -44v-358q11 -27 39 -43q29 -18 69 -18t68 17q27 17 39 40v105h-102v117h252v-262q-28 -55 -92 -99q-62 -43 -168 -43q-105 0 -172 47t-93 107v423q26 60 93 107q64 46 172 46q106 0 168 -43
q65 -45 92 -98v-115h-155z" />
    <glyph glyph-name="H" unicode="H" horiz-adv-x="656" 
d="M218 700v-278h220v278h160v-700h-160v300h-220v-300h-160v700h160z" />
    <glyph glyph-name="I" unicode="I" horiz-adv-x="275" 
d="M218 700v-700h-160v700h160z" />
    <glyph glyph-name="J" unicode="J" horiz-adv-x="387" 
d="M66 121q40 0 68 15t38 42v522h160v-561q-64 -141 -254 -141q-28 0 -58 2v121h46z" />
    <glyph glyph-name="K" unicode="K" horiz-adv-x="598" 
d="M569 89v-89h-127l-179 280l-45 -50v-230h-160v700h160v-249h17l213 249h115v-89l-196 -216z" />
    <glyph glyph-name="L" unicode="L" horiz-adv-x="458" 
d="M218 700v-578h219v-122h-379v700h160z" />
    <glyph glyph-name="M" unicode="M" horiz-adv-x="807" 
d="M269 700l129 -321h18l124 321h209v-700h-150v468h-18l-131 -327h-94l-131 327h-19v-468h-148v700h211z" />
    <glyph glyph-name="N" unicode="N" horiz-adv-x="668" 
d="M238 700l205 -432h19v432h148v-700h-180l-205 432h-19v-432h-148v700h180z" />
    <glyph glyph-name="O" unicode="O" horiz-adv-x="626" 
d="M141 669q64 46 172 46q107 0 172 -46q67 -47 93 -107v-423q-26 -60 -92 -107q-67 -47 -173 -47q-105 0 -172 47t-93 107v423q26 60 93 107zM247 128q27 -18 66 -18t67 18q27 17 38 43v358q-11 27 -38 44q-28 17 -67 17q-38 0 -66 -17q-28 -16 -39 -44v-358q11 -27 39 -43
z" />
    <glyph glyph-name="P" unicode="P" horiz-adv-x="592" 
d="M348 700q67 0 122 -31t88 -88v-219q-27 -50 -83 -86q-55 -34 -127 -34h-130v-242h-160v700h290zM367 377q23 12 37 36v117q-13 24 -38 37q-25 12 -55 12h-93v-215h93q31 0 56 13z" />
    <glyph glyph-name="Q" unicode="Q" horiz-adv-x="626" 
d="M583 -38v-112h-80q-35 0 -73 18q-40 18 -71 48q-31 32 -48 69q-108 2 -171 47q-66 47 -92 107v423q26 60 93 107q64 46 172 46q107 0 172 -46q67 -47 93 -107v-423q-18 -40 -49 -73q-33 -35 -83 -56q10 -21 33 -35q22 -13 40 -13h64zM247 128q27 -18 66 -18t67 18
q27 17 38 43v358q-11 27 -38 44q-28 17 -67 17q-38 0 -66 -17q-28 -16 -39 -44v-358q11 -27 39 -43z" />
    <glyph glyph-name="R" unicode="R" horiz-adv-x="607" 
d="M569 89v-89h-131l-148 258h-72v-258h-160v700h295q67 0 122 -31q53 -30 86 -88v-203q-41 -73 -113 -101zM218 375h99q34 0 57 13q22 12 36 36v106q-13 24 -37 37q-26 12 -56 12h-99v-204z" />
    <glyph glyph-name="S" unicode="S" horiz-adv-x="595" 
d="M196 225v-61q10 -22 37 -38q26 -16 65 -16q38 0 63 16q27 18 38 38v71q-9 17 -27 31q-20 12 -56 21l-52 11q-100 22 -150 54q-49 31 -73 72v157q29 51 90 93q62 41 167 41q103 0 166 -42q62 -42 89 -92v-98h-154v54q-10 21 -36 38q-27 15 -65 15q-39 0 -65 -16
q-27 -16 -37 -37v-58q10 -18 28 -29q18 -12 57 -21l50 -13q101 -22 150 -54q49 -31 72 -73v-170q-29 -52 -90 -92q-61 -42 -165 -42t-166 42q-63 41 -91 92v106h155z" />
    <glyph glyph-name="T" unicode="T" horiz-adv-x="538" 
d="M25 578v122h488v-122h-163v-578h-160v578h-165z" />
    <glyph glyph-name="U" unicode="U" horiz-adv-x="639" 
d="M585 139q-26 -60 -93 -107t-172 -47t-172 47t-93 107v561h160v-527q11 -26 38 -43q27 -18 67 -18q38 0 66 17q27 16 39 44v527h160v-561z" />
    <glyph glyph-name="V" unicode="V" horiz-adv-x="615" 
d="M25 700h152l128 -524h18l130 524h137v-89l-171 -611h-222l-172 611v89z" />
    <glyph glyph-name="W" unicode="W" horiz-adv-x="926" 
d="M31 700h152l81 -488h18l109 488h143l110 -488h18l80 488h153v-89l-120 -611h-213l-96 400h-18l-95 -400h-202l-120 611v89z" />
    <glyph glyph-name="X" unicode="X" horiz-adv-x="598" 
d="M196 350l-160 261v89h143l117 -234h18l120 234h127v-89l-159 -260l159 -262v-89h-142l-115 234h-19l-119 -234h-130v89z" />
    <glyph glyph-name="Y" unicode="Y" horiz-adv-x="581" 
d="M27 611v89h147l115 -239h18l115 239h132v-89l-187 -335v-276h-161v292z" />
    <glyph glyph-name="Z" unicode="Z" horiz-adv-x="558" 
d="M321 561v17h-281v122h482v-103l-287 -458v-17h287v-122h-487v103z" />
    <glyph glyph-name="bracketleft" unicode="[" horiz-adv-x="362" 
d="M218 610v-646h113v-106h-266v858h266v-106h-113z" />
    <glyph glyph-name="backslash" unicode="\" horiz-adv-x="412" 
d="M38 731h126l208 -762v-79h-125l-209 762v79z" />
    <glyph glyph-name="bracketright" unicode="]" horiz-adv-x="362" 
d="M144 -36v646h-113v106h266v-858h-266v106h113z" />
    <glyph glyph-name="asciicircum" unicode="^" horiz-adv-x="505" 
d="M183 700h138l145 -271v-87h-96l-108 212h-19l-108 -212h-97v86z" />
    <glyph glyph-name="underscore" unicode="_" horiz-adv-x="519" 
d="M524 -53v-94h-529v94h529z" />
    <glyph glyph-name="grave" unicode="`" 
d="M135 765h138l54 -148v-15h-111l-81 99v64z" />
    <glyph glyph-name="a" unicode="a" horiz-adv-x="557" 
d="M428 516q60 -43 82 -95v-421h-143v39q-59 -54 -147 -54q-76 0 -119 28q-44 26 -61 56v162q16 32 61 63q44 29 119 29q84 0 142 -47v115q-10 21 -34 37q-23 14 -56 14q-31 0 -52 -12q-19 -11 -31 -26v-37h-137v86q26 36 77 70q52 34 143 34q95 0 156 -41zM325 96
q23 10 37 29v59q-14 19 -37 29q-27 11 -59 11q-31 0 -50 -10q-22 -11 -30 -22v-72q10 -14 30 -24q20 -11 50 -11q32 0 59 11z" />
    <glyph glyph-name="b" unicode="b" horiz-adv-x="560" 
d="M454 517q44 -36 64 -85v-321q-20 -49 -64 -85q-47 -38 -120 -38q-86 0 -142 56v-44h-143v700h148v-197q55 51 137 51q74 0 120 -37zM369 397q-9 14 -30 28q-22 13 -54 13q-29 0 -51 -9q-24 -10 -37 -24v-267q13 -14 37 -24q21 -10 52 -10t53 13q21 14 30 28v252z" />
    <glyph glyph-name="c" unicode="c" horiz-adv-x="545" 
d="M125 516q61 41 155 41t150 -37t79 -80v-110h-138v61q-9 21 -33 36q-25 15 -58 15q-32 0 -55 -15t-34 -36v-240q11 -22 33 -35q22 -15 56 -15q32 0 58 15q24 13 33 35v62h138v-111q-24 -43 -79 -79q-58 -38 -150 -38q-95 0 -155 42q-59 40 -82 94v300q23 54 82 95z" />
    <glyph glyph-name="d" unicode="d" horiz-adv-x="559" 
d="M510 700v-700h-142v44q-56 -56 -143 -56q-73 0 -119 38q-44 36 -64 85v321q20 49 64 85q44 37 119 37q81 0 137 -50v196h148zM326 114q22 9 36 24v267q-14 15 -36 24q-23 9 -52 9q-32 0 -54 -13q-21 -13 -29 -28v-252q9 -14 30 -28q20 -13 53 -13q31 0 52 10z" />
    <glyph glyph-name="e" unicode="e" horiz-adv-x="549" 
d="M191 234v-85q11 -21 34 -36t55 -15t58 15q24 15 33 36v36h138v-83q-23 -41 -79 -79q-58 -38 -150 -38q-95 0 -155 42q-59 40 -82 94v300q23 54 82 95q61 41 155 41t150 -37t79 -80v-206h-318zM224 430q-23 -15 -33 -37v-72h180v72q-9 22 -33 37q-25 14 -58 14t-56 -14z
" />
    <glyph glyph-name="f" unicode="f" horiz-adv-x="363" 
d="M225 585v-43h118v-108h-118v-434h-148v434h-53v108h53v92q15 38 57 67q42 27 119 27q29 0 54 -3q29 -6 36 -8v-102q-14 2 -35 2q-66 0 -83 -32z" />
    <glyph glyph-name="g" unicode="g" horiz-adv-x="559" 
d="M511 542v-585q-24 -53 -83 -92q-58 -39 -155 -39q-93 0 -147 36q-56 36 -78 78v82h143v-46q9 -14 30 -27q21 -12 52 -12q35 0 57 13q23 14 33 34v123q-56 -52 -138 -52q-73 0 -119 38q-46 37 -63 84v255q17 48 63 85q44 37 119 37q84 0 143 -56v44h143zM363 205v199
q-13 14 -36 25q-23 9 -52 9q-32 0 -54 -13q-23 -14 -30 -28v-185q9 -15 31 -28q20 -13 53 -13q58 0 88 34z" />
    <glyph glyph-name="h" unicode="h" horiz-adv-x="566" 
d="M456 517q44 -37 63 -85v-432h-148v397q-10 15 -31 29q-22 12 -53 12q-29 0 -52 -9q-24 -10 -37 -24v-405h-148v700h148v-197q55 51 137 51q75 0 121 -37z" />
    <glyph glyph-name="i" unicode="i" horiz-adv-x="249" 
d="M198 542v-542h-148v542h148zM74 734q20 12 50 12q32 0 52 -12q19 -12 27 -29v-60q-7 -16 -27 -28t-52 -12q-30 0 -50 12q-22 13 -29 28v60q7 15 29 29z" />
    <glyph glyph-name="j" unicode="j" horiz-adv-x="247" 
d="M16 -42q22 16 33 42v542h148v-577q-23 -54 -82 -95q-61 -42 -156 -42v114q34 0 57 16zM74 734q20 12 50 12q32 0 52 -12q19 -12 27 -29v-60q-7 -16 -27 -28t-52 -12q-30 0 -50 12q-22 13 -29 28v60q7 15 29 29z" />
    <glyph glyph-name="k" unicode="k" horiz-adv-x="521" 
d="M502 81v-81h-118l-141 203l-46 -48v-155h-148v700h148v-349h18l177 191h103v-81l-151 -155z" />
    <glyph glyph-name="l" unicode="l" horiz-adv-x="246" 
d="M197 700v-700h-148v700h148z" />
    <glyph glyph-name="m" unicode="m" horiz-adv-x="830" 
d="M725 518q43 -39 58 -83v-435h-148v402q-19 36 -71 36q-48 0 -74 -30v-408h-148v402q-8 16 -24 26q-17 10 -47 10q-49 0 -74 -30v-408h-148v542h138v-45q53 57 134 57q94 0 145 -72q56 72 148 72q70 0 111 -36z" />
    <glyph glyph-name="n" unicode="n" horiz-adv-x="565" 
d="M454 517q46 -37 63 -85v-432h-148v397q-9 14 -30 28q-22 13 -54 13q-29 0 -51 -9q-23 -9 -37 -23v-406h-148v542h138v-48q60 60 147 60q74 0 120 -37z" />
    <glyph glyph-name="o" unicode="o" horiz-adv-x="561" 
d="M126 516q61 41 155 41q95 0 156 -41q60 -43 82 -95v-300q-23 -53 -82 -94q-60 -42 -156 -42q-95 0 -155 42q-60 39 -83 94v300q23 54 83 95zM224 116q24 -15 57 -15t57 15q24 13 33 35v240q-9 21 -33 36t-57 15t-57 -15t-33 -36v-240q9 -22 33 -35z" />
    <glyph glyph-name="p" unicode="p" horiz-adv-x="560" 
d="M454 517q44 -36 64 -85v-321q-20 -49 -64 -85q-47 -38 -120 -38q-82 0 -137 51v-205h-148v708h143v-44q56 56 142 56q74 0 120 -37zM369 397q-9 14 -30 28q-22 13 -54 13q-29 0 -51 -9q-24 -10 -37 -24v-267q13 -14 37 -24q21 -10 52 -10t53 13q21 14 30 28v252z" />
    <glyph glyph-name="q" unicode="q" horiz-adv-x="559" 
d="M510 542v-708h-148v204q-56 -50 -137 -50q-73 0 -119 38q-44 36 -64 85v321q20 49 64 85q44 37 119 37q87 0 143 -56v44h142zM326 114q22 9 36 24v267q-14 15 -36 24q-23 9 -52 9q-32 0 -54 -13q-21 -13 -29 -28v-252q9 -14 30 -28q20 -13 53 -13q31 0 52 10z" />
    <glyph glyph-name="r" unicode="r" horiz-adv-x="380" 
d="M187 542v-74q49 75 150 75l21 -1v-136q-7 1 -25 1q-48 0 -84 -11q-36 -13 -52 -30v-366h-148v542h138z" />
    <glyph glyph-name="s" unicode="s" horiz-adv-x="518" 
d="M176 174v-43q10 -17 33 -27q22 -11 50 -11t52 11q20 10 31 27v47q-14 24 -68 35l-56 12q-78 15 -120 40q-45 26 -59 50v138q25 36 79 71q52 33 141 33t141 -33q50 -31 80 -71v-81h-138v39q-11 17 -31 27q-24 11 -52 11q-27 0 -51 -11q-21 -10 -32 -27v-41q13 -22 69 -34
l55 -12q79 -17 120 -41q44 -26 60 -49v-145q-26 -38 -78 -71q-54 -33 -143 -33t-141 34q-54 33 -79 70v85h137z" />
    <glyph glyph-name="t" unicode="t" horiz-adv-x="363" 
d="M225 434v-300q24 -33 83 -33q20 0 35 3v-105q-42 -11 -90 -11q-78 0 -119 28q-42 27 -57 66v352h-53v108h53v113h148v-113h118v-108h-118z" />
    <glyph glyph-name="u" unicode="u" horiz-adv-x="559" 
d="M510 542v-542h-138v47q-56 -59 -144 -59q-74 0 -118 38q-45 38 -63 84v432h148v-397q8 -15 29 -28q19 -13 52 -13q56 0 86 34v404h148z" />
    <glyph glyph-name="v" unicode="v" horiz-adv-x="535" 
d="M28 542h141l97 -376h17l99 376h124v-81l-142 -461h-194l-142 461v81z" />
    <glyph glyph-name="w" unicode="w" horiz-adv-x="798" 
d="M31 542h141l68 -377h18l82 377h135l81 -377h17l70 377h127v-81l-113 -461h-176l-72 300h-14l-72 -300h-179l-113 461v81z" />
    <glyph glyph-name="x" unicode="x" horiz-adv-x="514" 
d="M153 273l-122 188v81h130l91 -183h9l93 183h129v-81l-123 -188l123 -192v-81h-131l-91 183h-9l-94 -183h-127v81z" />
    <glyph glyph-name="y" unicode="y" horiz-adv-x="533" 
d="M502 542v-80l-184 -554q-29 -34 -78 -56q-48 -22 -116 -22q-26 0 -48 3q-26 3 -36 7v102l51 -2q34 0 58 10t38 24l10 34l-168 452v82h141l89 -334h17l96 334h130z" />
    <glyph glyph-name="z" unicode="z" horiz-adv-x="476" 
d="M265 424v10h-237v108h421v-93l-244 -330v-11h244v-108h-421v100z" />
    <glyph glyph-name="braceleft" unicode="{" horiz-adv-x="387" 
d="M178 287q40 -27 58 -75v-179q11 -31 42 -50q29 -19 69 -19h9v-106h-6q-109 0 -173 46t-94 120v186q-12 32 -55 32v90q44 0 55 32v186q30 74 94 120t172 46h7v-106h-9q-40 0 -69 -19q-31 -19 -42 -50v-180q-18 -49 -58 -74z" />
    <glyph glyph-name="bar" unicode="|" horiz-adv-x="320" 
d="M239 790v-920h-159v920h159z" />
    <glyph glyph-name="braceright" unicode="}" horiz-adv-x="387" 
d="M359 332v-90q-44 0 -55 -32v-186q-30 -74 -94 -120t-172 -46h-7v106h9q39 0 70 19q30 20 41 50v180q18 49 58 74q-40 27 -58 75v179q-11 30 -41 50q-31 19 -70 19h-9v106h6q109 0 173 -46t94 -120v-186q12 -32 55 -32z" />
    <glyph glyph-name="asciitilde" unicode="~" horiz-adv-x="585" 
d="M53 420q19 12 50 22q30 10 69 10q34 0 65 -6q50 -12 76 -20q39 -12 69 -18q27 -7 58 -7q30 0 54 10q27 11 42 22q16 10 16 12v-129q0 -1 -15 -10q-15 -8 -40 -16q-27 -8 -56 -8q-37 0 -66 7q-37 7 -77 19q-24 8 -67 19q-30 6 -61 6q-34 0 -65 -11q-33 -13 -50 -25
q-21 -13 -21 -15v124q0 1 19 14z" />
    <glyph glyph-name="uni00A0" unicode="&#xa0;" horiz-adv-x="203" 
 />
    <glyph glyph-name="exclamdown" unicode="&#xa1;" horiz-adv-x="287" 
d="M195 418q-19 -13 -51 -13q-33 0 -52 13q-21 12 -27 28v70q6 15 27 29q20 12 52 12t51 -12q22 -15 28 -29v-70q-7 -15 -28 -28zM227 -154h-167v144l19 370h129l19 -370v-144z" />
    <glyph glyph-name="cent" unicode="&#xa2;" horiz-adv-x="541" 
d="M371 330v64q-9 21 -33 36q-26 14 -58 14q-33 0 -56 -14q-22 -15 -33 -36v-246q11 -22 34 -35q23 -15 55 -15t58 15q24 15 33 35v65h138v-111q-17 -32 -59 -65q-41 -32 -108 -46v-83h-121v82q-69 12 -115 50q-45 38 -63 81v300q18 43 63 81q46 38 115 50v82h121v-82
q67 -14 108 -46q41 -34 59 -66v-110h-138z" />
    <glyph glyph-name="sterling" unicode="&#xa3;" horiz-adv-x="608" 
d="M426 500v48q-10 21 -36 36t-60 15t-59 -15q-25 -16 -36 -36v-157h230v-88h-230v-132q-13 -32 -31 -52h363v-119h-527v102q10 2 24 12q13 9 18 26v163h-49v88h49v191q13 28 47 61q31 30 84 51q51 21 117 21q63 0 114 -20q47 -19 81 -46q31 -27 42 -49v-100h-141z" />
    <glyph glyph-name="currency" unicode="&#xa4;" horiz-adv-x="590" 
d="M538 509l-27 -27q13 -16 22 -37v-222q-7 -18 -21 -36l26 -27v-72h-96l-24 24q-54 -25 -123 -25t-123 24l-23 -23h-97v72l26 26q-17 24 -22 37v222q7 16 22 38l-26 26v72h97l24 -24q53 24 122 24q65 0 123 -24l24 24h96v-72zM386 417q-10 22 -34 37q-25 14 -57 14
q-33 0 -56 -14q-24 -15 -34 -37v-167q11 -22 34 -35q23 -15 56 -15t57 15q23 13 34 35v167z" />
    <glyph glyph-name="yen" unicode="&#xa5;" horiz-adv-x="597" 
d="M566 621l-114 -206h114v-74h-155l-36 -64v-8h191v-73h-191v-196h-160v196h-185v73h185v24l-27 48h-158v74h116l-116 206v79h153l115 -239h15l115 239h138v-79z" />
    <glyph glyph-name="brokenbar" unicode="&#xa6;" horiz-adv-x="321" 
d="M239 790v-402h-159v402h159zM239 299v-428h-159v428h159z" />
    <glyph glyph-name="section" unicode="&#xa7;" horiz-adv-x="524" 
d="M344 529v46q-9 15 -31 27q-24 11 -52 11q-26 0 -50 -11q-21 -11 -32 -27v-47q8 -13 24 -20q17 -8 45 -15l54 -12q80 -17 121 -40q45 -26 59 -49v-145q-22 -31 -54 -52q39 -23 54 -48v-135q-23 -36 -78 -71q-53 -34 -143 -34q-89 0 -141 33q-52 34 -78 72v81h137v-46
q12 -16 32 -26q24 -11 51 -11t51 11q21 10 31 26v48q-11 21 -68 35l-55 12q-78 15 -120 40q-45 26 -59 49v144q19 29 53 53q-38 21 -53 47v136q22 35 77 70q53 34 143 34q88 0 141 -33q49 -32 79 -71v-82h-138zM276 373l-18 4q-28 -2 -47 -12q-21 -11 -32 -26v-54
q12 -24 68 -35l22 -5q28 2 47 13q20 11 28 25v55q-12 24 -68 35z" />
    <glyph glyph-name="dieresis" unicode="&#xa8;" 
d="M123 742q45 0 71 -29v-82q-24 -30 -71 -30q-44 0 -71 30v82q26 29 71 29zM296 734q16 8 43 8q46 0 72 -29v-82q-24 -30 -72 -30q-28 0 -43 9q-14 7 -28 21v82q13 13 28 21z" />
    <glyph glyph-name="copyright" unicode="&#xa9;" horiz-adv-x="797" 
d="M82 534q50 83 133 132t183 49t185 -49q85 -50 134 -132q49 -83 49 -184t-49 -183q-49 -83 -134 -133q-85 -49 -185 -49t-183 49q-84 49 -133 133q-50 83 -50 183q0 99 50 184zM550 86q68 40 109 111q39 71 39 153t-39 153q-41 71 -109 111q-70 41 -152 41q-83 0 -151 -41
q-69 -40 -108 -111q-40 -70 -40 -153t40 -153q39 -71 108 -111q68 -41 151 -41q82 0 152 41zM270 547q48 33 128 33q77 0 124 -29q45 -29 68 -62v-95h-112v58q-12 15 -30 25q-19 10 -48 10t-48 -10t-29 -25v-205q8 -14 29 -25q20 -11 48 -11t48 11q18 10 30 25v58h112v-96
q-22 -33 -67 -61q-47 -29 -125 -29q-80 0 -129 34q-51 36 -68 71v251q19 37 69 72z" />
    <glyph glyph-name="ordfeminine" unicode="&#xaa;" horiz-adv-x="415" 
d="M308 683q41 -29 56 -66v-261h-89v23q-43 -31 -101 -31q-50 0 -82 18q-33 17 -43 36v99q15 23 44 41q31 19 81 19q57 0 99 -30v72q-8 18 -26 29q-19 11 -44 11q-41 0 -63 -28v-23h-84v49q16 25 51 48q34 22 96 22q65 0 105 -28zM245 416q19 7 28 19v39q-10 13 -28 20
q-21 8 -47 8t-39 -7q-15 -7 -21 -18v-44q5 -9 20 -17q16 -8 40 -8q26 0 47 8z" />
    <glyph glyph-name="guillemotleft" unicode="&#xab;" horiz-adv-x="625" 
d="M35 345l173 197h108v-78l-161 -177l161 -176v-79h-108l-173 198v115zM306 345l174 197h108v-78l-161 -177l161 -176v-79h-108l-174 198v115z" />
    <glyph glyph-name="logicalnot" unicode="&#xac;" horiz-adv-x="587" 
d="M552 75h-119v201h-398v117h517v-318z" />
    <glyph glyph-name="uni00AD" unicode="&#xad;" horiz-adv-x="367" 
d="M332 393v-117h-297v117h297z" />
    <glyph glyph-name="registered" unicode="&#xae;" horiz-adv-x="518" 
d="M379 792q55 -33 88 -88q33 -56 33 -119t-33 -119t-88 -87q-55 -33 -120 -33q-63 0 -119 33q-56 32 -89 87q-33 56 -33 119t33 119q32 54 89 88q56 32 119 32q64 0 120 -32zM357 416q45 26 70 71q26 46 26 98t-26 98q-25 44 -70 72q-46 26 -98 26q-53 0 -97 -26
q-44 -27 -70 -72q-26 -46 -26 -98t26 -98t70 -71q44 -27 97 -27t98 27zM335 711q24 -15 36 -39v-77q-15 -30 -46 -43l43 -57v-40h-57l-49 88h-38v-88h-64v270h124q25 0 51 -14zM224 593h47q27 0 34 19v42q-8 20 -34 20h-47v-81z" />
    <glyph glyph-name="macron" unicode="&#xaf;" 
d="M403 725v-99h-345v99h345z" />
    <glyph glyph-name="degree" unicode="&#xb0;" horiz-adv-x="392" 
d="M89 780q41 27 107 27t108 -27q42 -28 58 -61v-131q-17 -33 -58 -60q-41 -28 -108 -28t-107 28q-43 27 -59 60v131q16 32 59 61zM157 594q17 -9 38 -9q23 0 40 9t24 22v76q-7 12 -24 21t-40 9q-21 0 -38 -9t-24 -21v-76q7 -13 24 -22z" />
    <glyph glyph-name="plusminus" unicode="&#xb1;" horiz-adv-x="587" 
d="M552 475v-118h-199v-175h-120v175h-198v118h198v175h120v-175h199zM35 135h517v-118h-517v118z" />
    <glyph glyph-name="acute" unicode="&#xb4;" 
d="M187 767h139v-63l-80 -100h-112v15z" />
    <glyph glyph-name="paragraph" unicode="&#xb6;" horiz-adv-x="671" 
d="M295 -100v332h-45q-73 0 -126 34q-56 35 -84 86v229q32 56 89 88q55 31 121 31h155v-800h-110zM610 700v-800h-111v800h111z" />
    <glyph glyph-name="periodcentered" unicode="&#xb7;" horiz-adv-x="224" 
d="M61 408q20 12 50 12q32 0 53 -12q20 -14 27 -29v-77q-7 -16 -28 -28q-20 -13 -52 -13q-31 0 -50 13q-21 13 -28 28v77q7 16 28 29z" />
    <glyph glyph-name="cedilla" unicode="&#xb8;" 
d="M207 -179q17 0 32 5q12 5 17 15v32q-5 8 -16 12t-30 4h-58l33 116h71l-16 -58h10q36 0 59 -15q22 -13 31 -35v-87q-14 -28 -46 -44t-77 -16q-30 0 -58 5q-25 6 -41 14l18 64q44 -12 71 -12z" />
    <glyph glyph-name="ordmasculine" unicode="&#xba;" horiz-adv-x="419" 
d="M105 683q40 28 105 28t105 -28q41 -29 56 -66v-176q-15 -38 -56 -65q-40 -28 -105 -28t-105 28q-41 27 -56 65v176q15 37 56 66zM166 428q19 -11 44 -11q24 0 44 11q19 10 26 26v149q-8 19 -26 28q-20 11 -44 11q-25 0 -44 -11q-18 -9 -26 -28v-149q7 -16 26 -26z" />
    <glyph glyph-name="guillemotright" unicode="&#xbb;" horiz-adv-x="625" 
d="M199 287l-161 177v78h109l173 -197v-115l-173 -198h-109v79zM470 287l-161 177v78h109l173 -197v-115l-173 -198h-109v79z" />
    <glyph glyph-name="onequarter" unicode="&#xbc;" horiz-adv-x="961" 
d="M125 350v263l-70 -4v64l88 27h89v-350h66v-70h-242v70h69zM674 700h66v-62l-475 -638h-67v62zM715 420h158v-257h52v-79h-52v-84h-102v84h-222v77zM771 325h-12l-110 -162h122v162z" />
    <glyph glyph-name="onehalf" unicode="&#xbd;" horiz-adv-x="1002" 
d="M125 350v263l-70 -4v64l88 27h89v-350h66v-70h-242v70h69zM674 700h66v-62l-475 -638h-67v62zM795 231q30 23 36 33v62q-7 10 -24 18q-15 7 -39 7q-22 0 -38 -6q-15 -7 -23 -15v-56h-98v90q21 24 58 44q37 21 101 21q66 0 109 -25q45 -27 61 -55v-109q-7 -13 -44 -39
l-147 -112v-3h193v-86h-334v78z" />
    <glyph glyph-name="threequarters" unicode="&#xbe;" horiz-adv-x="1007" 
d="M142 409v-35q5 -9 24 -17q18 -8 39 -8q22 0 40 8t23 17v55q-6 13 -22 20q-18 8 -41 8h-61v76h59q20 0 38 8q16 7 23 16v53q-8 8 -23 15q-17 6 -38 6q-20 0 -37 -6q-16 -7 -24 -15v-35h-98v69q16 22 56 44q40 21 103 21q65 0 108 -24q43 -25 59 -53v-90q-7 -9 -24 -22
q-17 -12 -42 -22q22 -8 44 -23q17 -14 27 -29v-95q-17 -29 -60 -54q-44 -26 -110 -26q-63 0 -104 23q-43 23 -57 44v71h98zM720 700h66v-62l-475 -638h-67v62zM761 420h158v-257h52v-79h-52v-84h-102v84h-222v77zM817 325h-12l-110 -162h122v162z" />
    <glyph glyph-name="questiondown" unicode="&#xbf;" horiz-adv-x="540" 
d="M367 412q-20 -13 -51 -13q-33 0 -52 13q-21 12 -27 28v76q6 15 27 29q19 12 52 12q30 0 51 -12q20 -14 27 -29v-76q-7 -16 -27 -28zM250 141q-29 -20 -47 -34q-17 -14 -23 -24v-84q14 -20 38 -33q25 -13 58 -13q34 0 59 13q24 13 38 33v68h142v-129q-31 -41 -89 -75
q-59 -32 -150 -32q-98 0 -160 38q-62 39 -90 87v179q6 12 27 29q22 18 52 39l135 93v55h152v-114z" />
    <glyph glyph-name="Agrave" unicode="&#xc0;" horiz-adv-x="628" 
d="M603 89v-89h-147l-41 163h-217l-42 -163h-131v89l172 611h233zM385 285l-68 272h-18l-70 -272h156zM185 907h133l54 -145v-15h-108l-79 96v64z" />
    <glyph glyph-name="Aacute" unicode="&#xc1;" horiz-adv-x="628" 
d="M603 89v-89h-147l-41 163h-217l-42 -163h-131v89l172 611h233zM385 285l-68 272h-18l-70 -272h156zM307 907h135v-64l-80 -96h-108v15z" />
    <glyph glyph-name="Acircumflex" unicode="&#xc2;" horiz-adv-x="628" 
d="M603 89v-89h-147l-41 163h-217l-42 -163h-131v89l172 611h233zM385 285l-68 272h-18l-70 -272h156zM219 907h191l78 -145v-15h-105l-69 94l-69 -94h-105v15z" />
    <glyph glyph-name="Atilde" unicode="&#xc3;" horiz-adv-x="628" 
d="M603 89v-89h-147l-41 163h-217l-42 -163h-131v89l172 611h233zM385 285l-68 272h-18l-70 -272h156zM422 883v-20q-5 -12 -14 -17q-10 -7 -27 -7q-12 0 -25 5q-12 4 -27 15q-29 16 -44 22q-22 8 -52 8q-46 0 -75 -22q-30 -23 -39 -57v-59h88v21q3 10 13 17t27 7
q13 0 25 -5q10 -5 27 -15q29 -16 45 -22q21 -8 51 -8q45 0 76 23t38 55v59h-87z" />
    <glyph glyph-name="Adieresis" unicode="&#xc4;" horiz-adv-x="628" 
d="M603 89v-89h-147l-41 163h-217l-42 -163h-131v89l172 611h233zM385 285l-68 272h-18l-70 -272h156zM206 886q48 0 71 -29v-77q-20 -29 -71 -29q-45 0 -71 29v77q26 29 71 29zM422 886q46 0 72 -29v-77q-23 -29 -72 -29q-45 0 -71 29v77q26 29 71 29z" />
    <glyph glyph-name="Aring" unicode="&#xc5;" horiz-adv-x="628" 
d="M603 89v-89h-147l-41 163h-217l-42 -163h-131v89l172 611h28q-22 18 -33 38v89q15 29 48 47q31 18 74 18q42 0 75 -18q32 -18 47 -47v-89q-11 -22 -34 -38h28zM262 754q6 -9 19 -16q14 -8 32 -8q19 0 33 8q13 7 19 16v57q-4 8 -18 16q-13 7 -34 7q-19 0 -32 -7
q-15 -8 -19 -16v-57zM385 285l-68 272h-18l-70 -272h156z" />
    <glyph glyph-name="AE" unicode="&#xc6;" horiz-adv-x="848" 
d="M809 122v-122h-439v175h-164l-57 -175h-131v89l214 611h571v-122h-272v-159h254v-122h-254v-175h278zM370 294v284h-33l-92 -284h125z" />
    <glyph glyph-name="Ccedilla" unicode="&#xc7;" horiz-adv-x="617" 
d="M418 428v101q-11 28 -37 44q-29 17 -68 17q-38 0 -66 -17q-27 -16 -39 -44v-358q11 -27 39 -43q27 -18 66 -18q38 0 66 17q27 16 39 44v112h155v-156q-26 -51 -80 -92q-57 -42 -145 -49l-11 -39h10q36 0 59 -15q22 -13 31 -35v-87q-14 -28 -46 -44t-77 -16q-30 0 -58 5
q-25 6 -41 14l18 64q43 -12 71 -12q17 0 32 5q12 5 17 15v32q-5 8 -16 12t-30 4h-58l28 98q-89 7 -147 53q-56 43 -82 99v423q26 60 93 107q64 46 172 46q106 0 168 -43q65 -45 92 -98v-146h-155z" />
    <glyph glyph-name="Egrave" unicode="&#xc8;" horiz-adv-x="535" 
d="M490 700v-122h-272v-159h254v-122h-254v-175h279v-122h-439v700h432zM148 907h133l54 -145v-15h-108l-79 96v64z" />
    <glyph glyph-name="Eacute" unicode="&#xc9;" horiz-adv-x="535" 
d="M490 700v-122h-272v-159h254v-122h-254v-175h279v-122h-439v700h432zM270 907h135v-64l-80 -96h-108v15z" />
    <glyph glyph-name="Ecircumflex" unicode="&#xca;" horiz-adv-x="535" 
d="M490 700v-122h-272v-159h254v-122h-254v-175h279v-122h-439v700h432zM182 907h191l78 -145v-15h-105l-69 94l-69 -94h-105v15z" />
    <glyph glyph-name="Edieresis" unicode="&#xcb;" horiz-adv-x="535" 
d="M490 700v-122h-272v-159h254v-122h-254v-175h279v-122h-439v700h432zM169 886q48 0 71 -29v-77q-20 -29 -71 -29q-45 0 -71 29v77q26 29 71 29zM385 886q46 0 72 -29v-77q-23 -29 -72 -29q-45 0 -71 29v77q26 29 71 29z" />
    <glyph glyph-name="Igrave" unicode="&#xcc;" horiz-adv-x="275" 
d="M218 700v-700h-160v700h160zM9 907h133l54 -145v-15h-108l-79 96v64z" />
    <glyph glyph-name="Iacute" unicode="&#xcd;" horiz-adv-x="275" 
d="M218 700v-700h-160v700h160zM131 907h135v-64l-80 -96h-108v15z" />
    <glyph glyph-name="Icircumflex" unicode="&#xce;" horiz-adv-x="275" 
d="M218 700v-700h-160v700h160zM43 907h191l78 -145v-15h-105l-69 94l-69 -94h-105v15z" />
    <glyph glyph-name="Idieresis" unicode="&#xcf;" horiz-adv-x="275" 
d="M218 700v-700h-160v700h160zM30 886q48 0 71 -29v-77q-20 -29 -71 -29q-45 0 -71 29v77q26 29 71 29zM246 886q46 0 72 -29v-77q-23 -29 -72 -29q-45 0 -71 29v77q26 29 71 29z" />
    <glyph glyph-name="Eth" unicode="&#xd0;" horiz-adv-x="646" 
d="M514 660q58 -40 84 -98v-424q-25 -56 -84 -97t-149 -41h-290v296h-43v119h43v285h290q91 0 149 -40zM438 522q-11 26 -37 42q-28 15 -68 15h-98v-164h113v-119h-113v-175h98q40 0 68 16q26 14 37 41v344z" />
    <glyph glyph-name="Ntilde" unicode="&#xd1;" horiz-adv-x="668" 
d="M238 700l205 -432h19v432h148v-700h-180l-205 432h-19v-432h-148v700h180zM454 883v-20q-5 -12 -14 -17q-10 -7 -27 -7q-12 0 -25 5q-12 4 -27 15q-29 16 -44 22q-22 8 -52 8q-46 0 -75 -22q-30 -23 -39 -57v-59h88v21q3 10 13 17t27 7q13 0 25 -5q10 -5 27 -15
q29 -16 45 -22q21 -8 51 -8q45 0 76 23t38 55v59h-87z" />
    <glyph glyph-name="Ograve" unicode="&#xd2;" horiz-adv-x="626" 
d="M141 669q64 46 172 46q107 0 172 -46q67 -47 93 -107v-423q-26 -60 -92 -107q-67 -47 -173 -47q-105 0 -172 47t-93 107v423q26 60 93 107zM247 128q27 -18 66 -18t67 18q27 17 38 43v358q-11 27 -38 44q-28 17 -67 17q-38 0 -66 -17q-28 -16 -39 -44v-358q11 -27 39 -43
zM184 913h133l54 -145v-15h-108l-79 96v64z" />
    <glyph glyph-name="Oacute" unicode="&#xd3;" horiz-adv-x="626" 
d="M141 669q64 46 172 46q107 0 172 -46q67 -47 93 -107v-423q-26 -60 -92 -107q-67 -47 -173 -47q-105 0 -172 47t-93 107v423q26 60 93 107zM247 128q27 -18 66 -18t67 18q27 17 38 43v358q-11 27 -38 44q-28 17 -67 17q-38 0 -66 -17q-28 -16 -39 -44v-358q11 -27 39 -43
zM306 913h135v-64l-80 -96h-108v15z" />
    <glyph glyph-name="Ocircumflex" unicode="&#xd4;" horiz-adv-x="626" 
d="M141 669q64 46 172 46q107 0 172 -46q67 -47 93 -107v-423q-26 -60 -92 -107q-67 -47 -173 -47q-105 0 -172 47t-93 107v423q26 60 93 107zM247 128q27 -18 66 -18t67 18q27 17 38 43v358q-11 27 -38 44q-28 17 -67 17q-38 0 -66 -17q-28 -16 -39 -44v-358q11 -27 39 -43
zM218 913h191l78 -145v-15h-105l-69 94l-69 -94h-105v15z" />
    <glyph glyph-name="Otilde" unicode="&#xd5;" horiz-adv-x="626" 
d="M141 669q64 46 172 46q107 0 172 -46q67 -47 93 -107v-423q-26 -60 -92 -107q-67 -47 -173 -47q-105 0 -172 47t-93 107v423q26 60 93 107zM247 128q27 -18 66 -18t67 18q27 17 38 43v358q-11 27 -38 44q-28 17 -67 17q-38 0 -66 -17q-28 -16 -39 -44v-358q11 -27 39 -43
zM421 889v-20q-5 -12 -14 -17q-10 -7 -27 -7q-12 0 -25 5q-12 4 -27 15q-29 16 -44 22q-22 8 -52 8q-46 0 -75 -22q-30 -23 -39 -57v-59h88v21q3 10 13 17t27 7q13 0 25 -5q11 -5 27 -15q29 -16 45 -22q21 -8 51 -8q45 0 76 23t38 55v59h-87z" />
    <glyph glyph-name="Odieresis" unicode="&#xd6;" horiz-adv-x="626" 
d="M141 669q64 46 172 46q107 0 172 -46q67 -47 93 -107v-423q-26 -60 -92 -107q-67 -47 -173 -47q-105 0 -172 47t-93 107v423q26 60 93 107zM247 128q27 -18 66 -18t67 18q27 17 38 43v358q-11 27 -38 44q-28 17 -67 17q-38 0 -66 -17q-28 -16 -39 -44v-358q11 -27 39 -43
zM205 892q48 0 71 -29v-77q-20 -29 -71 -29q-45 0 -71 29v77q26 29 71 29zM421 892q46 0 72 -29v-77q-23 -29 -72 -29q-45 0 -71 29v77q26 29 71 29z" />
    <glyph glyph-name="multiply" unicode="&#xd7;" horiz-adv-x="587" 
d="M544 502l-167 -167l167 -169v-78h-89l-161 162l-162 -162h-90v78l167 169l-167 167v79h90l162 -162l161 162h89v-79z" />
    <glyph glyph-name="Oslash" unicode="&#xd8;" horiz-adv-x="626" 
d="M578 649l-28 -40q15 -19 28 -47v-423q-26 -60 -92 -107q-67 -47 -173 -47q-102 0 -174 48l-24 -33h-67v51l29 40q-14 17 -29 48v423q26 60 93 107q64 46 172 46q102 0 174 -48l24 33h67v-51zM208 275l197 276q-31 39 -92 39q-38 0 -66 -17q-28 -16 -39 -44v-254zM418 425
l-197 -276q14 -17 39 -28q24 -11 53 -11q39 0 67 18q27 17 38 43v254z" />
    <glyph glyph-name="Ugrave" unicode="&#xd9;" horiz-adv-x="639" 
d="M585 139q-26 -60 -93 -107t-172 -47t-172 47t-93 107v561h160v-527q11 -26 38 -43q27 -18 67 -18q38 0 66 17q27 16 39 44v527h160v-561zM191 907h133l54 -145v-15h-108l-79 96v64z" />
    <glyph glyph-name="Uacute" unicode="&#xda;" horiz-adv-x="639" 
d="M585 139q-26 -60 -93 -107t-172 -47t-172 47t-93 107v561h160v-527q11 -26 38 -43q27 -18 67 -18q38 0 66 17q27 16 39 44v527h160v-561zM313 907h135v-64l-80 -96h-108v15z" />
    <glyph glyph-name="Ucircumflex" unicode="&#xdb;" horiz-adv-x="639" 
d="M585 139q-26 -60 -93 -107t-172 -47t-172 47t-93 107v561h160v-527q11 -26 38 -43q27 -18 67 -18q38 0 66 17q27 16 39 44v527h160v-561zM225 907h191l78 -145v-15h-105l-69 94l-69 -94h-105v15z" />
    <glyph glyph-name="Udieresis" unicode="&#xdc;" horiz-adv-x="639" 
d="M585 139q-26 -60 -93 -107t-172 -47t-172 47t-93 107v561h160v-527q11 -26 38 -43q27 -18 67 -18q38 0 66 17q27 16 39 44v527h160v-561zM212 886q48 0 71 -29v-77q-20 -29 -71 -29q-45 0 -71 29v77q26 29 71 29zM428 886q46 0 72 -29v-77q-23 -29 -72 -29q-45 0 -71 29
v77q26 29 71 29z" />
    <glyph glyph-name="Yacute" unicode="&#xdd;" horiz-adv-x="581" 
d="M27 611v89h147l115 -239h18l115 239h132v-89l-187 -335v-276h-161v292zM283 907h135v-64l-80 -96h-108v15z" />
    <glyph glyph-name="Thorn" unicode="&#xde;" horiz-adv-x="592" 
d="M470 568q55 -31 88 -88v-230q-28 -51 -83 -85t-127 -34h-130v-131h-160v700h160v-101h130q67 0 122 -31zM404 428q-13 24 -38 38q-25 12 -55 12h-93v-226h93q31 0 56 13q23 12 37 36v127z" />
    <glyph glyph-name="germandbls" unicode="&#xdf;" horiz-adv-x="563" 
d="M133 676q58 39 149 39q88 0 146 -35q57 -35 79 -74v-177q-12 -19 -30 -34q-19 -17 -39 -27q64 -36 88 -93v-154q-29 -63 -85 -91q-59 -30 -164 -30v116q40 0 64 8q20 7 37 37v93q-10 24 -36 38q-26 12 -56 12v112q26 0 50 11q23 11 35 30v101q-12 20 -35 32
q-24 12 -54 12q-29 0 -52 -12q-23 -14 -33 -32v-558h-148v587q26 50 84 89z" />
    <glyph glyph-name="agrave" unicode="&#xe0;" horiz-adv-x="557" 
d="M428 516q60 -43 82 -95v-421h-143v39q-59 -54 -147 -54q-76 0 -119 28q-44 26 -61 56v162q16 32 61 63q44 29 119 29q84 0 142 -47v115q-10 21 -34 37q-23 14 -56 14q-31 0 -52 -12q-19 -11 -31 -26v-37h-137v86q26 36 77 70q52 34 143 34q95 0 156 -41zM325 96
q23 10 37 29v59q-14 19 -37 29q-27 11 -59 11q-31 0 -50 -10q-22 -11 -30 -22v-72q10 -14 30 -24q20 -11 50 -11q32 0 59 11zM144 765h138l54 -148v-15h-111l-81 99v64z" />
    <glyph glyph-name="aacute" unicode="&#xe1;" horiz-adv-x="557" 
d="M428 516q60 -43 82 -95v-421h-143v39q-59 -54 -147 -54q-76 0 -119 28q-44 26 -61 56v162q16 32 61 63q44 29 119 29q84 0 142 -47v115q-10 21 -34 37q-23 14 -56 14q-31 0 -52 -12q-19 -11 -31 -26v-37h-137v86q26 36 77 70q52 34 143 34q95 0 156 -41zM325 96
q23 10 37 29v59q-14 19 -37 29q-27 11 -59 11q-31 0 -50 -10q-22 -11 -30 -22v-72q10 -14 30 -24q20 -11 50 -11q32 0 59 11zM270 767h139v-63l-80 -100h-112v15z" />
    <glyph glyph-name="acircumflex" unicode="&#xe2;" horiz-adv-x="557" 
d="M428 516q60 -43 82 -95v-421h-143v39q-59 -54 -147 -54q-76 0 -119 28q-44 26 -61 56v162q16 32 61 63q44 29 119 29q84 0 142 -47v115q-10 21 -34 37q-23 14 -56 14q-31 0 -52 -12q-19 -11 -31 -26v-37h-137v86q26 36 77 70q52 34 143 34q95 0 156 -41zM325 96
q23 10 37 29v59q-14 19 -37 29q-27 11 -59 11q-31 0 -50 -10q-22 -11 -30 -22v-72q10 -14 30 -24q20 -11 50 -11q32 0 59 11zM185 764h191l78 -148v-15h-105l-69 97l-69 -97h-105v15z" />
    <glyph glyph-name="atilde" unicode="&#xe3;" horiz-adv-x="557" 
d="M428 516q60 -43 82 -95v-421h-143v39q-59 -54 -147 -54q-76 0 -119 28q-44 26 -61 56v162q16 32 61 63q44 29 119 29q84 0 142 -47v115q-10 21 -34 37q-23 14 -56 14q-31 0 -52 -12q-19 -11 -31 -26v-37h-137v86q26 36 77 70q52 34 143 34q95 0 156 -41zM325 96
q23 10 37 29v59q-14 19 -37 29q-27 11 -59 11q-31 0 -50 -10q-22 -11 -30 -22v-72q10 -14 30 -24q20 -11 50 -11q32 0 59 11zM388 737v-20q-8 -24 -41 -24q-12 0 -24 5q-15 5 -28 14q-29 16 -44 22q-22 8 -52 8q-46 0 -75 -22q-30 -22 -39 -56v-59h88v21q3 10 13 17
q10 6 27 6q15 0 24 -4q14 -6 28 -15q29 -16 45 -22q21 -8 51 -8q45 0 76 23t38 55v59h-87z" />
    <glyph glyph-name="adieresis" unicode="&#xe4;" horiz-adv-x="557" 
d="M428 516q60 -43 82 -95v-421h-143v39q-59 -54 -147 -54q-76 0 -119 28q-44 26 -61 56v162q16 32 61 63q44 29 119 29q84 0 142 -47v115q-10 21 -34 37q-23 14 -56 14q-31 0 -52 -12q-19 -11 -31 -26v-37h-137v86q26 36 77 70q52 34 143 34q95 0 156 -41zM325 96
q23 10 37 29v59q-14 19 -37 29q-27 11 -59 11q-31 0 -50 -10q-22 -11 -30 -22v-72q10 -14 30 -24q20 -11 50 -11q32 0 59 11zM171 742q45 0 71 -29v-82q-24 -30 -71 -30q-44 0 -71 30v82q26 29 71 29zM344 734q16 8 43 8q46 0 72 -29v-82q-24 -30 -72 -30q-28 0 -43 9
q-14 7 -28 21v82q13 13 28 21z" />
    <glyph glyph-name="aring" unicode="&#xe5;" horiz-adv-x="557" 
d="M428 516q60 -43 82 -95v-421h-143v39q-59 -54 -147 -54q-76 0 -119 28q-44 26 -61 56v162q16 32 61 63q44 29 119 29q84 0 142 -47v115q-10 21 -34 37q-23 14 -56 14q-31 0 -52 -12q-19 -11 -31 -26v-37h-137v86q26 36 77 70q52 34 143 34q95 0 156 -41zM325 96
q23 10 37 29v59q-14 19 -37 29q-27 11 -59 11q-31 0 -50 -10q-22 -11 -30 -22v-72q10 -14 30 -24q20 -11 50 -11q32 0 59 11zM207 789q31 18 73 18t75 -18q31 -18 48 -47v-90q-17 -29 -48 -47q-33 -18 -75 -18t-73 18q-32 17 -49 47v90q17 30 49 47zM247 652q13 -7 33 -7
q21 0 34 7q14 8 18 16v57q-4 9 -18 17q-13 7 -34 7q-20 0 -33 -7t-18 -17v-57q4 -8 18 -16z" />
    <glyph glyph-name="ae" unicode="&#xe6;" horiz-adv-x="867" 
d="M107 12q-48 28 -67 57v162q16 32 61 63q44 29 119 29q82 0 141 -45v113q-10 21 -34 37q-23 14 -55 14q-31 0 -51 -11q-22 -12 -32 -27v-37h-137v86q26 36 77 70q52 34 143 34q96 0 163 -51q68 51 164 51q92 0 150 -38q55 -37 78 -78v-207h-317v-85q10 -23 33 -36
q23 -15 56 -15t57 15t33 36v35h138v-83q-23 -41 -78 -78q-56 -38 -150 -38q-115 0 -189 69q-64 -69 -177 -69q-79 0 -126 27zM689 321v72q-9 22 -33 37q-25 14 -57 14q-33 0 -56 -14q-23 -15 -33 -37v-72h179zM324 96q22 10 37 28v60q-14 19 -37 29q-25 11 -57 11t-51 -10
q-22 -11 -30 -22v-72q10 -14 30 -24q20 -11 51 -11q30 0 57 11z" />
    <glyph glyph-name="ccedilla" unicode="&#xe7;" horiz-adv-x="545" 
d="M371 330v61q-9 21 -33 36q-25 15 -58 15q-32 0 -55 -15t-34 -36v-240q11 -22 33 -35q22 -15 56 -15q32 0 58 15q24 13 33 35v62h138v-111q-19 -37 -69 -73q-49 -36 -128 -43l-11 -39h10q37 0 59 -15q22 -13 31 -35v-87q-14 -28 -46 -44t-77 -16q-30 0 -58 5q-25 6 -41 14
l18 64q43 -12 71 -12q17 0 32 5q12 5 17 15v32q-5 8 -16 12t-30 4h-58l28 98q-78 9 -128 48q-51 40 -70 86v300q23 54 82 95q61 41 155 41t150 -37t79 -80v-110h-138z" />
    <glyph glyph-name="egrave" unicode="&#xe8;" horiz-adv-x="549" 
d="M191 234v-85q11 -21 34 -36t55 -15t58 15q24 15 33 36v36h138v-83q-23 -41 -79 -79q-58 -38 -150 -38q-95 0 -155 42q-59 40 -82 94v300q23 54 82 95q61 41 155 41t150 -37t79 -80v-206h-318zM224 430q-23 -15 -33 -37v-72h180v72q-9 22 -33 37q-25 14 -58 14t-56 -14z
M149 768h138l54 -148v-15h-111l-81 99v64z" />
    <glyph glyph-name="eacute" unicode="&#xe9;" horiz-adv-x="549" 
d="M191 234v-85q11 -21 34 -36t55 -15t58 15q24 15 33 36v36h138v-83q-23 -41 -79 -79q-58 -38 -150 -38q-95 0 -155 42q-59 40 -82 94v300q23 54 82 95q61 41 155 41t150 -37t79 -80v-206h-318zM224 430q-23 -15 -33 -37v-72h180v72q-9 22 -33 37q-25 14 -58 14t-56 -14z
M275 770h139v-63l-80 -100h-112v15z" />
    <glyph glyph-name="ecircumflex" unicode="&#xea;" horiz-adv-x="549" 
d="M191 234v-85q11 -21 34 -36t55 -15t58 15q24 15 33 36v36h138v-83q-23 -41 -79 -79q-58 -38 -150 -38q-95 0 -155 42q-59 40 -82 94v300q23 54 82 95q61 41 155 41t150 -37t79 -80v-206h-318zM224 430q-23 -15 -33 -37v-72h180v72q-9 22 -33 37q-25 14 -58 14t-56 -14z
M190 767h191l78 -148v-15h-105l-69 97l-69 -97h-105v15z" />
    <glyph glyph-name="edieresis" unicode="&#xeb;" horiz-adv-x="549" 
d="M191 234v-85q11 -21 34 -36t55 -15t58 15q24 15 33 36v36h138v-83q-23 -41 -79 -79q-58 -38 -150 -38q-95 0 -155 42q-59 40 -82 94v300q23 54 82 95q61 41 155 41t150 -37t79 -80v-206h-318zM224 430q-23 -15 -33 -37v-72h180v72q-9 22 -33 37q-25 14 -58 14t-56 -14z
M176 745q45 0 71 -29v-82q-24 -30 -71 -30q-44 0 -71 30v82q26 29 71 29zM349 737q16 8 43 8q46 0 72 -29v-82q-24 -30 -72 -30q-28 0 -43 9q-14 7 -28 21v82q13 13 28 21z" />
    <glyph glyph-name="igrave" unicode="&#xec;" horiz-adv-x="249" 
d="M198 542v-542h-148v542h148zM-12 765h138l54 -148v-15h-111l-81 99v64z" />
    <glyph glyph-name="iacute" unicode="&#xed;" horiz-adv-x="249" 
d="M198 542v-542h-148v542h148zM114 767h139v-63l-80 -100h-112v15z" />
    <glyph glyph-name="icircumflex" unicode="&#xee;" horiz-adv-x="249" 
d="M198 542v-542h-148v542h148zM29 764h191l78 -148v-15h-105l-69 97l-69 -97h-105v15z" />
    <glyph glyph-name="idieresis" unicode="&#xef;" horiz-adv-x="249" 
d="M198 542v-542h-148v542h148zM15 742q45 0 71 -29v-82q-24 -30 -71 -30q-44 0 -71 30v82q26 29 71 29zM188 734q16 8 43 8q46 0 72 -29v-82q-24 -30 -72 -30q-28 0 -43 9q-14 7 -28 21v82q13 13 28 21z" />
    <glyph glyph-name="eth" unicode="&#xf0;" horiz-adv-x="561" 
d="M519 601l-44 -14q30 -34 44 -66v-399q-23 -54 -83 -95q-60 -42 -155 -42t-155 42q-59 40 -84 94v219q10 32 36 63q26 30 67 50q42 20 94 20q45 0 74 -10t58 -30v56q-11 26 -37 51l-154 -50v79l80 26q-60 34 -127 57l75 82q113 -31 200 -91l111 36v-78zM371 322
q-14 16 -36 26q-23 10 -54 10q-32 0 -57 -14q-23 -13 -34 -35v-158q11 -22 34 -35q22 -15 56 -15q32 0 58 15q24 13 33 35v171z" />
    <glyph glyph-name="ntilde" unicode="&#xf1;" horiz-adv-x="565" 
d="M454 517q46 -37 63 -85v-432h-148v397q-9 14 -30 28q-22 13 -54 13q-29 0 -51 -9q-23 -9 -37 -23v-406h-148v542h138v-48q60 60 147 60q74 0 120 -37zM390 737v-20q-8 -24 -41 -24q-12 0 -24 5q-15 5 -28 14q-29 16 -44 22q-22 8 -52 8q-46 0 -75 -22q-30 -22 -39 -56
v-59h88v21q3 10 13 17q10 6 27 6q15 0 24 -4q14 -6 28 -15q29 -16 45 -22q21 -8 51 -8q45 0 76 23t38 55v59h-87z" />
    <glyph glyph-name="ograve" unicode="&#xf2;" horiz-adv-x="561" 
d="M126 516q61 41 155 41q95 0 156 -41q60 -43 82 -95v-300q-23 -53 -82 -94q-60 -42 -156 -42q-95 0 -155 42q-60 39 -83 94v300q23 54 83 95zM224 116q24 -15 57 -15t57 15q24 13 33 35v240q-9 21 -33 36t-57 15t-57 -15t-33 -36v-240q9 -22 33 -35zM145 765h138l54 -148
v-15h-111l-81 99v64z" />
    <glyph glyph-name="oacute" unicode="&#xf3;" horiz-adv-x="561" 
d="M126 516q61 41 155 41q95 0 156 -41q60 -43 82 -95v-300q-23 -53 -82 -94q-60 -42 -156 -42q-95 0 -155 42q-60 39 -83 94v300q23 54 83 95zM224 116q24 -15 57 -15t57 15q24 13 33 35v240q-9 21 -33 36t-57 15t-57 -15t-33 -36v-240q9 -22 33 -35zM271 767h139v-63
l-80 -100h-112v15z" />
    <glyph glyph-name="ocircumflex" unicode="&#xf4;" horiz-adv-x="561" 
d="M126 516q61 41 155 41q95 0 156 -41q60 -43 82 -95v-300q-23 -53 -82 -94q-60 -42 -156 -42q-95 0 -155 42q-60 39 -83 94v300q23 54 83 95zM224 116q24 -15 57 -15t57 15q24 13 33 35v240q-9 21 -33 36t-57 15t-57 -15t-33 -36v-240q9 -22 33 -35zM186 764h191l78 -148
v-15h-105l-69 97l-69 -97h-105v15z" />
    <glyph glyph-name="otilde" unicode="&#xf5;" horiz-adv-x="561" 
d="M126 516q61 41 155 41q95 0 156 -41q60 -43 82 -95v-300q-23 -53 -82 -94q-60 -42 -156 -42q-95 0 -155 42q-60 39 -83 94v300q23 54 83 95zM224 116q24 -15 57 -15t57 15q24 13 33 35v240q-9 21 -33 36t-57 15t-57 -15t-33 -36v-240q9 -22 33 -35zM389 737v-20
q-7 -24 -41 -24q-12 0 -24 5q-15 5 -28 14q-29 16 -44 22q-22 8 -52 8q-46 0 -75 -22q-30 -22 -39 -56v-59h88v21q3 10 13 17q11 6 27 6q15 0 24 -4q14 -6 28 -15q29 -16 45 -22q21 -8 51 -8q45 0 76 23t38 55v59h-87z" />
    <glyph glyph-name="odieresis" unicode="&#xf6;" horiz-adv-x="561" 
d="M126 516q61 41 155 41q95 0 156 -41q60 -43 82 -95v-300q-23 -53 -82 -94q-60 -42 -156 -42q-95 0 -155 42q-60 39 -83 94v300q23 54 83 95zM224 116q24 -15 57 -15t57 15q24 13 33 35v240q-9 21 -33 36t-57 15t-57 -15t-33 -36v-240q9 -22 33 -35zM172 742q45 0 71 -29
v-82q-24 -30 -71 -30q-44 0 -71 30v82q26 29 71 29zM345 734q16 8 43 8q46 0 72 -29v-82q-24 -30 -72 -30q-28 0 -43 9q-14 7 -28 21v82q13 13 28 21z" />
    <glyph glyph-name="divide" unicode="&#xf7;" horiz-adv-x="587" 
d="M552 393v-117h-517v117h517zM242 205q20 12 50 12q32 0 53 -12q20 -14 27 -29v-77q-7 -16 -28 -28q-20 -13 -52 -13q-31 0 -50 13q-21 13 -28 28v77q7 16 28 29zM242 600q19 12 50 12q32 0 53 -12q20 -14 27 -29v-77q-7 -16 -28 -28q-20 -13 -52 -13q-31 0 -50 13
q-21 13 -28 28v77q7 16 28 29z" />
    <glyph glyph-name="oslash" unicode="&#xf8;" horiz-adv-x="561" 
d="M519 495l-26 -31q13 -16 26 -43v-300q-23 -53 -82 -94q-60 -42 -156 -42q-88 0 -153 40l-21 -25h-64v49l25 30q-16 19 -25 42v300q23 54 83 95q61 41 155 41q88 0 153 -40l21 25h64v-47zM191 226l160 192q-27 24 -70 24q-33 0 -57 -15t-33 -36v-165zM371 317l-160 -192
q27 -24 70 -24q33 0 57 15q24 13 33 35v166z" />
    <glyph glyph-name="ugrave" unicode="&#xf9;" horiz-adv-x="559" 
d="M510 542v-542h-138v47q-56 -59 -144 -59q-74 0 -118 38q-45 38 -63 84v432h148v-397q8 -15 29 -28q19 -13 52 -13q56 0 86 34v404h148zM144 765h138l54 -148v-15h-111l-81 99v64z" />
    <glyph glyph-name="uacute" unicode="&#xfa;" horiz-adv-x="559" 
d="M510 542v-542h-138v47q-56 -59 -144 -59q-74 0 -118 38q-45 38 -63 84v432h148v-397q8 -15 29 -28q19 -13 52 -13q56 0 86 34v404h148zM270 767h139v-63l-80 -100h-112v15z" />
    <glyph glyph-name="ucircumflex" unicode="&#xfb;" horiz-adv-x="559" 
d="M510 542v-542h-138v47q-56 -59 -144 -59q-74 0 -118 38q-45 38 -63 84v432h148v-397q8 -15 29 -28q19 -13 52 -13q56 0 86 34v404h148zM185 764h191l78 -148v-15h-105l-69 97l-69 -97h-105v15z" />
    <glyph glyph-name="udieresis" unicode="&#xfc;" horiz-adv-x="559" 
d="M510 542v-542h-138v47q-56 -59 -144 -59q-74 0 -118 38q-45 38 -63 84v432h148v-397q8 -15 29 -28q19 -13 52 -13q56 0 86 34v404h148zM171 742q45 0 71 -29v-82q-24 -30 -71 -30q-44 0 -71 30v82q26 29 71 29zM344 734q16 8 43 8q46 0 72 -29v-82q-24 -30 -72 -30
q-28 0 -43 9q-14 7 -28 21v82q13 13 28 21z" />
    <glyph glyph-name="yacute" unicode="&#xfd;" horiz-adv-x="533" 
d="M502 542v-80l-184 -554q-29 -34 -78 -56q-48 -22 -116 -22q-26 0 -48 3q-26 3 -36 7v102l51 -2q34 0 58 10t38 24l10 34l-168 452v82h141l89 -334h17l96 334h130zM253 767h139v-63l-80 -100h-112v15z" />
    <glyph glyph-name="thorn" unicode="&#xfe;" horiz-adv-x="560" 
d="M454 517q44 -36 64 -85v-321q-20 -49 -64 -85q-47 -38 -120 -38q-82 0 -137 51v-205h-148v866h148v-197q55 51 137 51q74 0 120 -37zM369 397q-9 14 -30 28q-22 13 -54 13q-29 0 -51 -9q-24 -10 -37 -24v-268q13 -14 37 -24q23 -9 52 -9q33 0 53 13q21 14 30 28v252z" />
    <glyph glyph-name="ydieresis" unicode="&#xff;" horiz-adv-x="533" 
d="M502 542v-80l-184 -554q-29 -34 -78 -56q-48 -22 -116 -22q-26 0 -48 3q-26 3 -36 7v102l51 -2q34 0 58 10t38 24l10 34l-168 452v82h141l89 -334h17l96 334h130zM154 742q45 0 71 -29v-82q-24 -30 -71 -30q-44 0 -71 30v82q26 29 71 29zM327 734q16 8 43 8q46 0 72 -29
v-82q-24 -30 -72 -30q-28 0 -43 9q-14 7 -28 21v82q13 13 28 21z" />
    <glyph glyph-name="Amacron" unicode="&#x100;" horiz-adv-x="628" 
d="M603 89v-89h-147l-41 163h-217l-42 -163h-131v89l172 611h233zM385 285l-68 272h-18l-70 -272h156zM486 859v-99h-345v99h345z" />
    <glyph glyph-name="amacron" unicode="&#x101;" horiz-adv-x="557" 
d="M428 516q60 -43 82 -95v-421h-143v39q-59 -54 -147 -54q-76 0 -119 28q-44 26 -61 56v162q16 32 61 63q44 29 119 29q84 0 142 -47v115q-10 21 -34 37q-23 14 -56 14q-31 0 -52 -12q-19 -11 -31 -26v-37h-137v86q26 36 77 70q52 34 143 34q95 0 156 -41zM325 96
q23 10 37 29v59q-14 19 -37 29q-27 11 -59 11q-31 0 -50 -10q-22 -11 -30 -22v-72q10 -14 30 -24q20 -11 50 -11q32 0 59 11zM452 725v-99h-345v99h345z" />
    <glyph glyph-name="Abreve" unicode="&#x102;" horiz-adv-x="628" 
d="M603 89v-89h-147l-41 163h-217l-42 -163h-131v89l172 611h233zM385 285l-68 272h-18l-70 -272h156zM249 882v-28q4 -11 22 -22q17 -11 43 -11q27 0 44 11t21 22v28h108v-51q-19 -40 -63 -64q-43 -25 -110 -25q-66 0 -109 25q-45 25 -64 64v51h108z" />
    <glyph glyph-name="abreve" unicode="&#x103;" horiz-adv-x="557" 
d="M428 516q60 -43 82 -95v-421h-143v39q-59 -54 -147 -54q-76 0 -119 28q-44 26 -61 56v162q16 32 61 63q44 29 119 29q84 0 142 -47v115q-10 21 -34 37q-23 14 -56 14q-31 0 -52 -12q-19 -11 -31 -26v-37h-137v86q26 36 77 70q52 34 143 34q95 0 156 -41zM325 96
q23 10 37 29v59q-14 19 -37 29q-27 11 -59 11q-31 0 -50 -10q-22 -11 -30 -22v-72q10 -14 30 -24q20 -11 50 -11q32 0 59 11zM215 738v-28q5 -11 22 -22t43 -11q27 0 44 11t21 22v28h108v-50q-20 -41 -63 -65t-110 -24q-66 0 -109 25q-45 25 -64 64v50h108z" />
    <glyph glyph-name="Aogonek" unicode="&#x104;" horiz-adv-x="628" 
d="M536 -68q-24 -30 -31 -46v-26q4 -6 18 -11q12 -4 30 -4q29 0 50 7v-76q-31 -14 -79 -14q-45 0 -79 12q-34 13 -47 40v78q11 20 38 50q30 34 60 58h-40l-41 163h-217l-42 -163h-131v89l172 611h233l173 -611v-89q-46 -41 -67 -68zM385 285l-68 272h-18l-70 -272h156z" />
    <glyph glyph-name="aogonek" unicode="&#x105;" horiz-adv-x="557" 
d="M443 -68q-24 -30 -31 -46v-26q4 -6 18 -11q12 -4 30 -4q29 0 50 7v-76q-31 -14 -79 -14q-45 0 -79 12q-34 13 -47 40v78q11 20 38 50q30 34 60 58h-36v39q-59 -54 -147 -54q-76 0 -119 28q-44 26 -61 56v162q16 32 61 63q44 29 119 29q84 0 142 -47v115q-10 21 -34 37
q-23 14 -56 14q-31 0 -52 -12q-19 -11 -31 -26v-37h-137v86q26 36 77 70q52 34 143 34q95 0 156 -41q60 -43 82 -95v-421q-46 -41 -67 -68zM325 96q23 10 37 29v59q-14 19 -37 29q-27 11 -59 11q-31 0 -50 -10q-22 -11 -30 -22v-72q10 -14 30 -24q20 -11 50 -11q32 0 59 11z
" />
    <glyph glyph-name="Cacute" unicode="&#x106;" horiz-adv-x="617" 
d="M573 127q-28 -55 -92 -99q-62 -43 -168 -43q-105 0 -172 47t-93 107v423q26 60 93 107q64 46 172 46q106 0 168 -43q65 -45 92 -98v-146h-155v101q-11 28 -37 44q-29 17 -68 17q-38 0 -66 -17q-27 -16 -39 -44v-358q11 -27 39 -43q27 -18 66 -18q38 0 66 17q27 16 39 44
v112h155v-156zM312 914h135v-64l-80 -96h-108v15z" />
    <glyph glyph-name="cacute" unicode="&#x107;" horiz-adv-x="545" 
d="M125 516q61 41 155 41t150 -37t79 -80v-110h-138v61q-9 21 -33 36q-25 15 -58 15q-32 0 -55 -15t-34 -36v-240q11 -22 33 -35q22 -15 56 -15q32 0 58 15q24 13 33 35v62h138v-111q-24 -43 -79 -79q-58 -38 -150 -38q-95 0 -155 42q-59 40 -82 94v300q23 54 82 95z
M268 767h139v-63l-80 -100h-112v15z" />
    <glyph glyph-name="Ccircumflex" unicode="&#x108;" horiz-adv-x="617" 
d="M573 127q-28 -55 -92 -99q-62 -43 -168 -43q-105 0 -172 47t-93 107v423q26 60 93 107q64 46 172 46q106 0 168 -43q65 -45 92 -98v-146h-155v101q-11 28 -37 44q-29 17 -68 17q-38 0 -66 -17q-27 -16 -39 -44v-358q11 -27 39 -43q27 -18 66 -18q38 0 66 17q27 16 39 44
v112h155v-156zM224 914h191l78 -145v-15h-105l-69 94l-69 -94h-105v15z" />
    <glyph glyph-name="ccircumflex" unicode="&#x109;" horiz-adv-x="545" 
d="M125 516q61 41 155 41t150 -37t79 -80v-110h-138v61q-9 21 -33 36q-25 15 -58 15q-32 0 -55 -15t-34 -36v-240q11 -22 33 -35q22 -15 56 -15q32 0 58 15q24 13 33 35v62h138v-111q-24 -43 -79 -79q-58 -38 -150 -38q-95 0 -155 42q-59 40 -82 94v300q23 54 82 95z
M183 764h191l78 -148v-15h-105l-69 97l-69 -97h-105v15z" />
    <glyph glyph-name="Cdotaccent" unicode="&#x10a;" horiz-adv-x="617" 
d="M573 127q-28 -55 -92 -99q-62 -43 -168 -43q-105 0 -172 47t-93 107v423q26 60 93 107q64 46 172 46q106 0 168 -43q65 -45 92 -98v-146h-155v101q-11 28 -37 44q-29 17 -68 17q-38 0 -66 -17q-27 -16 -39 -44v-358q11 -27 39 -43q27 -18 66 -18q38 0 66 17q27 16 39 44
v112h155v-156zM269 892q19 12 50 12q33 0 52 -12t27 -29v-60q-8 -17 -27 -29t-52 -12q-31 0 -50 13q-22 13 -29 28v60q7 15 29 29z" />
    <glyph glyph-name="cdotaccent" unicode="&#x10b;" horiz-adv-x="545" 
d="M125 516q61 41 155 41t150 -37t79 -80v-110h-138v61q-9 21 -33 36q-25 15 -58 15q-32 0 -55 -15t-34 -36v-240q11 -22 33 -35q22 -15 56 -15q32 0 58 15q24 13 33 35v62h138v-111q-24 -43 -79 -79q-58 -38 -150 -38q-95 0 -155 42q-59 40 -82 94v300q23 54 82 95z
M228 734q20 12 50 12q32 0 52 -12q19 -12 27 -29v-60q-7 -16 -27 -28t-52 -12q-30 0 -50 12q-22 13 -29 28v60q7 15 29 29z" />
    <glyph glyph-name="Ccaron" unicode="&#x10c;" horiz-adv-x="617" 
d="M573 127q-28 -55 -92 -99q-62 -43 -168 -43q-105 0 -172 47t-93 107v423q26 60 93 107q64 46 172 46q106 0 168 -43q65 -45 92 -98v-146h-155v101q-11 28 -37 44q-29 17 -68 17q-38 0 -66 -17q-27 -16 -39 -44v-358q11 -27 39 -43q27 -18 66 -18q38 0 66 17q27 16 39 44
v112h155v-156zM145 914h105l69 -95l69 95h105v-16l-78 -144h-191l-79 144v16z" />
    <glyph glyph-name="ccaron" unicode="&#x10d;" horiz-adv-x="545" 
d="M125 516q61 41 155 41t150 -37t79 -80v-110h-138v61q-9 21 -33 36q-25 15 -58 15q-32 0 -55 -15t-34 -36v-240q11 -22 33 -35q22 -15 56 -15q32 0 58 15q24 13 33 35v62h138v-111q-24 -43 -79 -79q-58 -38 -150 -38q-95 0 -155 42q-59 40 -82 94v300q23 54 82 95z
M104 764h105l69 -98l69 98h105v-16l-78 -147h-191l-79 147v16z" />
    <glyph glyph-name="Dcaron" unicode="&#x10e;" horiz-adv-x="629" 
d="M497 41q-59 -41 -149 -41h-290v700h290q91 0 149 -40t84 -98v-424q-25 -56 -84 -97zM384 564q-28 15 -68 15h-98v-458h98q40 0 68 16q26 14 37 41v344q-11 26 -37 42zM141 907h105l69 -95l69 95h105v-16l-78 -144h-191l-79 144v16z" />
    <glyph glyph-name="dcaron" unicode="&#x10f;" horiz-adv-x="711" 
d="M510 700v-700h-142v44q-56 -56 -143 -56q-73 0 -119 38q-44 36 -64 85v321q20 49 64 85q44 37 119 37q81 0 137 -50v196h148zM326 114q22 9 36 24v267q-14 15 -36 24q-23 9 -52 9q-32 0 -54 -13q-21 -13 -29 -28v-252q9 -14 30 -28q20 -13 53 -13q31 0 52 10zM590 700
h116v-76l-48 -135h-89v15z" />
    <glyph glyph-name="Dcroat" unicode="&#x110;" horiz-adv-x="646" 
d="M514 660q58 -40 84 -98v-424q-25 -56 -84 -97t-149 -41h-290v296h-43v119h43v285h290q91 0 149 -40zM438 522q-11 26 -37 42q-28 15 -68 15h-98v-164h113v-119h-113v-175h98q40 0 68 16q26 14 37 41v344z" />
    <glyph glyph-name="dcroat" unicode="&#x111;" horiz-adv-x="591" 
d="M362 653v47h149v-47h45v-78h-45v-575h-143v43q-55 -55 -143 -55q-73 0 -119 38q-44 36 -64 85v297q20 49 64 85q46 38 119 38q82 0 137 -49v93h-149v78h149zM327 112q21 8 35 24v246q-13 14 -36 25q-23 9 -52 9q-33 0 -53 -13q-23 -13 -30 -27v-233q7 -15 30 -27
q20 -13 53 -13q30 0 53 9z" />
    <glyph glyph-name="Emacron" unicode="&#x112;" horiz-adv-x="535" 
d="M490 700v-122h-272v-159h254v-122h-254v-175h279v-122h-439v700h432zM449 859v-99h-345v99h345z" />
    <glyph glyph-name="emacron" unicode="&#x113;" horiz-adv-x="549" 
d="M191 234v-85q11 -21 34 -36t55 -15t58 15q24 15 33 36v36h138v-83q-23 -41 -79 -79q-58 -38 -150 -38q-95 0 -155 42q-59 40 -82 94v300q23 54 82 95q61 41 155 41t150 -37t79 -80v-206h-318zM224 430q-23 -15 -33 -37v-72h180v72q-9 22 -33 37q-25 14 -58 14t-56 -14z
M457 728v-99h-345v99h345z" />
    <glyph glyph-name="Ebreve" unicode="&#x114;" horiz-adv-x="535" 
d="M490 700v-122h-272v-159h254v-122h-254v-175h279v-122h-439v700h432zM212 882v-28q4 -11 22 -22q17 -11 43 -11q27 0 44 11t21 22v28h108v-51q-19 -40 -63 -64q-43 -25 -110 -25q-66 0 -109 25q-45 25 -64 64v51h108z" />
    <glyph glyph-name="ebreve" unicode="&#x115;" horiz-adv-x="549" 
d="M191 234v-85q11 -21 34 -36t55 -15t58 15q24 15 33 36v36h138v-83q-23 -41 -79 -79q-58 -38 -150 -38q-95 0 -155 42q-59 40 -82 94v300q23 54 82 95q61 41 155 41t150 -37t79 -80v-206h-318zM224 430q-23 -15 -33 -37v-72h180v72q-9 22 -33 37q-25 14 -58 14t-56 -14z
M220 741v-28q5 -11 22 -22t43 -11q27 0 44 11t21 22v28h108v-50q-20 -41 -63 -65t-110 -24q-66 0 -109 25q-45 25 -64 64v50h108z" />
    <glyph glyph-name="Edotaccent" unicode="&#x116;" horiz-adv-x="535" 
d="M490 700v-122h-272v-159h254v-122h-254v-175h279v-122h-439v700h432zM227 885q20 12 50 12q33 0 52 -12t27 -29v-60q-8 -17 -27 -29q-20 -12 -52 -12q-31 0 -50 13q-22 13 -29 28v60q7 15 29 29z" />
    <glyph glyph-name="edotaccent" unicode="&#x117;" horiz-adv-x="549" 
d="M191 234v-85q11 -21 34 -36t55 -15t58 15q24 15 33 36v36h138v-83q-23 -41 -79 -79q-58 -38 -150 -38q-95 0 -155 42q-59 40 -82 94v300q23 54 82 95q61 41 155 41t150 -37t79 -80v-206h-318zM224 430q-23 -15 -33 -37v-72h180v72q-9 22 -33 37q-25 14 -58 14t-56 -14z
M235 737q20 12 50 12q33 0 52 -12t27 -29v-60q-7 -16 -27 -28t-52 -12q-31 0 -50 12q-22 13 -29 28v60q7 15 29 29z" />
    <glyph glyph-name="Eogonek" unicode="&#x118;" horiz-adv-x="535" 
d="M430 -68q-24 -30 -31 -46v-26q4 -6 18 -11q12 -4 30 -4q29 0 50 7v-76q-31 -14 -79 -14q-44 0 -79 12q-34 13 -47 40v78q11 20 38 50q30 34 60 58h-332v700h432v-122h-272v-159h254v-122h-254v-175h279v-122q-46 -41 -67 -68z" />
    <glyph glyph-name="eogonek" unicode="&#x119;" horiz-adv-x="548" 
d="M348 -7q-34 -8 -67 -8q-97 0 -155 42q-60 41 -83 94v300q23 53 83 95q59 41 155 41q91 0 149 -38q56 -37 78 -78v-207h-317v-85q9 -21 33 -36t57 -15q32 0 56 15q23 15 34 36v36h137v-85q-80 -143 -98 -203v-26q4 -7 18 -12q12 -4 30 -4q20 0 50 8v-76q-30 -15 -79 -15
q-46 0 -79 13q-34 13 -47 40v77q6 20 45 91zM371 321v72q-10 22 -33 37q-25 14 -57 14t-57 -14q-24 -15 -33 -37v-72h180z" />
    <glyph glyph-name="Ecaron" unicode="&#x11a;" horiz-adv-x="535" 
d="M490 700v-122h-272v-159h254v-122h-254v-175h279v-122h-439v700h432zM103 907h105l69 -95l69 95h105v-16l-78 -144h-191l-79 144v16z" />
    <glyph glyph-name="ecaron" unicode="&#x11b;" horiz-adv-x="549" 
d="M191 234v-85q11 -21 34 -36t55 -15t58 15q24 15 33 36v36h138v-83q-23 -41 -79 -79q-58 -38 -150 -38q-95 0 -155 42q-59 40 -82 94v300q23 54 82 95q61 41 155 41t150 -37t79 -80v-206h-318zM224 430q-23 -15 -33 -37v-72h180v72q-9 22 -33 37q-25 14 -58 14t-56 -14z
M111 767h105l69 -98l69 98h105v-16l-78 -147h-191l-79 147v16z" />
    <glyph glyph-name="Gcircumflex" unicode="&#x11c;" horiz-adv-x="616" 
d="M418 459v70q-11 28 -37 44q-29 17 -68 17q-38 0 -66 -17q-27 -16 -39 -44v-358q11 -27 39 -43q29 -18 69 -18t68 17q27 17 39 40v105h-102v117h252v-262q-28 -55 -92 -99q-62 -43 -168 -43q-105 0 -172 47t-93 107v423q26 60 93 107q64 46 172 46q106 0 168 -43
q65 -45 92 -98v-115h-155zM220 912h191l78 -145v-15h-105l-69 94l-69 -94h-105v15z" />
    <glyph glyph-name="gcircumflex" unicode="&#x11d;" horiz-adv-x="559" 
d="M511 542v-585q-24 -53 -83 -92q-58 -39 -155 -39q-93 0 -147 36q-56 36 -78 78v82h143v-46q9 -14 30 -27q21 -12 52 -12q35 0 57 13q23 14 33 34v123q-56 -52 -138 -52q-73 0 -119 38q-46 37 -63 84v255q17 48 63 85q44 37 119 37q84 0 143 -56v44h143zM363 205v199
q-13 14 -36 25q-23 9 -52 9q-32 0 -54 -13q-23 -14 -30 -28v-185q9 -15 31 -28q20 -13 53 -13q58 0 88 34zM196 764h191l78 -148v-15h-105l-69 97l-69 -97h-105v15z" />
    <glyph glyph-name="Gbreve" unicode="&#x11e;" horiz-adv-x="616" 
d="M418 459v70q-11 28 -37 44q-29 17 -68 17q-38 0 -66 -17q-27 -16 -39 -44v-358q11 -27 39 -43q29 -18 69 -18t68 17q27 17 39 40v105h-102v117h252v-262q-28 -55 -92 -99q-62 -43 -168 -43q-105 0 -172 47t-93 107v423q26 60 93 107q64 46 172 46q106 0 168 -43
q65 -45 92 -98v-115h-155zM250 887v-28q4 -11 22 -22q17 -11 43 -11q27 0 44 11t21 22v28h108v-51q-19 -40 -63 -64q-43 -25 -110 -25q-66 0 -109 25q-45 25 -64 64v51h108z" />
    <glyph glyph-name="gbreve" unicode="&#x11f;" horiz-adv-x="559" 
d="M511 542v-585q-24 -53 -83 -92q-58 -39 -155 -39q-93 0 -147 36q-56 36 -78 78v82h143v-46q9 -14 30 -27q21 -12 52 -12q35 0 57 13q23 14 33 34v123q-56 -52 -138 -52q-73 0 -119 38q-46 37 -63 84v255q17 48 63 85q44 37 119 37q84 0 143 -56v44h143zM363 205v199
q-13 14 -36 25q-23 9 -52 9q-32 0 -54 -13q-23 -14 -30 -28v-185q9 -15 31 -28q20 -13 53 -13q58 0 88 34zM226 738v-28q5 -11 22 -22t43 -11q27 0 44 11t21 22v28h108v-50q-20 -41 -63 -65t-110 -24q-66 0 -109 25q-45 25 -64 64v50h108z" />
    <glyph glyph-name="Gdotaccent" unicode="&#x120;" horiz-adv-x="616" 
d="M418 459v70q-11 28 -37 44q-29 17 -68 17q-38 0 -66 -17q-27 -16 -39 -44v-358q11 -27 39 -43q29 -18 69 -18t68 17q27 17 39 40v105h-102v117h252v-262q-28 -55 -92 -99q-62 -43 -168 -43q-105 0 -172 47t-93 107v423q26 60 93 107q64 46 172 46q106 0 168 -43
q65 -45 92 -98v-115h-155zM265 890q19 12 50 12q33 0 52 -12t27 -29v-60q-8 -17 -27 -29q-20 -12 -52 -12q-31 0 -50 13q-22 13 -29 28v60q7 15 29 29z" />
    <glyph glyph-name="gdotaccent" unicode="&#x121;" horiz-adv-x="559" 
d="M511 542v-585q-24 -53 -83 -92q-58 -39 -155 -39q-93 0 -147 36q-56 36 -78 78v82h143v-46q9 -14 30 -27q21 -12 52 -12q35 0 57 13q23 14 33 34v123q-56 -52 -138 -52q-73 0 -119 38q-46 37 -63 84v255q17 48 63 85q44 37 119 37q84 0 143 -56v44h143zM363 205v199
q-13 14 -36 25q-23 9 -52 9q-32 0 -54 -13q-23 -14 -30 -28v-185q9 -15 31 -28q20 -13 53 -13q58 0 88 34zM241 734q20 12 50 12q33 0 52 -12t27 -29v-60q-7 -16 -27 -28q-19 -12 -52 -12q-31 0 -50 12q-22 13 -29 28v60q7 15 29 29z" />
    <glyph glyph-name="Gcommaaccent" unicode="&#x122;" horiz-adv-x="616" 
d="M418 459v70q-11 28 -37 44q-29 17 -68 17q-38 0 -66 -17q-27 -16 -39 -44v-358q11 -27 39 -43q29 -18 69 -18t68 17q27 17 39 40v105h-102v117h252v-262q-28 -55 -92 -99q-62 -43 -168 -43q-105 0 -172 47t-93 107v423q26 60 93 107q64 46 172 46q106 0 168 -43
q65 -45 92 -98v-115h-155zM362 -62q18 -6 26 -15v-106q-8 -22 -31 -39q-25 -18 -66 -18h-49v47h36q31 0 37 14v21h-3q-27 0 -49 5q-19 6 -27 14v62q8 9 27 15q18 7 49 7q32 0 50 -7z" />
    <glyph glyph-name="gcommaaccent" unicode="&#x123;" horiz-adv-x="559" 
d="M511 542v-585q-24 -53 -83 -92q-58 -39 -155 -39q-93 0 -147 36q-56 36 -78 78v82h143v-46q9 -14 30 -27q21 -12 52 -12q35 0 57 13q23 14 33 34v123q-56 -52 -138 -52q-73 0 -119 38q-46 37 -63 84v255q17 48 63 85q44 37 119 37q84 0 143 -56v44h143zM363 205v199
q-13 14 -36 25q-23 9 -52 9q-32 0 -54 -13q-23 -14 -30 -28v-185q9 -15 31 -28q20 -13 53 -13q58 0 88 34zM331 707q20 -14 27 -29v-48q-7 -16 -27 -28q-20 -13 -51 -13q-32 0 -51 13q-21 12 -28 28v124q6 19 35 39q29 18 71 18h38v-56h-23q-38 0 -46 -14v-22h4q30 0 51 -12
z" />
    <glyph glyph-name="Hcircumflex" unicode="&#x124;" horiz-adv-x="656" 
d="M218 700v-278h220v278h160v-700h-160v300h-220v-300h-160v700h160zM233 907h191l78 -145v-15h-105l-69 94l-69 -94h-105v15z" />
    <glyph glyph-name="hcircumflex" unicode="&#x125;" horiz-adv-x="566" 
d="M456 517q44 -37 63 -85v-432h-148v397q-10 15 -31 29q-22 12 -53 12q-29 0 -52 -9q-24 -10 -37 -24v-405h-148v700h148v-197q55 51 137 51q75 0 121 -37zM196 903h191l78 -145v-15h-105l-69 94l-69 -94h-105v15z" />
    <glyph glyph-name="Hbar" unicode="&#x126;" horiz-adv-x="656" 
d="M633 535h-35v-535h-160v300h-220v-300h-160v535h-33v96h33v69h160v-69h220v69h160v-69h35v-96zM438 535h-220v-113h220v113z" />
    <glyph glyph-name="hbar" unicode="&#x127;" horiz-adv-x="574" 
d="M59 653v47h148v-47h155v-78h-155v-94q56 50 137 50q73 0 120 -38q44 -37 63 -85v-408h-148v374q-9 14 -30 28q-23 12 -54 12q-29 0 -51 -9q-25 -12 -37 -25v-380h-148v575h-40v78h40z" />
    <glyph glyph-name="Itilde" unicode="&#x128;" horiz-adv-x="275" 
d="M218 700v-700h-160v700h160zM246 883v-20q-5 -12 -14 -17q-10 -7 -27 -7q-12 0 -25 5q-12 4 -27 15q-29 16 -44 22q-22 8 -52 8q-46 0 -75 -22q-30 -23 -39 -57v-59h88v21q3 10 13 17t27 7q13 0 25 -5q10 -5 27 -15q29 -16 45 -22q21 -8 51 -8q45 0 76 23t38 55v59h-87z
" />
    <glyph glyph-name="itilde" unicode="&#x129;" horiz-adv-x="249" 
d="M198 542v-542h-148v542h148zM232 737v-20q-7 -24 -41 -24q-12 0 -24 5q-15 5 -28 14q-29 16 -44 22q-22 8 -52 8q-46 0 -75 -22q-30 -22 -39 -56v-59h88v21q3 10 13 17q10 6 27 6q15 0 24 -4q14 -6 28 -15q29 -16 45 -22q21 -8 51 -8q45 0 76 23t38 55v59h-87z" />
    <glyph glyph-name="Imacron" unicode="&#x12a;" horiz-adv-x="275" 
d="M218 700v-700h-160v700h160zM310 859v-99h-345v99h345z" />
    <glyph glyph-name="imacron" unicode="&#x12b;" horiz-adv-x="249" 
d="M198 542v-542h-148v542h148zM296 725v-99h-345v99h345z" />
    <glyph glyph-name="Ibreve" unicode="&#x12c;" horiz-adv-x="275" 
d="M218 700v-700h-160v700h160zM73 882v-28q4 -11 22 -22q17 -11 43 -11q27 0 44 11t21 22v28h108v-51q-19 -40 -63 -64q-43 -25 -110 -25q-66 0 -109 25q-45 25 -64 64v51h108z" />
    <glyph glyph-name="ibreve" unicode="&#x12d;" horiz-adv-x="249" 
d="M198 542v-542h-148v542h148zM59 738v-28q5 -11 22 -22t43 -11q27 0 44 11t21 22v28h108v-50q-20 -41 -63 -65t-110 -24q-66 0 -109 25q-45 25 -64 64v50h108z" />
    <glyph glyph-name="Iogonek" unicode="&#x12e;" horiz-adv-x="275" 
d="M151 -68q-24 -30 -31 -46v-26q4 -6 18 -11q12 -4 30 -4q29 0 50 7v-76q-31 -14 -79 -14q-45 0 -79 12q-34 13 -47 40v78q11 20 38 50q30 34 60 58h-53v700h160v-700q-46 -41 -67 -68z" />
    <glyph glyph-name="iogonek" unicode="&#x12f;" horiz-adv-x="249" 
d="M176 734q19 -12 27 -29v-60q-7 -16 -27 -28t-52 -12q-30 0 -50 12q-22 13 -29 28v60q7 15 29 29q20 12 50 12q32 0 52 -12zM50 542h148v-542q-46 -41 -67 -68q-24 -30 -31 -46v-26q4 -6 18 -11q12 -4 30 -4q29 0 50 7v-76q-31 -14 -79 -14q-45 0 -79 12q-34 13 -47 40v78
q11 20 38 50q30 34 60 58h-41v542z" />
    <glyph glyph-name="Idotaccent" unicode="&#x130;" horiz-adv-x="275" 
d="M218 700v-700h-160v700h160zM88 885q20 12 50 12q32 0 52 -12q19 -12 27 -29v-60q-8 -17 -27 -29q-20 -12 -52 -12q-31 0 -50 13q-22 13 -29 28v60q7 15 29 29z" />
    <glyph glyph-name="dotlessi" unicode="&#x131;" horiz-adv-x="249" 
d="M198 542v-542h-148v542h148z" />
    <glyph glyph-name="IJ" unicode="&#x132;" horiz-adv-x="662" 
d="M218 700v-700h-160v700h160zM341 121q39 0 68 15q28 15 38 42v522h160v-561q-65 -141 -254 -141q-28 0 -58 2v121h46z" />
    <glyph glyph-name="ij" unicode="&#x133;" horiz-adv-x="496" 
d="M198 542v-542h-148v542h148zM74 734q20 12 50 12q32 0 52 -12q19 -12 27 -29v-60q-7 -16 -27 -28t-52 -12q-30 0 -50 12q-22 13 -29 28v60q7 15 29 29zM265 -42q23 16 33 42v542h148v-577q-23 -54 -82 -95q-62 -42 -156 -42v114q34 0 57 16zM323 734q19 12 50 12
q33 0 52 -12t27 -29v-60q-7 -16 -27 -28q-19 -12 -52 -12q-31 0 -50 12q-22 13 -29 28v60q7 15 29 29z" />
    <glyph glyph-name="Jcircumflex" unicode="&#x134;" horiz-adv-x="387" 
d="M66 121q40 0 68 15t38 42v522h160v-561q-64 -141 -254 -141q-28 0 -58 2v121h46zM157 907h191l78 -145v-15h-105l-69 94l-69 -94h-105v15z" />
    <glyph glyph-name="jcircumflex" unicode="&#x135;" horiz-adv-x="247" 
d="M16 -42q22 16 33 42v542h148v-577q-23 -54 -82 -95q-61 -42 -156 -42v114q34 0 57 16zM29 764h191l78 -148v-15h-105l-69 97l-69 -97h-105v15z" />
    <glyph glyph-name="Kcommaaccent" unicode="&#x136;" horiz-adv-x="598" 
d="M569 89v-89h-127l-179 280l-45 -50v-230h-160v700h160v-249h17l213 249h115v-89l-196 -216zM358 -57q18 -6 26 -15v-106q-8 -22 -31 -39q-25 -18 -66 -18h-49v47h36q31 0 37 14v21h-3q-27 0 -49 5q-19 6 -27 14v62q8 9 27 15q18 7 49 7q32 0 50 -7z" />
    <glyph glyph-name="kcommaaccent" unicode="&#x137;" horiz-adv-x="521" 
d="M502 81v-81h-118l-141 203l-46 -48v-155h-148v700h148v-349h18l177 191h103v-81l-151 -155zM320 -57q18 -6 26 -15v-106q-8 -22 -31 -39q-25 -18 -66 -18h-49v47h36q31 0 37 14v21h-3q-27 0 -49 5q-19 6 -27 14v62q8 9 27 15q18 7 49 7q32 0 50 -7z" />
    <glyph glyph-name="kgreenlandic" unicode="&#x138;" horiz-adv-x="521" 
d="M502 81v-81h-118l-141 203l-46 -48v-155h-148v542h148v-191h18l177 191h103v-81l-151 -155z" />
    <glyph glyph-name="Lacute" unicode="&#x139;" horiz-adv-x="458" 
d="M218 700v-578h219v-122h-379v700h160zM134 907h135v-64l-80 -96h-108v15z" />
    <glyph glyph-name="lacute" unicode="&#x13a;" horiz-adv-x="246" 
d="M197 700v-700h-148v700h148zM116 903h135v-64l-80 -96h-108v15z" />
    <glyph glyph-name="Lcommaaccent" unicode="&#x13b;" horiz-adv-x="458" 
d="M218 700v-578h219v-122h-379v700h160zM279 -57q18 -6 26 -15v-106q-8 -22 -31 -39q-26 -18 -66 -18h-49v47h36q31 0 37 14v21h-3q-27 0 -49 5q-19 6 -27 14v62q7 9 27 15q18 7 49 7q32 0 50 -7z" />
    <glyph glyph-name="lcommaaccent" unicode="&#x13c;" horiz-adv-x="246" 
d="M197 700v-700h-148v700h148zM172 -57q18 -6 26 -15v-106q-8 -22 -31 -39q-25 -18 -66 -18h-49v47h36q31 0 37 14v21h-3q-27 0 -49 5q-19 6 -27 14v62q8 9 27 15q18 7 49 7q32 0 50 -7z" />
    <glyph glyph-name="Lcaron" unicode="&#x13d;" horiz-adv-x="474" 
d="M218 700v-578h219v-122h-379v700h160zM308 700h116v-76l-48 -135h-89v15z" />
    <glyph glyph-name="lcaron" unicode="&#x13e;" horiz-adv-x="397" 
d="M197 700v-700h-148v700h148zM276 700h116v-76l-48 -135h-89v15z" />
    <glyph glyph-name="Ldot" unicode="&#x13f;" horiz-adv-x="486" 
d="M218 700v-578h219v-122h-379v700h160zM324 455q20 12 50 12q32 0 53 -12q20 -14 27 -29v-77q-7 -16 -28 -28q-20 -13 -52 -13q-31 0 -50 13q-21 13 -28 28v77q7 16 28 29z" />
    <glyph glyph-name="ldot" unicode="&#x140;" horiz-adv-x="436" 
d="M197 700v-700h-148v700h148zM292 422q20 12 50 12q32 0 52 -12q19 -12 27 -29v-60q-7 -16 -27 -28t-52 -12q-30 0 -50 12q-22 13 -29 28v60q7 15 29 29z" />
    <glyph glyph-name="Lslash" unicode="&#x141;" horiz-adv-x="494" 
d="M472 122v-122h-379v187l-70 -36v119l70 36v394h160v-311l134 70v-119l-134 -70v-148h219z" />
    <glyph glyph-name="lslash" unicode="&#x142;" horiz-adv-x="348" 
d="M320 395l-72 -42v-353h-148v267l-71 -41v119l71 41v314h148v-228l72 42v-119z" />
    <glyph glyph-name="Nacute" unicode="&#x143;" horiz-adv-x="668" 
d="M238 700l205 -432h19v432h148v-700h-180l-205 432h-19v-432h-148v700h180zM339 907h135v-64l-80 -96h-108v15z" />
    <glyph glyph-name="nacute" unicode="&#x144;" horiz-adv-x="565" 
d="M454 517q46 -37 63 -85v-432h-148v397q-9 14 -30 28q-22 13 -54 13q-29 0 -51 -9q-23 -9 -37 -23v-406h-148v542h138v-48q60 60 147 60q74 0 120 -37zM272 767h139v-63l-80 -100h-112v15z" />
    <glyph glyph-name="Ncommaaccent" unicode="&#x145;" horiz-adv-x="668" 
d="M238 700l205 -432h19v432h148v-700h-180l-205 432h-19v-432h-148v700h180zM391 -57q18 -6 26 -15v-106q-8 -22 -31 -39q-26 -18 -66 -18h-49v47h36q31 0 37 14v21h-3q-27 0 -49 5q-19 6 -27 14v62q7 9 27 15q18 7 49 7q32 0 50 -7z" />
    <glyph glyph-name="ncommaaccent" unicode="&#x146;" horiz-adv-x="565" 
d="M454 517q46 -37 63 -85v-432h-148v397q-9 14 -30 28q-22 13 -54 13q-29 0 -51 -9q-23 -9 -37 -23v-406h-148v542h138v-48q60 60 147 60q74 0 120 -37zM331 -57q18 -6 26 -15v-106q-8 -22 -31 -39q-26 -18 -66 -18h-49v47h36q31 0 37 14v21h-3q-27 0 -49 5q-19 6 -27 14
v62q7 9 27 15q18 7 49 7q32 0 50 -7z" />
    <glyph glyph-name="Ncaron" unicode="&#x147;" horiz-adv-x="668" 
d="M238 700l205 -432h19v432h148v-700h-180l-205 432h-19v-432h-148v700h180zM172 907h105l69 -95l69 95h105v-16l-78 -144h-191l-79 144v16z" />
    <glyph glyph-name="ncaron" unicode="&#x148;" horiz-adv-x="565" 
d="M454 517q46 -37 63 -85v-432h-148v397q-9 14 -30 28q-22 13 -54 13q-29 0 -51 -9q-23 -9 -37 -23v-406h-148v542h138v-48q60 60 147 60q74 0 120 -37zM108 764h105l69 -98l69 98h105v-16l-78 -147h-191l-79 147v16z" />
    <glyph glyph-name="napostrophe" unicode="&#x149;" horiz-adv-x="565" 
d="M454 517q46 -37 63 -85v-432h-148v397q-9 14 -30 28q-22 13 -54 13q-29 0 -51 -9q-23 -9 -37 -23v-406h-148v542h138v-48q60 60 147 60q74 0 120 -37zM142 755q19 -7 26 -16v-106q-8 -22 -31 -39q-25 -18 -66 -18h-49v47h36q31 0 37 14v21h-3q-29 0 -49 6q-18 4 -27 13
v62q7 8 27 16q20 6 49 6q30 0 50 -6z" />
    <glyph glyph-name="Eng" unicode="&#x14a;" horiz-adv-x="668" 
d="M610 700v-731q-27 -62 -95 -104q-68 -41 -169 -41q-20 0 -42 2v115q18 -2 39 -2q30 0 57 11q26 10 39 30l-214 452h-19v-432h-148v700h180l205 -433h19v433h148z" />
    <glyph glyph-name="eng" unicode="&#x14b;" horiz-adv-x="565" 
d="M337 -42q23 17 32 42v397q-9 14 -30 28q-22 13 -54 13q-29 0 -51 -9q-25 -12 -37 -25v-404h-148v542h138v-48q55 60 147 60q74 0 120 -37q44 -36 64 -85v-467q-24 -53 -83 -96q-59 -41 -155 -41v114q34 0 57 16z" />
    <glyph glyph-name="Omacron" unicode="&#x14c;" horiz-adv-x="626" 
d="M141 669q64 46 172 46q107 0 172 -46q67 -47 93 -107v-423q-26 -60 -92 -107q-67 -47 -173 -47q-105 0 -172 47t-93 107v423q26 60 93 107zM247 128q27 -18 66 -18t67 18q27 17 38 43v358q-11 27 -38 44q-28 17 -67 17q-38 0 -66 -17q-28 -16 -39 -44v-358q11 -27 39 -43
zM485 865v-99h-345v99h345z" />
    <glyph glyph-name="omacron" unicode="&#x14d;" horiz-adv-x="561" 
d="M126 516q61 41 155 41q95 0 156 -41q60 -43 82 -95v-300q-23 -53 -82 -94q-60 -42 -156 -42q-95 0 -155 42q-60 39 -83 94v300q23 54 83 95zM224 116q24 -15 57 -15t57 15q24 13 33 35v240q-9 21 -33 36t-57 15t-57 -15t-33 -36v-240q9 -22 33 -35zM453 725v-99h-345v99
h345z" />
    <glyph glyph-name="Obreve" unicode="&#x14e;" horiz-adv-x="626" 
d="M141 669q64 46 172 46q107 0 172 -46q67 -47 93 -107v-423q-26 -60 -92 -107q-67 -47 -173 -47q-105 0 -172 47t-93 107v423q26 60 93 107zM247 128q27 -18 66 -18t67 18q27 17 38 43v358q-11 27 -38 44q-28 17 -67 17q-38 0 -66 -17q-28 -16 -39 -44v-358q11 -27 39 -43
zM248 888v-28q4 -11 22 -22q17 -11 43 -11q27 0 44 11t21 22v28h108v-51q-19 -40 -63 -64q-43 -25 -110 -25q-66 0 -109 25q-45 25 -64 64v51h108z" />
    <glyph glyph-name="obreve" unicode="&#x14f;" horiz-adv-x="561" 
d="M126 516q61 41 155 41q95 0 156 -41q60 -43 82 -95v-300q-23 -53 -82 -94q-60 -42 -156 -42q-95 0 -155 42q-60 39 -83 94v300q23 54 83 95zM224 116q24 -15 57 -15t57 15q24 13 33 35v240q-9 21 -33 36t-57 15t-57 -15t-33 -36v-240q9 -22 33 -35zM216 738v-28
q5 -11 22 -22t43 -11q27 0 44 11t21 22v28h108v-50q-20 -41 -63 -65t-110 -24q-66 0 -109 25q-45 25 -64 64v50h108z" />
    <glyph glyph-name="Ohungarumlaut" unicode="&#x150;" horiz-adv-x="626" 
d="M141 669q64 46 172 46q107 0 172 -46q67 -47 93 -107v-423q-26 -60 -92 -107q-67 -47 -173 -47q-105 0 -172 47t-93 107v423q26 60 93 107zM247 128q27 -18 66 -18t67 18q27 17 38 43v358q-11 27 -38 44q-28 17 -67 17q-38 0 -66 -17q-28 -16 -39 -44v-358q11 -27 39 -43
zM205 907h114v-52l-57 -108h-96v15zM400 907h114v-52l-56 -108h-95v15z" />
    <glyph glyph-name="ohungarumlaut" unicode="&#x151;" horiz-adv-x="561" 
d="M126 516q61 41 155 41q95 0 156 -41q60 -43 82 -95v-300q-23 -53 -82 -94q-60 -42 -156 -42q-95 0 -155 42q-60 39 -83 94v300q23 54 83 95zM224 116q24 -15 57 -15t57 15q24 13 33 35v240q-9 21 -33 36t-57 15t-57 -15t-33 -36v-240q9 -22 33 -35zM167 761h114v-52
l-57 -111h-96v15zM362 761h114v-52l-56 -111h-95v15z" />
    <glyph glyph-name="OE" unicode="&#x152;" horiz-adv-x="896" 
d="M858 122v-122h-439v2q-48 -17 -106 -17q-105 0 -172 47t-93 107v423q26 60 93 107q64 46 172 46q58 0 106 -17v2h432v-122h-272v-159h254v-122h-254v-175h279zM380 127q27 17 39 42v362q-11 26 -38 43q-28 16 -68 16q-38 0 -66 -17q-28 -16 -39 -44v-358q11 -27 39 -43
q27 -18 66 -18t67 17z" />
    <glyph glyph-name="oe" unicode="&#x153;" horiz-adv-x="876" 
d="M125 516q61 41 156 41t164 -51q65 51 164 51q91 0 149 -38q56 -37 79 -78v-207h-318v-85q11 -21 34 -36t56 -15t57 15t33 36v35h138v-83q-23 -41 -78 -78q-56 -38 -150 -38q-97 0 -164 50q-71 -50 -164 -50q-96 0 -156 42q-60 41 -83 94v300q23 53 83 95zM699 321v72
q-9 22 -33 37q-25 14 -57 14q-33 0 -56 -14q-24 -15 -34 -37v-72h180zM224 116q24 -15 57 -15t57 15q22 14 33 36v239q-11 21 -33 36q-24 15 -57 15t-57 -15t-33 -36v-239q9 -22 33 -36z" />
    <glyph glyph-name="Racute" unicode="&#x154;" horiz-adv-x="607" 
d="M569 89v-89h-131l-148 258h-72v-258h-160v700h295q67 0 122 -31q53 -30 86 -88v-203q-41 -73 -113 -101zM218 375h99q34 0 57 13q22 12 36 36v106q-13 24 -37 37q-26 12 -56 12h-99v-204zM293 907h135v-64l-80 -96h-108v15z" />
    <glyph glyph-name="racute" unicode="&#x155;" horiz-adv-x="380" 
d="M187 542v-74q49 75 150 75l21 -1v-136q-7 1 -25 1q-48 0 -84 -11q-36 -13 -52 -30v-366h-148v542h138zM190 767h139v-63l-80 -100h-112v15z" />
    <glyph glyph-name="Rcommaaccent" unicode="&#x156;" horiz-adv-x="607" 
d="M569 89v-89h-131l-148 258h-72v-258h-160v700h295q67 0 122 -31q53 -30 86 -88v-203q-41 -73 -113 -101zM218 375h99q34 0 57 13q22 12 36 36v106q-13 24 -37 37q-26 12 -56 12h-99v-204zM353 -57q18 -6 26 -15v-106q-8 -22 -31 -39q-26 -18 -66 -18h-49v47h36
q31 0 37 14v21h-3q-27 0 -49 5q-19 6 -27 14v62q7 9 27 15q18 7 49 7q32 0 50 -7z" />
    <glyph glyph-name="rcommaaccent" unicode="&#x157;" horiz-adv-x="380" 
d="M187 542v-74q49 75 150 75l21 -1v-136q-7 1 -25 1q-48 0 -84 -11q-36 -13 -52 -30v-366h-148v542h138zM172 -57q18 -6 26 -15v-106q-8 -22 -31 -39q-25 -18 -66 -18h-49v47h36q31 0 37 14v21h-3q-27 0 -49 5q-19 6 -27 14v62q8 9 27 15q18 7 49 7q32 0 50 -7z" />
    <glyph glyph-name="Rcaron" unicode="&#x158;" horiz-adv-x="607" 
d="M569 89v-89h-131l-148 258h-72v-258h-160v700h295q67 0 122 -31q53 -30 86 -88v-203q-41 -73 -113 -101zM218 375h99q34 0 57 13q22 12 36 36v106q-13 24 -37 37q-26 12 -56 12h-99v-204zM126 907h105l69 -95l69 95h105v-16l-78 -144h-191l-79 144v16z" />
    <glyph glyph-name="rcaron" unicode="&#x159;" horiz-adv-x="380" 
d="M187 542v-74q49 75 150 75l21 -1v-136q-7 1 -25 1q-48 0 -84 -11q-36 -13 -52 -30v-366h-148v542h138zM26 764h105l69 -98l69 98h105v-16l-78 -147h-191l-79 147v16z" />
    <glyph glyph-name="Sacute" unicode="&#x15a;" horiz-adv-x="595" 
d="M196 225v-61q10 -22 37 -38q26 -16 65 -16q38 0 63 16q27 18 38 38v71q-9 17 -27 31q-20 12 -56 21l-52 11q-100 22 -150 54q-49 31 -73 72v157q29 51 90 93q62 41 167 41q103 0 166 -42q62 -42 89 -92v-98h-154v54q-10 21 -36 38q-27 15 -65 15q-39 0 -65 -16
q-27 -16 -37 -37v-58q10 -18 28 -29q18 -12 57 -21l50 -13q101 -22 150 -54q49 -31 72 -73v-170q-29 -52 -90 -92q-61 -42 -165 -42t-166 42q-63 41 -91 92v106h155zM296 910h135v-64l-80 -96h-108v15z" />
    <glyph glyph-name="sacute" unicode="&#x15b;" horiz-adv-x="518" 
d="M176 174v-43q10 -17 33 -27q22 -11 50 -11t52 11q20 10 31 27v47q-14 24 -68 35l-56 12q-78 15 -120 40q-45 26 -59 50v138q25 36 79 71q52 33 141 33t141 -33q50 -31 80 -71v-81h-138v39q-11 17 -31 27q-24 11 -52 11q-27 0 -51 -11q-21 -10 -32 -27v-41q13 -22 69 -34
l55 -12q79 -17 120 -41q44 -26 60 -49v-145q-26 -38 -78 -71q-54 -33 -143 -33t-141 34q-54 33 -79 70v85h137zM251 767h139v-63l-80 -100h-112v15z" />
    <glyph glyph-name="Scircumflex" unicode="&#x15c;" horiz-adv-x="595" 
d="M196 225v-61q10 -22 37 -38q26 -16 65 -16q38 0 63 16q27 18 38 38v71q-9 17 -27 31q-20 12 -56 21l-52 11q-100 22 -150 54q-49 31 -73 72v157q29 51 90 93q62 41 167 41q103 0 166 -42q62 -42 89 -92v-98h-154v54q-10 21 -36 38q-27 15 -65 15q-39 0 -65 -16
q-27 -16 -37 -37v-58q10 -18 28 -29q18 -12 57 -21l50 -13q101 -22 150 -54q49 -31 72 -73v-170q-29 -52 -90 -92q-61 -42 -165 -42t-166 42q-63 41 -91 92v106h155zM208 910h191l78 -145v-15h-105l-69 94l-69 -94h-105v15z" />
    <glyph glyph-name="scircumflex" unicode="&#x15d;" horiz-adv-x="518" 
d="M176 174v-43q10 -17 33 -27q22 -11 50 -11t52 11q20 10 31 27v47q-14 24 -68 35l-56 12q-78 15 -120 40q-45 26 -59 50v138q25 36 79 71q52 33 141 33t141 -33q50 -31 80 -71v-81h-138v39q-11 17 -31 27q-24 11 -52 11q-27 0 -51 -11q-21 -10 -32 -27v-41q13 -22 69 -34
l55 -12q79 -17 120 -41q44 -26 60 -49v-145q-26 -38 -78 -71q-54 -33 -143 -33t-141 34q-54 33 -79 70v85h137zM166 764h191l78 -148v-15h-105l-69 97l-69 -97h-105v15z" />
    <glyph glyph-name="Scedilla" unicode="&#x15e;" horiz-adv-x="595" 
d="M399 483v54q-10 21 -36 38q-27 15 -65 15q-39 0 -65 -16q-27 -16 -37 -37v-58q10 -18 28 -29q18 -12 57 -21l50 -13q101 -22 150 -54q49 -31 72 -73v-170q-24 -44 -79 -85q-53 -40 -140 -47l-11 -40h10q37 0 59 -15q22 -13 31 -35v-87q-14 -28 -46 -44t-77 -16
q-30 0 -58 5q-25 6 -41 14l18 64q44 -12 71 -12q17 0 32 5q12 5 17 15v32q-5 8 -16 12t-30 4h-58l28 97q-90 8 -142 48q-54 40 -80 85v106h155v-61q10 -22 37 -38q26 -16 65 -16q38 0 63 16q27 18 38 38v71q-9 17 -27 31q-20 12 -56 21l-52 11q-100 22 -150 54
q-49 31 -73 72v157q29 51 90 93q62 41 167 41q103 0 166 -42q62 -42 89 -92v-98h-154z" />
    <glyph glyph-name="scedilla" unicode="&#x15f;" horiz-adv-x="518" 
d="M342 372v39q-11 17 -31 27q-24 11 -52 11q-27 0 -51 -11q-21 -10 -32 -27v-41q13 -22 69 -34l55 -12q79 -17 120 -41q44 -26 60 -49v-145q-22 -33 -67 -64q-45 -30 -119 -38l-11 -40h10q37 0 59 -15q22 -13 31 -35v-87q-14 -28 -46 -44t-77 -16q-30 0 -58 5q-25 6 -41 14
l18 64q43 -12 71 -12q17 0 32 5q12 5 17 15v32q-5 8 -16 12t-30 4h-58l28 98q-75 8 -117 38q-45 31 -67 64v85h137v-43q10 -17 33 -27q22 -11 50 -11t52 11q20 10 31 27v47q-14 24 -68 35l-56 12q-78 15 -120 40q-45 26 -59 50v138q25 36 79 71q52 33 141 33t141 -33
q50 -31 80 -71v-81h-138z" />
    <glyph glyph-name="Scaron" unicode="&#x160;" horiz-adv-x="595" 
d="M196 225v-61q10 -22 37 -38q26 -16 65 -16q38 0 63 16q27 18 38 38v71q-9 17 -27 31q-20 12 -56 21l-52 11q-100 22 -150 54q-49 31 -73 72v157q29 51 90 93q62 41 167 41q103 0 166 -42q62 -42 89 -92v-98h-154v54q-10 21 -36 38q-27 15 -65 15q-39 0 -65 -16
q-27 -16 -37 -37v-58q10 -18 28 -29q18 -12 57 -21l50 -13q101 -22 150 -54q49 -31 72 -73v-170q-29 -52 -90 -92q-61 -42 -165 -42t-166 42q-63 41 -91 92v106h155zM129 910h105l69 -95l69 95h105v-16l-78 -144h-191l-79 144v16z" />
    <glyph glyph-name="scaron" unicode="&#x161;" horiz-adv-x="518" 
d="M176 174v-43q10 -17 33 -27q22 -11 50 -11t52 11q20 10 31 27v47q-14 24 -68 35l-56 12q-78 15 -120 40q-45 26 -59 50v138q25 36 79 71q52 33 141 33t141 -33q50 -31 80 -71v-81h-138v39q-11 17 -31 27q-24 11 -52 11q-27 0 -51 -11q-21 -10 -32 -27v-41q13 -22 69 -34
l55 -12q79 -17 120 -41q44 -26 60 -49v-145q-26 -38 -78 -71q-54 -33 -143 -33t-141 34q-54 33 -79 70v85h137zM87 764h105l69 -98l69 98h105v-16l-78 -147h-191l-79 147v16z" />
    <glyph glyph-name="uni0162" unicode="&#x162;" horiz-adv-x="538" 
d="M304 0l-15 -53h10q37 0 59 -15q22 -13 31 -35v-87q-14 -28 -46 -44t-77 -16q-30 0 -58 5q-25 6 -41 14l18 64q44 -12 71 -12q17 0 32 5q12 5 17 15v32q-5 8 -16 12t-30 4h-58l32 111h-43v578h-165v122h488v-122h-163v-578h-46z" />
    <glyph glyph-name="uni0163" unicode="&#x163;" horiz-adv-x="363" 
d="M225 434v-300q24 -33 83 -33q20 0 35 3v-105q-42 -11 -90 -11h-6l-11 -41h10q36 0 59 -15q22 -13 31 -35v-87q-14 -28 -46 -44t-77 -16q-30 0 -58 5q-25 6 -41 14l18 64q44 -12 71 -12q17 0 32 5q12 5 17 15v32q-5 8 -16 12t-30 4h-58l31 108q-41 12 -66 35
q-25 22 -36 50v352h-53v108h53v113h148v-113h118v-108h-118z" />
    <glyph glyph-name="Tcaron" unicode="&#x164;" horiz-adv-x="538" 
d="M25 578v122h488v-122h-163v-578h-160v578h-165zM95 907h105l69 -95l69 95h105v-16l-78 -144h-191l-79 144v16z" />
    <glyph glyph-name="tcaron" unicode="&#x165;" horiz-adv-x="441" 
d="M225 434v-300q24 -33 83 -33q20 0 35 3v-105q-42 -11 -90 -11q-78 0 -119 28q-42 27 -57 66v352h-53v108h53v113h148v-113h118v-108h-118zM306 809h116v-76l-48 -135h-89v15z" />
    <glyph glyph-name="Tbar" unicode="&#x166;" horiz-adv-x="538" 
d="M350 578v-164h117v-95h-117v-319h-160v319h-117v95h117v164h-165v122h488v-122h-163z" />
    <glyph glyph-name="tbar" unicode="&#x167;" horiz-adv-x="363" 
d="M225 434v-99h118v-109h-118v-92q24 -33 83 -33q20 0 35 3v-105q-42 -11 -90 -11q-78 0 -119 28q-42 27 -57 66v144h-53v109h53v99h-53v108h53v113h148v-113h118v-108h-118z" />
    <glyph glyph-name="Utilde" unicode="&#x168;" horiz-adv-x="639" 
d="M585 139q-26 -60 -93 -107t-172 -47t-172 47t-93 107v561h160v-527q11 -26 38 -43q27 -18 67 -18q38 0 66 17q27 16 39 44v527h160v-561zM428 883v-20q-5 -12 -14 -17q-10 -7 -27 -7q-12 0 -25 5q-12 4 -27 15q-29 16 -44 22q-22 8 -52 8q-46 0 -75 -22q-30 -23 -39 -57
v-59h88v21q3 10 13 17t27 7q13 0 25 -5q10 -5 27 -15q29 -16 45 -22q21 -8 51 -8q45 0 76 23t38 55v59h-87z" />
    <glyph glyph-name="utilde" unicode="&#x169;" horiz-adv-x="559" 
d="M510 542v-542h-138v47q-56 -59 -144 -59q-74 0 -118 38q-45 38 -63 84v432h148v-397q8 -15 29 -28q19 -13 52 -13q56 0 86 34v404h148zM388 737v-20q-8 -24 -41 -24q-12 0 -24 5q-15 5 -28 14q-29 16 -44 22q-22 8 -52 8q-46 0 -75 -22q-30 -22 -39 -56v-59h88v21
q3 10 13 17q10 6 27 6q15 0 24 -4q14 -6 28 -15q29 -16 45 -22q21 -8 51 -8q45 0 76 23t38 55v59h-87z" />
    <glyph glyph-name="Umacron" unicode="&#x16a;" horiz-adv-x="639" 
d="M585 139q-26 -60 -93 -107t-172 -47t-172 47t-93 107v561h160v-527q11 -26 38 -43q27 -18 67 -18q38 0 66 17q27 16 39 44v527h160v-561zM492 859v-99h-345v99h345z" />
    <glyph glyph-name="umacron" unicode="&#x16b;" horiz-adv-x="559" 
d="M510 542v-542h-138v47q-56 -59 -144 -59q-74 0 -118 38q-45 38 -63 84v432h148v-397q8 -15 29 -28q19 -13 52 -13q56 0 86 34v404h148zM452 725v-99h-345v99h345z" />
    <glyph glyph-name="Ubreve" unicode="&#x16c;" horiz-adv-x="639" 
d="M585 139q-26 -60 -93 -107t-172 -47t-172 47t-93 107v561h160v-527q11 -26 38 -43q27 -18 67 -18q38 0 66 17q27 16 39 44v527h160v-561zM255 882v-28q4 -11 22 -22q17 -11 43 -11q27 0 44 11t21 22v28h108v-51q-19 -40 -63 -64q-43 -25 -110 -25q-66 0 -109 25
q-45 25 -64 64v51h108z" />
    <glyph glyph-name="ubreve" unicode="&#x16d;" horiz-adv-x="559" 
d="M510 542v-542h-138v47q-56 -59 -144 -59q-74 0 -118 38q-45 38 -63 84v432h148v-397q8 -15 29 -28q19 -13 52 -13q56 0 86 34v404h148zM215 738v-28q5 -11 22 -22t43 -11q27 0 44 11t21 22v28h108v-50q-20 -41 -63 -65t-110 -24q-66 0 -109 25q-45 25 -64 64v50h108z" />
    <glyph glyph-name="Uring" unicode="&#x16e;" horiz-adv-x="639" 
d="M585 139q-26 -60 -93 -107t-172 -47t-172 47t-93 107v561h160v-527q11 -26 38 -43q27 -18 67 -18q38 0 66 17q27 16 39 44v527h160v-561zM246 878q32 18 74 18t75 -18q32 -18 47 -47v-89q-15 -29 -47 -47q-33 -18 -75 -18t-74 18q-33 18 -48 47v89q15 29 48 47zM287 742
q14 -8 32 -8q19 0 33 8q13 7 19 16v57q-4 8 -18 16q-13 7 -34 7q-19 0 -32 -7q-15 -8 -19 -16v-57q6 -9 19 -16z" />
    <glyph glyph-name="uring" unicode="&#x16f;" horiz-adv-x="559" 
d="M510 542v-542h-138v47q-56 -59 -144 -59q-74 0 -118 38q-45 38 -63 84v432h148v-397q8 -15 29 -28q19 -13 52 -13q56 0 86 34v404h148zM207 789q31 18 73 18t75 -18q31 -18 48 -47v-90q-17 -29 -48 -47q-33 -18 -75 -18t-73 18q-32 17 -49 47v90q17 30 49 47zM247 652
q13 -7 33 -7q21 0 34 7q14 8 18 16v57q-4 9 -18 17q-13 7 -34 7q-20 0 -33 -7t-18 -17v-57q4 -8 18 -16z" />
    <glyph glyph-name="Uhungarumlaut" unicode="&#x170;" horiz-adv-x="639" 
d="M585 139q-26 -60 -93 -107t-172 -47t-172 47t-93 107v561h160v-527q11 -26 38 -43q27 -18 67 -18q38 0 66 17q27 16 39 44v527h160v-561zM212 901h114v-52l-57 -108h-96v15zM407 901h114v-52l-56 -108h-95v15z" />
    <glyph glyph-name="uhungarumlaut" unicode="&#x171;" horiz-adv-x="559" 
d="M510 542v-542h-138v47q-56 -59 -144 -59q-74 0 -118 38q-45 38 -63 84v432h148v-397q8 -15 29 -28q19 -13 52 -13q56 0 86 34v404h148zM166 761h114v-52l-57 -111h-96v15zM361 761h114v-52l-56 -111h-95v15z" />
    <glyph glyph-name="Uogonek" unicode="&#x172;" horiz-adv-x="639" 
d="M324 -65q21 29 46 54q-28 -4 -50 -4q-105 0 -172 47t-93 107v561h160v-528q11 -26 38 -43q27 -18 67 -18q39 0 66 18q26 16 39 43v528h160v-561q-19 -44 -66 -91q-49 -49 -80 -98q-29 -44 -35 -64v-26q4 -7 17 -11q12 -4 30 -4q30 0 51 7v-76q-33 -14 -79 -14
q-45 0 -79 12q-34 13 -47 40v78q9 19 27 43z" />
    <glyph glyph-name="uogonek" unicode="&#x173;" horiz-adv-x="559" 
d="M443 -68q-24 -30 -31 -46v-26q4 -6 18 -11q12 -4 30 -4q29 0 50 7v-76q-31 -14 -79 -14q-45 0 -79 12q-34 13 -47 40v78q11 20 38 50q30 34 60 58h-31v47q-56 -59 -144 -59q-74 0 -118 38q-45 38 -63 84v432h148v-397q8 -15 29 -28q19 -13 52 -13q56 0 86 34v404h148
v-542q-46 -41 -67 -68z" />
    <glyph glyph-name="Wcircumflex" unicode="&#x174;" horiz-adv-x="926" 
d="M31 700h152l81 -488h18l109 488h143l110 -488h18l80 488h153v-89l-120 -611h-213l-96 400h-18l-95 -400h-202l-120 611v89zM368 907h191l78 -145v-15h-105l-69 94l-69 -94h-105v15z" />
    <glyph glyph-name="wcircumflex" unicode="&#x175;" horiz-adv-x="798" 
d="M31 542h141l68 -377h18l82 377h135l81 -377h17l70 377h127v-81l-113 -461h-176l-72 300h-14l-72 -300h-179l-113 461v81zM304 764h191l78 -148v-15h-105l-69 97l-69 -97h-105v15z" />
    <glyph glyph-name="Ycircumflex" unicode="&#x176;" horiz-adv-x="581" 
d="M27 611v89h147l115 -239h18l115 239h132v-89l-187 -335v-276h-161v292zM195 907h191l78 -145v-15h-105l-69 94l-69 -94h-105v15z" />
    <glyph glyph-name="ycircumflex" unicode="&#x177;" horiz-adv-x="533" 
d="M502 542v-80l-184 -554q-29 -34 -78 -56q-48 -22 -116 -22q-26 0 -48 3q-26 3 -36 7v102l51 -2q34 0 58 10t38 24l10 34l-168 452v82h141l89 -334h17l96 334h130zM168 764h191l78 -148v-15h-105l-69 97l-69 -97h-105v15z" />
    <glyph glyph-name="Ydieresis" unicode="&#x178;" horiz-adv-x="581" 
d="M27 611v89h147l115 -239h18l115 239h132v-89l-187 -335v-276h-161v292zM182 886q48 0 71 -29v-77q-20 -29 -71 -29q-45 0 -71 29v77q26 29 71 29zM398 886q46 0 72 -29v-77q-23 -29 -72 -29q-45 0 -71 29v77q26 29 71 29z" />
    <glyph glyph-name="Zacute" unicode="&#x179;" horiz-adv-x="558" 
d="M321 561v17h-281v122h482v-103l-287 -458v-17h287v-122h-487v103zM284 907h135v-64l-80 -96h-108v15z" />
    <glyph glyph-name="zacute" unicode="&#x17a;" horiz-adv-x="476" 
d="M265 424v10h-237v108h421v-93l-244 -330v-11h244v-108h-421v100zM236 767h139v-63l-80 -100h-112v15z" />
    <glyph glyph-name="Zdotaccent" unicode="&#x17b;" horiz-adv-x="558" 
d="M321 561v17h-281v122h482v-103l-287 -458v-17h287v-122h-487v103zM241 885q20 12 50 12q33 0 52 -12t27 -29v-60q-8 -17 -27 -29t-52 -12q-31 0 -50 13q-22 13 -29 28v60q7 15 29 29z" />
    <glyph glyph-name="zdotaccent" unicode="&#x17c;" horiz-adv-x="476" 
d="M265 424v10h-237v108h421v-93l-244 -330v-11h244v-108h-421v100zM196 734q20 12 50 12q32 0 52 -12q19 -12 27 -29v-60q-7 -16 -27 -28t-52 -12q-30 0 -50 12q-22 13 -29 28v60q7 15 29 29z" />
    <glyph glyph-name="Zcaron" unicode="&#x17d;" horiz-adv-x="558" 
d="M321 561v17h-281v122h482v-103l-287 -458v-17h287v-122h-487v103zM117 907h105l69 -95l69 95h105v-16l-78 -144h-191l-79 144v16z" />
    <glyph glyph-name="zcaron" unicode="&#x17e;" horiz-adv-x="476" 
d="M265 424v10h-237v108h421v-93l-244 -330v-11h244v-108h-421v100zM72 764h105l69 -98l69 98h105v-16l-78 -147h-191l-79 147v16z" />
    <glyph glyph-name="longs" unicode="&#x17f;" horiz-adv-x="335" 
d="M106 687q41 28 119 28q31 0 54 -4q29 -5 36 -8v-104q-14 2 -35 2q-60 0 -83 -32v-569h-148v620q15 38 57 67z" />
    <glyph glyph-name="florin" unicode="&#x192;" horiz-adv-x="422" 
d="M273 567v-51h118v-108h-118v-493q-13 -38 -55 -68q-41 -28 -115 -28q-32 0 -56 4q-32 5 -40 8v99h44q57 0 74 35v443h-54v108h54v102q15 39 56 68q40 28 114 28q29 0 56 -3q28 -5 41 -9v-99h-45q-59 0 -74 -36z" />
    <glyph glyph-name="AEacute" unicode="&#x1fc;" horiz-adv-x="848" 
d="M809 122v-122h-439v175h-164l-57 -175h-131v89l214 611h571v-122h-272v-159h254v-122h-254v-175h278zM370 294v284h-33l-92 -284h125zM486 907h135v-64l-80 -96h-108v15z" />
    <glyph glyph-name="aeacute" unicode="&#x1fd;" horiz-adv-x="867" 
d="M107 12q-48 28 -67 57v162q16 32 61 63q44 29 119 29q82 0 141 -45v113q-10 21 -34 37q-23 14 -55 14q-31 0 -51 -11q-22 -12 -32 -27v-37h-137v86q26 36 77 70q52 34 143 34q96 0 163 -51q68 51 164 51q92 0 150 -38q55 -37 78 -78v-207h-317v-85q10 -23 33 -36
q23 -15 56 -15t57 15t33 36v35h138v-83q-23 -41 -78 -78q-56 -38 -150 -38q-115 0 -189 69q-64 -69 -177 -69q-79 0 -126 27zM689 321v72q-9 22 -33 37q-25 14 -57 14q-33 0 -56 -14q-23 -15 -33 -37v-72h179zM324 96q22 10 37 28v60q-14 19 -37 29q-25 11 -57 11t-51 -10
q-22 -11 -30 -22v-72q10 -14 30 -24q20 -11 51 -11q30 0 57 11zM431 767h139v-63l-80 -100h-112v15z" />
    <glyph glyph-name="Oslashacute" unicode="&#x1fe;" horiz-adv-x="626" 
d="M578 649l-28 -40q15 -19 28 -47v-423q-26 -60 -92 -107q-67 -47 -173 -47q-102 0 -174 48l-24 -33h-67v51l29 40q-14 17 -29 48v423q26 60 93 107q64 46 172 46q102 0 174 -48l24 33h67v-51zM208 275l197 276q-31 39 -92 39q-38 0 -66 -17q-28 -16 -39 -44v-254zM418 425
l-197 -276q14 -17 39 -28q24 -11 53 -11q39 0 67 18q27 17 38 43v254zM306 907h135v-64l-80 -96h-108v15z" />
    <glyph glyph-name="oslashacute" unicode="&#x1ff;" horiz-adv-x="561" 
d="M519 495l-26 -31q13 -16 26 -43v-300q-23 -53 -82 -94q-60 -42 -156 -42q-88 0 -153 40l-21 -25h-64v49l25 30q-16 19 -25 42v300q23 54 83 95q61 41 155 41q88 0 153 -40l21 25h64v-47zM191 226l160 192q-27 24 -70 24q-33 0 -57 -15t-33 -36v-165zM371 317l-160 -192
q27 -24 70 -24q33 0 57 15q24 13 33 35v166zM271 767h139v-63l-80 -100h-112v15z" />
    <glyph glyph-name="Scommaaccent" unicode="&#x218;" horiz-adv-x="595" 
d="M196 225v-61q10 -22 37 -38q26 -16 65 -16q38 0 63 16q27 18 38 38v71q-9 17 -27 31q-20 12 -56 21l-52 11q-100 22 -150 54q-49 31 -73 72v157q29 51 90 93q62 41 167 41q103 0 166 -42q62 -42 89 -92v-98h-154v54q-10 21 -36 38q-27 15 -65 15q-39 0 -65 -16
q-27 -16 -37 -37v-58q10 -18 28 -29q18 -12 57 -21l50 -13q101 -22 150 -54q49 -31 72 -73v-170q-29 -52 -90 -92q-61 -42 -165 -42t-166 42q-63 41 -91 92v106h155zM352 -57q18 -6 26 -15v-106q-8 -22 -31 -39q-25 -18 -66 -18h-49v47h36q31 0 37 14v21h-3q-27 0 -49 5
q-19 6 -27 14v62q8 9 27 15q18 7 49 7q32 0 50 -7z" />
    <glyph glyph-name="scommaaccent" unicode="&#x219;" horiz-adv-x="518" 
d="M176 174v-43q10 -17 33 -27q22 -11 50 -11t52 11q20 10 31 27v47q-14 24 -68 35l-56 12q-78 15 -120 40q-45 26 -59 50v138q25 36 79 71q52 33 141 33t141 -33q50 -31 80 -71v-81h-138v39q-11 17 -31 27q-24 11 -52 11q-27 0 -51 -11q-21 -10 -32 -27v-41q13 -22 69 -34
l55 -12q79 -17 120 -41q44 -26 60 -49v-145q-26 -38 -78 -71q-54 -33 -143 -33t-141 34q-54 33 -79 70v85h137zM312 -57q18 -6 26 -15v-106q-8 -22 -31 -39q-25 -18 -66 -18h-49v47h36q31 0 37 14v21h-3q-27 0 -49 5q-19 6 -27 14v62q8 9 27 15q18 7 49 7q32 0 50 -7z" />
    <glyph glyph-name="uni021A" unicode="&#x21a;" horiz-adv-x="538" 
d="M25 578v122h488v-122h-163v-578h-160v578h-165zM318 -57q18 -6 26 -15v-106q-8 -22 -31 -39q-25 -18 -66 -18h-49v47h36q31 0 37 14v21h-3q-27 0 -49 5q-19 6 -27 14v62q8 9 27 15q18 7 49 7q32 0 50 -7z" />
    <glyph glyph-name="uni021B" unicode="&#x21b;" horiz-adv-x="363" 
d="M225 434v-300q24 -33 83 -33q20 0 35 3v-105q-42 -11 -90 -11q-78 0 -119 28q-42 27 -57 66v352h-53v108h53v113h148v-113h118v-108h-118zM265 -57q18 -6 26 -15v-106q-8 -22 -31 -39q-26 -18 -66 -18h-49v47h36q31 0 37 14v21h-3q-27 0 -49 5q-19 6 -27 14v62q7 9 27 15
q18 7 49 7q32 0 50 -7z" />
    <glyph glyph-name="uni0237" unicode="&#x237;" horiz-adv-x="247" 
d="M16 -42q22 16 33 42v542h148v-577q-23 -54 -82 -95q-61 -42 -156 -42v114q34 0 57 16z" />
    <glyph glyph-name="circumflex" unicode="&#x2c6;" 
d="M135 764h191l78 -148v-15h-105l-69 97l-69 -97h-105v15z" />
    <glyph glyph-name="caron" unicode="&#x2c7;" 
d="M56 764h105l69 -98l69 98h105v-16l-78 -147h-191l-79 147v16z" />
    <glyph glyph-name="breve" unicode="&#x2d8;" 
d="M165 738v-28q5 -11 22 -22t43 -11q27 0 44 11t21 22v28h108v-50q-20 -41 -63 -65t-110 -24q-66 0 -109 25q-45 25 -64 64v50h108z" />
    <glyph glyph-name="dotaccent" unicode="&#x2d9;" 
d="M180 734q19 12 50 12q32 0 52 -12q19 -12 27 -29v-60q-7 -16 -27 -28t-52 -12q-30 0 -50 12q-22 13 -29 28v60q7 15 29 29z" />
    <glyph glyph-name="ring" unicode="&#x2da;" 
d="M158 789q31 18 73 18t75 -18q31 -18 48 -47v-90q-17 -29 -48 -47q-33 -18 -75 -18q-41 0 -73 18q-32 17 -49 47v90q17 30 49 47zM198 652q13 -7 33 -7q21 0 34 7q14 8 18 16v57q-4 9 -18 17q-13 7 -34 7q-20 0 -33 -7t-18 -17v-57q4 -8 18 -16z" />
    <glyph glyph-name="ogonek" unicode="&#x2db;" 
d="M181 -44q40 43 81 67l74 -23q-46 -41 -67 -68q-24 -30 -31 -46v-26q4 -6 18 -11q12 -4 30 -4q29 0 50 7v-76q-31 -14 -79 -14q-44 0 -79 12q-34 13 -47 40v78q11 22 50 64z" />
    <glyph glyph-name="tilde" unicode="&#x2dc;" 
d="M338 717v20h87v-59q-7 -32 -38 -55t-76 -23q-30 0 -51 8q-16 6 -45 22q-14 9 -28 15q-9 4 -24 4q-17 0 -27 -6q-10 -7 -13 -17v-21h-88v59q9 34 39 56q29 22 75 22q30 0 52 -8q15 -6 44 -22q13 -9 28 -14q12 -5 24 -5q33 0 41 24z" />
    <glyph glyph-name="hungarumlaut" unicode="&#x2dd;" 
d="M97 761h114v-52l-57 -111h-96v15zM292 761h114v-52l-56 -111h-95v15z" />
    <glyph glyph-name="uni0326" unicode="&#x326;" horiz-adv-x="0" 
d="M-181 -57q18 -6 26 -15v-106q-8 -22 -32 -39q-24 -18 -65 -18h-49v47h36q31 0 37 14v21h-3q-28 0 -50 5q-17 5 -26 14v62q8 9 26 15q18 7 50 7t50 -7z" />
    <glyph glyph-name="tonos" unicode="&#x384;" 
d="M326 766v-64l-80 -102h-111v15l54 151h137z" />
    <glyph glyph-name="dieresistonos" unicode="&#x385;" horiz-adv-x="544" 
d="M365 766v-64l-63 -92h-90v16l42 140h111zM112 722q40 0 58 -24v-67q-18 -24 -58 -24q-38 0 -59 24v67q21 24 59 24zM457 722q38 0 59 -24v-67q-21 -24 -59 -24t-59 24v67q21 24 59 24z" />
    <glyph glyph-name="Alphatonos" unicode="&#x386;" horiz-adv-x="628" 
d="M603 89v-89h-147l-41 163h-217l-42 -163h-131v89l172 611h233zM385 285l-68 272h-18l-70 -272h156zM105 701v-64l-80 -102h-111v15l54 151h137z" />
    <glyph glyph-name="Epsilontonos" unicode="&#x388;" horiz-adv-x="535" 
d="M490 700v-122h-272v-159h254v-122h-254v-175h279v-122h-439v700h432zM-1 701v-64l-80 -102h-111v15l54 151h137z" />
    <glyph glyph-name="Etatonos" unicode="&#x389;" horiz-adv-x="656" 
d="M218 700v-278h220v278h160v-700h-160v300h-220v-300h-160v700h160zM-1 701v-64l-80 -102h-111v15l54 151h137z" />
    <glyph glyph-name="Iotatonos" unicode="&#x38a;" horiz-adv-x="275" 
d="M218 700v-700h-160v700h160zM-1 701v-64l-80 -102h-111v15l54 151h137z" />
    <glyph glyph-name="Omicrontonos" unicode="&#x38c;" horiz-adv-x="626" 
d="M141 669q64 46 172 46q107 0 172 -46q67 -47 93 -107v-423q-26 -60 -92 -107q-67 -47 -173 -47q-105 0 -172 47t-93 107v423q26 60 93 107zM247 128q27 -18 66 -18t67 18q27 17 38 43v358q-11 27 -38 44q-28 17 -67 17q-38 0 -66 -17q-28 -16 -39 -44v-358q11 -27 39 -43
zM18 701v-64l-80 -102h-111v15l54 151h137z" />
    <glyph glyph-name="Upsilontonos" unicode="&#x38e;" horiz-adv-x="581" 
d="M27 611v89h147l115 -239h18l115 239h132v-89l-187 -335v-276h-161v292zM-11 701v-64l-80 -102h-111v15l54 151h137z" />
    <glyph glyph-name="Omegatonos" unicode="&#x38f;" horiz-adv-x="633" 
d="M537 173q-30 -30 -74 -51h118v-122h-231v168q26 4 45 21t26 36v303q-11 26 -38 44q-29 17 -67 17t-66 -17q-28 -18 -39 -44v-303q9 -20 28 -36q18 -17 45 -21v-168h-233v122h119q-44 21 -74 51q-32 30 -45 63v326q26 60 93 107q65 46 172 46t172 -46q67 -47 93 -107v-326
q-13 -32 -44 -63zM18 701v-64l-80 -102h-111v15l54 151h137z" />
    <glyph glyph-name="iotadieresistonos" unicode="&#x390;" horiz-adv-x="249" 
d="M198 542v-542h-148v542h148zM227 766v-64l-63 -92h-90v16l42 140h111zM-26 722q40 0 58 -24v-67q-18 -24 -58 -24q-38 0 -59 24v67q21 24 59 24zM319 722q38 0 59 -24v-67q-21 -24 -59 -24t-59 24v67q21 24 59 24z" />
    <glyph glyph-name="Alpha" unicode="&#x391;" horiz-adv-x="628" 
d="M603 89v-89h-147l-41 163h-217l-42 -163h-131v89l172 611h233zM385 285l-68 272h-18l-70 -272h156z" />
    <glyph glyph-name="Beta" unicode="&#x392;" horiz-adv-x="601" 
d="M354 700q69 0 122 -35q51 -35 78 -84v-143q-10 -19 -32 -39q-24 -22 -44 -33q21 -10 47 -31q22 -19 36 -41v-175q-27 -49 -81 -83q-54 -36 -126 -36h-296v700h296zM372 426q21 11 35 33v73q-13 24 -35 37t-54 13h-100v-169h105q27 0 49 13zM414 168v91q-12 19 -36 33
q-25 13 -54 13h-106v-187h102q65 0 94 50z" />
    <glyph glyph-name="Gamma" unicode="&#x393;" horiz-adv-x="474" 
d="M449 578h-231v-578h-160v700h391v-122z" />
    <glyph glyph-name="uni0394" unicode="&#x394;" horiz-adv-x="628" 
d="M603 89v-89h-578v89l177 611h223zM429 122l-119 456h-3l-122 -456h244z" />
    <glyph glyph-name="Epsilon" unicode="&#x395;" horiz-adv-x="535" 
d="M490 700v-122h-272v-159h254v-122h-254v-175h279v-122h-439v700h432z" />
    <glyph glyph-name="Zeta" unicode="&#x396;" horiz-adv-x="558" 
d="M321 561v17h-281v122h482v-103l-287 -458v-17h287v-122h-487v103z" />
    <glyph glyph-name="Eta" unicode="&#x397;" horiz-adv-x="656" 
d="M218 700v-278h220v278h160v-700h-160v300h-220v-300h-160v700h160z" />
    <glyph glyph-name="Theta" unicode="&#x398;" horiz-adv-x="626" 
d="M485 669q67 -47 93 -107v-423q-26 -60 -92 -107q-67 -47 -173 -47q-105 0 -172 47t-93 107v423q26 60 93 107q64 46 172 46q107 0 172 -46zM247 573q-28 -16 -39 -44v-358q11 -27 39 -43q27 -18 66 -18t67 18q27 17 38 43v358q-11 27 -38 44q-28 17 -67 17q-38 0 -66 -17
zM381 409v-97h-136v97h136z" />
    <glyph glyph-name="Iota" unicode="&#x399;" horiz-adv-x="275" 
d="M218 700v-700h-160v700h160z" />
    <glyph glyph-name="Kappa" unicode="&#x39a;" horiz-adv-x="598" 
d="M569 89v-89h-127l-179 280l-45 -50v-230h-160v700h160v-249h17l213 249h115v-89l-196 -216z" />
    <glyph glyph-name="Lambda" unicode="&#x39b;" horiz-adv-x="625" 
d="M203 700h218l179 -611v-89h-154l-139 538h-3l-140 -538h-139v89z" />
    <glyph glyph-name="Mu" unicode="&#x39c;" horiz-adv-x="807" 
d="M269 700l129 -321h18l124 321h209v-700h-150v468h-18l-131 -327h-94l-131 327h-19v-468h-148v700h211z" />
    <glyph glyph-name="Nu" unicode="&#x39d;" horiz-adv-x="668" 
d="M238 700l205 -432h19v432h148v-700h-180l-205 432h-19v-432h-148v700h180z" />
    <glyph glyph-name="Xi" unicode="&#x39e;" horiz-adv-x="573" 
d="M527 578h-161v-157h127v-122h-127v-177h166v-122h-492v122h170v177h-130v122h130v157h-165v122h482v-122z" />
    <glyph glyph-name="Omicron" unicode="&#x39f;" horiz-adv-x="626" 
d="M141 669q64 46 172 46q107 0 172 -46q67 -47 93 -107v-423q-26 -60 -92 -107q-67 -47 -173 -47q-105 0 -172 47t-93 107v423q26 60 93 107zM247 128q27 -18 66 -18t67 18q27 17 38 43v358q-11 27 -38 44q-28 17 -67 17q-38 0 -66 -17q-28 -16 -39 -44v-358q11 -27 39 -43
z" />
    <glyph glyph-name="Pi" unicode="&#x3a0;" horiz-adv-x="650" 
d="M593 0h-160v578h-215v-578h-160v700h535v-700z" />
    <glyph glyph-name="Rho" unicode="&#x3a1;" horiz-adv-x="592" 
d="M348 700q67 0 122 -31t88 -88v-219q-27 -50 -83 -86q-55 -34 -127 -34h-130v-242h-160v700h290zM367 377q23 12 37 36v117q-13 24 -38 37q-25 12 -55 12h-93v-215h93q31 0 56 13z" />
    <glyph glyph-name="Sigma" unicode="&#x3a3;" horiz-adv-x="561" 
d="M515 578h-288l157 -215l-163 -241h301v-122h-487v104l170 255l-160 223v118h470v-122z" />
    <glyph glyph-name="Tau" unicode="&#x3a4;" horiz-adv-x="538" 
d="M25 578v122h488v-122h-163v-578h-160v578h-165z" />
    <glyph glyph-name="Upsilon" unicode="&#x3a5;" horiz-adv-x="581" 
d="M27 611v89h147l115 -239h18l115 239h132v-89l-187 -335v-276h-161v292z" />
    <glyph glyph-name="Phi" unicode="&#x3a6;" horiz-adv-x="805" 
d="M656 617q69 -43 101 -105v-318q-32 -63 -101 -104q-70 -43 -147 -43h-36v-67h-141v67h-35q-77 0 -147 43q-70 42 -102 104v318q32 62 102 105q70 42 147 42h35v61h141v-61h36q77 0 147 -42zM332 166v374h-23q-35 0 -67 -17t-47 -41v-258q15 -24 47 -41t67 -17h23z
M610 482q-13 24 -46 41q-34 17 -67 17h-24v-374h24q33 0 67 17q33 17 46 41v258z" />
    <glyph glyph-name="Chi" unicode="&#x3a7;" horiz-adv-x="598" 
d="M196 350l-160 261v89h143l117 -234h18l120 234h127v-89l-159 -260l159 -262v-89h-142l-115 234h-19l-119 -234h-130v89z" />
    <glyph glyph-name="Psi" unicode="&#x3a8;" horiz-adv-x="790" 
d="M739 700v-425q-31 -60 -98 -99q-67 -40 -155 -40h-20v-136h-143v136h-18q-90 0 -155 40q-68 39 -99 99v425h150v-387q13 -23 42 -40t71 -17h9v444h143v-444h10q43 0 72 17q27 16 41 40v387h150z" />
    <glyph glyph-name="uni03A9" unicode="&#x3a9;" horiz-adv-x="633" 
d="M537 173q-30 -30 -74 -51h118v-122h-231v168q26 4 45 21t26 36v303q-11 26 -38 44q-29 17 -67 17t-66 -17q-28 -18 -39 -44v-303q9 -20 28 -36q18 -17 45 -21v-168h-233v122h119q-44 21 -74 51q-32 30 -45 63v326q26 60 93 107q65 46 172 46t172 -46q67 -47 93 -107v-326
q-13 -32 -44 -63z" />
    <glyph glyph-name="Iotadieresis" unicode="&#x3aa;" horiz-adv-x="275" 
d="M218 700v-700h-160v700h160zM30 886q48 0 71 -29v-77q-20 -29 -71 -29q-45 0 -71 29v77q26 29 71 29zM246 886q46 0 72 -29v-77q-23 -29 -72 -29q-45 0 -71 29v77q26 29 71 29z" />
    <glyph glyph-name="Upsilondieresis" unicode="&#x3ab;" horiz-adv-x="581" 
d="M27 611v89h147l115 -239h18l115 239h132v-89l-187 -335v-276h-161v292zM182 886q48 0 71 -29v-77q-20 -29 -71 -29q-45 0 -71 29v77q26 29 71 29zM398 886q46 0 72 -29v-77q-23 -29 -72 -29q-45 0 -71 29v77q26 29 71 29z" />
    <glyph glyph-name="alphatonos" unicode="&#x3ac;" horiz-adv-x="559" 
d="M510 542v-542h-142v44q-56 -56 -142 -56q-73 0 -119 38q-45 36 -64 85v321q17 48 63 85t120 37q86 0 142 -56v44h142zM362 137v269q-32 32 -87 32q-33 0 -53 -13q-22 -13 -31 -28v-252q9 -15 31 -28q20 -13 53 -13q55 0 87 33zM418 766v-64l-80 -102h-111v15l54 151h137z
" />
    <glyph glyph-name="epsilontonos" unicode="&#x3ad;" horiz-adv-x="538" 
d="M506 178v-89q-27 -38 -83 -71q-57 -33 -149 -33t-150 34q-58 33 -84 71v111q10 20 33 43t49 36q-26 12 -45 30q-22 20 -31 37v103q24 38 81 73q56 34 148 34q63 0 111 -18q50 -20 77 -43q29 -25 41 -45v-85h-137v38q-11 18 -34 30q-25 11 -56 11t-53 -12t-33 -29v-37
q11 -19 33 -30q24 -11 50 -11h75v-98h-74q-29 0 -53 -11q-23 -11 -34 -31v-49q10 -15 36 -27t57 -12q30 0 54 12q24 10 36 27v41h135zM407 766v-64l-80 -102h-111v15l54 151h137z" />
    <glyph glyph-name="etatonos" unicode="&#x3ae;" horiz-adv-x="565" 
d="M454 517q46 -37 63 -85v-598h-148v563q-9 14 -30 28q-22 13 -54 13q-29 0 -51 -9q-23 -9 -37 -23v-406h-148v542h138v-48q60 60 147 60q74 0 120 -37zM412 766v-64l-80 -102h-111v15l54 151h137z" />
    <glyph glyph-name="iotatonos" unicode="&#x3af;" horiz-adv-x="249" 
d="M198 542v-542h-148v542h148zM259 766v-64l-80 -102h-111v15l54 151h137z" />
    <glyph glyph-name="upsilondieresistonos" unicode="&#x3b0;" horiz-adv-x="557" 
d="M510 110q-23 -47 -81 -86q-59 -39 -150 -39q-93 0 -151 40q-59 39 -81 85v432h148v-396q9 -15 31 -27q20 -13 53 -13q31 0 53 13q21 13 30 27v396h148v-432zM363 766v-64l-63 -92h-90v16l42 140h111zM110 722q40 0 58 -24v-67q-18 -24 -58 -24q-38 0 -59 24v67
q21 24 59 24zM455 722q38 0 59 -24v-67q-21 -24 -59 -24t-59 24v67q21 24 59 24z" />
    <glyph glyph-name="alpha" unicode="&#x3b1;" horiz-adv-x="559" 
d="M510 542v-542h-142v44q-56 -56 -142 -56q-73 0 -119 38q-45 36 -64 85v321q17 48 63 85t120 37q86 0 142 -56v44h142zM362 137v269q-32 32 -87 32q-33 0 -53 -13q-22 -13 -31 -28v-252q9 -15 31 -28q20 -13 53 -13q55 0 87 33z" />
    <glyph glyph-name="beta" unicode="&#x3b2;" horiz-adv-x="563" 
d="M526 289v-168q-18 -51 -66 -92q-49 -41 -124 -41q-84 0 -139 54v-208h-148v753q27 50 83 90q56 38 145 38q87 0 143 -34q56 -35 81 -73v-164q-8 -15 -28 -32q-22 -18 -41 -28q68 -36 94 -95zM378 270q-10 24 -36 38q-25 13 -56 13h-21v107h16q24 0 46 11q20 11 31 31v87
q-26 42 -80 42q-29 0 -48 -13q-22 -14 -33 -32v-406q12 -18 36 -30t56 -12q33 0 57 15t32 35v114z" />
    <glyph glyph-name="gamma" unicode="&#x3b3;" horiz-adv-x="535" 
d="M506 542v-81l-165 -461v-166h-148v166l-165 461v81h136l107 -355h3l109 355h123z" />
    <glyph glyph-name="delta" unicode="&#x3b4;" horiz-adv-x="561" 
d="M453 431q47 -37 66 -81v-229q-23 -53 -82 -94q-60 -42 -156 -42q-95 0 -155 42q-60 39 -83 94v216q13 31 43 59q30 27 76 42q-35 15 -58 33q-23 19 -32 33v115q21 32 77 65q52 31 136 31q83 0 135 -31t74 -65v-77h-136v36q-25 31 -73 31q-23 0 -44 -8q-20 -9 -32 -23v-51
q6 -12 22 -21t41 -13l58 -11q75 -14 123 -51zM371 334q-9 22 -33 37q-25 14 -57 14t-57 -14q-24 -15 -33 -37v-181q9 -23 33 -36q24 -15 57 -15t57 15q24 13 33 36v181z" />
    <glyph glyph-name="epsilon" unicode="&#x3b5;" horiz-adv-x="538" 
d="M506 178v-89q-27 -38 -83 -71q-57 -33 -149 -33t-150 34q-58 33 -84 71v111q10 20 33 43t49 36q-26 12 -45 30q-22 20 -31 37v103q24 38 81 73q56 34 148 34q63 0 111 -18q50 -20 77 -43q29 -25 41 -45v-85h-137v38q-11 18 -34 30q-25 11 -56 11t-53 -12t-33 -29v-37
q11 -19 33 -30q24 -11 50 -11h75v-98h-74q-29 0 -53 -11q-23 -11 -34 -31v-49q10 -15 36 -27t57 -12q30 0 54 12q24 10 36 27v41h135z" />
    <glyph glyph-name="zeta" unicode="&#x3b6;" horiz-adv-x="507" 
d="M188 248v-92q10 -15 35 -27q23 -12 54 -12h193v-242h-127v125h-118q-71 0 -118 36q-45 35 -67 83v148q23 57 60 97l210 225h-247v111h415v-104l-256 -291q-23 -27 -34 -57z" />
    <glyph glyph-name="eta" unicode="&#x3b7;" horiz-adv-x="565" 
d="M454 517q46 -37 63 -85v-598h-148v563q-9 14 -30 28q-22 13 -54 13q-29 0 -51 -9q-23 -9 -37 -23v-406h-148v542h138v-48q60 60 147 60q74 0 120 -37z" />
    <glyph glyph-name="theta" unicode="&#x3b8;" horiz-adv-x="559" 
d="M427 679q56 -38 84 -86v-486q-28 -49 -84 -85q-56 -37 -148 -37q-91 0 -146 37q-57 36 -85 85v486q28 48 85 86q56 36 146 36q91 0 148 -36zM225 583q-23 -14 -33 -31v-130h175v130q-10 18 -32 31t-56 13q-32 0 -54 -13zM335 118q23 14 32 30v177h-175v-177
q10 -16 33 -30t54 -14q33 0 56 14z" />
    <glyph glyph-name="iota" unicode="&#x3b9;" horiz-adv-x="249" 
d="M198 542v-542h-148v542h148z" />
    <glyph glyph-name="kappa" unicode="&#x3ba;" horiz-adv-x="521" 
d="M502 81v-81h-118l-141 203l-46 -48v-155h-148v542h148v-191h18l177 191h103v-81l-151 -155z" />
    <glyph glyph-name="lambda" unicode="&#x3bb;" horiz-adv-x="528" 
d="M503 81v-81h-133l-103 360l-104 -360h-133v82l167 443l-23 66q-30 27 -81 27q-9 0 -39 -2v102q10 4 35 7q23 3 46 3q108 0 169 -70z" />
    <glyph glyph-name="uni03BC" unicode="&#x3bc;" horiz-adv-x="561" 
d="M512 542v-542h-138v49q-52 -61 -136 -61q-18 0 -43 5l2 -6v-153h-148v708h148v-404q10 -13 32 -24q19 -10 46 -10q55 0 88 33v405h149z" />
    <glyph glyph-name="nu" unicode="&#x3bd;" horiz-adv-x="535" 
d="M28 542h141l97 -376h17l99 376h124v-81l-142 -461h-194l-142 461v81z" />
    <glyph glyph-name="xi" unicode="&#x3be;" horiz-adv-x="513" 
d="M343 0h-118q-71 0 -118 36q-45 35 -67 83v167q11 24 41 50q32 27 65 40q-31 12 -56 33q-25 18 -40 41v140q28 51 84 88t142 37t139 -29q49 -27 76 -61v-105h-137v37q-23 41 -77 41q-27 0 -47 -11q-22 -12 -32 -30v-88q27 -44 78 -44h86v-108h-82q-30 0 -56 -12
q-26 -13 -36 -39v-110q10 -15 35 -27q23 -12 54 -12h193v-242h-127v125z" />
    <glyph glyph-name="omicron" unicode="&#x3bf;" horiz-adv-x="561" 
d="M126 516q61 41 155 41q95 0 156 -41q60 -43 82 -95v-300q-23 -53 -82 -94q-60 -42 -156 -42q-95 0 -155 42q-60 39 -83 94v300q23 54 83 95zM224 116q24 -15 57 -15t57 15q24 13 33 35v240q-9 21 -33 36t-57 15t-57 -15t-33 -36v-240q9 -22 33 -35z" />
    <glyph glyph-name="pi" unicode="&#x3c0;" horiz-adv-x="626" 
d="M601 434h-59v-434h-148v434h-164v-434h-148v434h-58v108h577v-108z" />
    <glyph glyph-name="rho" unicode="&#x3c1;" horiz-adv-x="555" 
d="M432 517q58 -41 81 -90v-316q-17 -47 -63 -84q-46 -39 -119 -39q-83 0 -139 51v-205h-148v593q22 48 82 90q58 40 153 40t153 -40zM365 395q-11 20 -32 33q-22 13 -54 13q-31 0 -53 -13q-23 -14 -34 -32v-257q12 -13 37 -25q21 -10 52 -10t54 14q21 14 30 28v249z" />
    <glyph glyph-name="uni03C2" unicode="&#x3c2;" horiz-adv-x="530" 
d="M225 427q-23 -15 -34 -36v-224q8 -20 32 -35t57 -15h192v-242h-126v125h-85q-90 0 -143 41t-75 95v285q23 54 82 95q61 41 155 41q66 0 111 -19q46 -19 72 -44q27 -25 37 -44v-111h-135v62q-7 14 -31 29q-24 12 -54 12q-32 0 -55 -15z" />
    <glyph glyph-name="sigma" unicode="&#x3c3;" horiz-adv-x="589" 
d="M562 434h-94q34 -32 51 -75v-238q-23 -53 -82 -94q-60 -42 -156 -42q-95 0 -155 42q-60 39 -83 94v280q23 54 83 98q59 43 155 43h281v-108zM323 434h-42q-31 0 -56 -17q-23 -17 -34 -41v-223q11 -23 34 -36q23 -15 56 -15t57 15q24 13 33 36v223q-15 38 -48 58z" />
    <glyph glyph-name="tau" unicode="&#x3c4;" horiz-adv-x="481" 
d="M313 434v-298q11 -15 28 -23q17 -10 55 -10q20 0 36 2v-106q-39 -11 -91 -11q-75 0 -118 28t-58 66v352h-143v108h436v-108h-145z" />
    <glyph glyph-name="upsilon" unicode="&#x3c5;" horiz-adv-x="557" 
d="M510 110q-23 -47 -81 -86q-59 -39 -150 -39q-93 0 -151 40q-59 39 -81 85v432h148v-396q9 -15 31 -27q20 -13 53 -13q31 0 53 13q21 13 30 27v396h148v-432z" />
    <glyph glyph-name="phi" unicode="&#x3c6;" horiz-adv-x="777" 
d="M656 525q52 -33 78 -74v-314q-12 -33 -43 -64q-33 -33 -81 -52q-50 -21 -112 -21h-39v-166h-141v166h-38q-62 0 -111 21q-49 20 -82 52q-33 33 -44 64v267q13 42 46 83q33 39 75 58h85v-100q-22 -10 -35 -28q-16 -21 -23 -39v-215q11 -21 38 -37q25 -15 66 -15h23v339
q22 39 76 74q54 33 129 33q78 0 133 -32zM586 411q-10 16 -25 26q-16 10 -42 10q-20 0 -37 -11q-17 -13 -23 -27v-298h23q40 0 65 15q26 15 39 37v248z" />
    <glyph glyph-name="chi" unicode="&#x3c7;" horiz-adv-x="553" 
d="M160 538q31 -16 53 -43l77 -203h3l94 250h135v-81l-138 -268l117 -237q21 -21 54 -21v-102q-24 -6 -59 -6q-52 0 -84 17q-31 16 -54 50l-78 204h-3l-98 -264h-134v81l140 279l-113 231q-20 20 -54 20v98q10 4 30 7q17 3 29 3q51 0 83 -15z" />
    <glyph glyph-name="psi" unicode="&#x3c8;" horiz-adv-x="786" 
d="M739 542v-400q-12 -34 -42 -65q-31 -33 -80 -55q-48 -22 -115 -22h-38v-166h-141v166h-39q-67 0 -115 22q-51 23 -80 55q-31 31 -42 65v400h148v-375q9 -23 37 -39q29 -17 68 -17h23v552h141v-552h22q39 0 68 17q27 16 36 39v375h149z" />
    <glyph glyph-name="omega" unicode="&#x3c9;" horiz-adv-x="776" 
d="M688 487q30 -38 46 -83v-291q-10 -28 -34 -55q-28 -31 -64 -49q-40 -21 -90 -21q-103 0 -158 67q-25 -30 -65 -49q-39 -18 -92 -18q-51 0 -90 21q-38 18 -64 49q-24 27 -34 55v291q13 42 46 83q33 39 75 58h85v-100q-22 -10 -35 -28q-16 -21 -23 -39v-236q8 -16 24 -29
q17 -14 42 -14q23 0 40 12t21 28v229h140v-229q6 -16 22 -28t39 -12q26 0 43 14q16 13 23 29v236q-6 16 -22 39q-14 19 -36 28v100h86q42 -19 75 -58z" />
    <glyph glyph-name="iotadieresis" unicode="&#x3ca;" horiz-adv-x="249" 
d="M198 542v-542h-148v542h148zM17 742q45 0 71 -29v-82q-24 -30 -71 -30q-44 0 -71 30v82q26 29 71 29zM190 734q16 8 43 8q46 0 72 -29v-82q-24 -30 -72 -30q-28 0 -43 9q-14 7 -28 21v82q13 13 28 21z" />
    <glyph glyph-name="upsilondieresis" unicode="&#x3cb;" horiz-adv-x="557" 
d="M510 110q-23 -47 -81 -86q-59 -39 -150 -39q-93 0 -151 40q-59 39 -81 85v432h148v-396q9 -15 31 -27q20 -13 53 -13q31 0 53 13q21 13 30 27v396h148v-432zM170 742q45 0 71 -29v-82q-24 -30 -71 -30q-44 0 -71 30v82q26 29 71 29zM343 734q16 8 43 8q46 0 72 -29v-82
q-24 -30 -72 -30q-28 0 -43 9q-14 7 -28 21v82q13 13 28 21z" />
    <glyph glyph-name="omicrontonos" unicode="&#x3cc;" horiz-adv-x="561" 
d="M126 516q61 41 155 41q95 0 156 -41q60 -43 82 -95v-300q-23 -53 -82 -94q-60 -42 -156 -42q-95 0 -155 42q-60 39 -83 94v300q23 54 83 95zM224 116q24 -15 57 -15t57 15q24 13 33 35v240q-9 21 -33 36t-57 15t-57 -15t-33 -36v-240q9 -22 33 -35zM414 766v-64l-80 -102
h-111v15l54 151h137z" />
    <glyph glyph-name="upsilontonos" unicode="&#x3cd;" horiz-adv-x="557" 
d="M510 110q-23 -47 -81 -86q-59 -39 -150 -39q-93 0 -151 40q-59 39 -81 85v432h148v-396q9 -15 31 -27q20 -13 53 -13q31 0 53 13q21 13 30 27v396h148v-432zM412 766v-64l-80 -102h-111v15l54 151h137z" />
    <glyph glyph-name="omegatonos" unicode="&#x3ce;" horiz-adv-x="776" 
d="M688 487q30 -38 46 -83v-291q-10 -28 -34 -55q-28 -31 -64 -49q-40 -21 -90 -21q-103 0 -158 67q-25 -30 -65 -49q-39 -18 -92 -18q-51 0 -90 21q-38 18 -64 49q-24 27 -34 55v291q13 42 46 83q33 39 75 58h85v-100q-22 -10 -35 -28q-16 -21 -23 -39v-236q8 -16 24 -29
q17 -14 42 -14q23 0 40 12t21 28v229h140v-229q6 -16 22 -28t39 -12q26 0 43 14q16 13 23 29v236q-6 16 -22 39q-14 19 -36 28v100h86q42 -19 75 -58zM522 766v-64l-80 -102h-111v15l54 151h137z" />
    <glyph glyph-name="uni0401" unicode="&#x401;" horiz-adv-x="535" 
d="M490 700v-122h-272v-159h254v-122h-254v-175h279v-122h-439v700h432zM169 886q48 0 71 -29v-77q-20 -29 -71 -29q-45 0 -71 29v77q26 29 71 29zM385 886q46 0 72 -29v-77q-23 -29 -72 -29q-45 0 -71 29v77q26 29 71 29z" />
    <glyph glyph-name="uni0402" unicode="&#x402;" horiz-adv-x="714" 
d="M596 418q58 -31 84 -76v-234q-27 -46 -83 -76q-59 -32 -144 -32h-38v116q40 0 67 13q27 12 38 29v133q-12 17 -37 30q-26 12 -64 12q-32 0 -58 -9q-29 -11 -44 -25v-299h-160v578h-132v122h469v-122h-177v-161q55 33 135 33q85 0 144 -32z" />
    <glyph glyph-name="uni0403" unicode="&#x403;" horiz-adv-x="516" 
d="M491 700v-122h-273v-578h-160v700h433zM251 907h135v-64l-80 -96h-108v15z" />
    <glyph glyph-name="uni0404" unicode="&#x404;" horiz-adv-x="615" 
d="M418 464v65q-11 28 -37 44q-29 17 -68 17q-38 0 -66 -17q-27 -16 -39 -44v-113h206v-117h-206v-128q11 -27 39 -43q27 -18 66 -18q38 0 66 17q27 16 39 44v74h155v-118q-28 -55 -92 -99q-62 -43 -168 -43q-105 0 -172 47t-93 107v423q26 60 93 107q64 46 172 46
q106 0 168 -43q65 -45 92 -98v-110h-155z" />
    <glyph glyph-name="uni0405" unicode="&#x405;" horiz-adv-x="595" 
d="M196 225v-61q10 -22 37 -38q26 -16 65 -16q38 0 63 16q27 18 38 38v71q-9 17 -27 31q-20 12 -56 21l-52 11q-100 22 -150 54q-49 31 -73 72v157q29 51 90 93q62 41 167 41q103 0 166 -42q62 -42 89 -92v-98h-154v54q-10 21 -36 38q-27 15 -65 15q-39 0 -65 -16
q-27 -16 -37 -37v-58q10 -18 28 -29q18 -12 57 -21l50 -13q101 -22 150 -54q49 -31 72 -73v-170q-29 -52 -90 -92q-61 -42 -165 -42t-166 42q-63 41 -91 92v106h155z" />
    <glyph glyph-name="uni0406" unicode="&#x406;" horiz-adv-x="275" 
d="M218 700v-700h-160v700h160z" />
    <glyph glyph-name="uni0407" unicode="&#x407;" horiz-adv-x="275" 
d="M37 881q45 0 71 -29v-75q-23 -29 -71 -29q-45 0 -71 29v75q26 29 71 29zM239 881q46 0 72 -29v-75q-23 -29 -72 -29q-45 0 -71 29v75q26 29 71 29zM218 700v-700h-160v700h160z" />
    <glyph glyph-name="uni0408" unicode="&#x408;" horiz-adv-x="387" 
d="M66 121q40 0 68 15t38 42v522h160v-561q-64 -141 -254 -141q-28 0 -58 2v121h46z" />
    <glyph glyph-name="uni0409" unicode="&#x409;" horiz-adv-x="981" 
d="M859 415q55 -31 87 -85v-211q-25 -49 -80 -84q-56 -35 -126 -35h-297v581h-138l-57 -496q-32 -52 -83 -70q-50 -19 -145 -19v122q31 0 55 12q23 12 32 30l63 540h433v-254h135q65 0 121 -31zM799 279q-12 20 -36 34q-25 13 -54 13h-106v-207h102q65 0 94 50v110z" />
    <glyph glyph-name="uni040A" unicode="&#x40a;" horiz-adv-x="965" 
d="M842 415q55 -31 87 -85v-211q-27 -49 -80 -84q-55 -35 -126 -35h-296v327h-209v-327h-160v700h160v-254h209v254h160v-254h135q65 0 120 -31zM782 279q-10 20 -35 34q-25 13 -54 13h-106v-207h102q67 0 93 50v110z" />
    <glyph glyph-name="uni040B" unicode="&#x40b;" horiz-adv-x="685" 
d="M561 402q55 -31 87 -85v-317h-147v265q-12 20 -36 34q-25 13 -54 13h-94v-312h-160v578h-132v122h469v-122h-177v-145h123q66 0 121 -31z" />
    <glyph glyph-name="uni040C" unicode="&#x40c;" horiz-adv-x="597" 
d="M569 89v-89h-132l-166 302h-60v-302h-160v700h160v-276h59l169 276h123v-89l-162 -241zM292 907h135v-64l-80 -96h-108v15z" />
    <glyph glyph-name="uni040E" unicode="&#x40e;" horiz-adv-x="574" 
d="M223 882v-28q4 -11 22 -22q17 -11 43 -11q27 0 44 11t21 22v28h108v-51q-19 -40 -63 -64q-43 -25 -110 -25q-66 0 -109 25q-45 25 -64 64v51h108zM548 700v-89l-213 -542q-37 -43 -82 -59q-48 -17 -113 -17q-35 0 -59 6v114q22 -2 38 -2q29 0 55 8q23 8 35 21l15 43
l-193 428v89h135l124 -327h18l115 327h125z" />
    <glyph glyph-name="uni040F" unicode="&#x40f;" horiz-adv-x="644" 
d="M587 700v-700h-198v-128h-134v128h-197v700h160v-578h209v578h160z" />
    <glyph glyph-name="uni0410" unicode="&#x410;" horiz-adv-x="628" 
d="M603 89v-89h-147l-41 163h-217l-42 -163h-131v89l172 611h233zM385 285l-68 272h-18l-70 -272h156z" />
    <glyph glyph-name="uni0411" unicode="&#x411;" horiz-adv-x="594" 
d="M473 408q56 -32 87 -85v-204q-25 -49 -80 -84q-56 -35 -126 -35h-296v700h488v-122h-328v-139h134q66 0 121 -31zM413 271q-10 20 -36 34q-25 13 -54 13h-105v-198h101q65 0 94 50v101z" />
    <glyph glyph-name="uni0412" unicode="&#x412;" horiz-adv-x="601" 
d="M354 700q69 0 122 -35q51 -35 78 -84v-143q-10 -19 -32 -39q-24 -22 -44 -33q21 -10 47 -31q22 -19 36 -41v-175q-27 -49 -81 -83q-54 -36 -126 -36h-296v700h296zM372 426q21 11 35 33v73q-13 24 -35 37t-54 13h-100v-169h105q27 0 49 13zM414 168v91q-12 19 -36 33
q-25 13 -54 13h-106v-187h102q65 0 94 50z" />
    <glyph glyph-name="uni0413" unicode="&#x413;" horiz-adv-x="516" 
d="M491 700v-122h-273v-578h-160v700h433z" />
    <glyph glyph-name="uni0414" unicode="&#x414;" horiz-adv-x="718" 
d="M692 122v-251h-135v129h-399v-129h-135v251q28 7 58 28q29 20 39 42l60 508h432v-578h80zM452 122v456h-140l-46 -409q-15 -24 -33 -37v-10h219z" />
    <glyph glyph-name="uni0415" unicode="&#x415;" horiz-adv-x="535" 
d="M490 700v-122h-272v-159h254v-122h-254v-175h279v-122h-439v700h432z" />
    <glyph glyph-name="uni0416" unicode="&#x416;" horiz-adv-x="886" 
d="M857 89v-89h-132l-144 302h-62v-302h-151v302h-64l-144 -302h-132v89l145 285l-138 237v89h123l146 -276h64v276h151v-276h63l146 276h123v-89l-139 -238z" />
    <glyph glyph-name="uni0417" unicode="&#x417;" horiz-adv-x="598" 
d="M462 674q62 -42 90 -93v-132q-13 -23 -36 -49q-21 -24 -57 -44q35 -18 57 -43q23 -26 36 -49v-145q-30 -53 -91 -93q-62 -41 -165 -41q-104 0 -165 42q-63 41 -91 92v106h155v-64q10 -22 37 -37q25 -16 64 -16q38 0 64 16q27 16 38 37v80q-10 21 -38 40q-29 17 -64 16
h-93v119h93q35 -1 64 16q27 18 38 38v69q-12 21 -38 38q-25 16 -64 16t-64 -16q-27 -16 -37 -38v-56h-155v98q27 50 90 92q61 42 166 42q104 0 166 -41z" />
    <glyph glyph-name="uni0418" unicode="&#x418;" horiz-adv-x="668" 
d="M462 0v450h-19l-215 -450h-170v700h148v-450h19l215 450h170v-700h-148z" />
    <glyph glyph-name="uni0419" unicode="&#x419;" horiz-adv-x="668" 
d="M462 0v450h-19l-215 -450h-170v700h148v-450h19l215 450h170v-700h-148zM269 882v-28q4 -11 22 -22q17 -11 43 -11q27 0 44 11t21 22v28h108v-51q-19 -40 -63 -64q-43 -25 -110 -25q-66 0 -109 25q-45 25 -64 64v51h108z" />
    <glyph glyph-name="uni041A" unicode="&#x41a;" horiz-adv-x="597" 
d="M569 89v-89h-132l-166 302h-60v-302h-160v700h160v-276h59l169 276h123v-89l-162 -241z" />
    <glyph glyph-name="uni041B" unicode="&#x41b;" horiz-adv-x="661" 
d="M603 0h-160v581h-138l-57 -496q-32 -52 -83 -70q-50 -19 -145 -19v122q31 0 55 12q23 12 32 30l63 540h433v-700z" />
    <glyph glyph-name="uni041C" unicode="&#x41c;" horiz-adv-x="770" 
d="M269 700l111 -310h18l106 310h209v-700h-149v468h-19l-115 -315h-91l-114 315h-19v-468h-148v700h211z" />
    <glyph glyph-name="uni041D" unicode="&#x41d;" horiz-adv-x="656" 
d="M218 700v-278h220v278h160v-700h-160v300h-220v-300h-160v700h160z" />
    <glyph glyph-name="uni041E" unicode="&#x41e;" horiz-adv-x="626" 
d="M141 669q64 46 172 46q107 0 172 -46q67 -47 93 -107v-423q-26 -60 -92 -107q-67 -47 -173 -47q-105 0 -172 47t-93 107v423q26 60 93 107zM247 128q27 -18 66 -18t67 18q27 17 38 43v358q-11 27 -38 44q-28 17 -67 17q-38 0 -66 -17q-28 -16 -39 -44v-358q11 -27 39 -43
z" />
    <glyph glyph-name="uni041F" unicode="&#x41f;" horiz-adv-x="643" 
d="M426 0v578h-208v-578h-160v700h528v-700h-160z" />
    <glyph glyph-name="uni0420" unicode="&#x420;" horiz-adv-x="592" 
d="M348 700q67 0 122 -31t88 -88v-219q-27 -50 -83 -86q-55 -34 -127 -34h-130v-242h-160v700h290zM367 377q23 12 37 36v117q-13 24 -38 37q-25 12 -55 12h-93v-215h93q31 0 56 13z" />
    <glyph glyph-name="uni0421" unicode="&#x421;" horiz-adv-x="617" 
d="M573 127q-28 -55 -92 -99q-62 -43 -168 -43q-105 0 -172 47t-93 107v423q26 60 93 107q64 46 172 46q106 0 168 -43q65 -45 92 -98v-146h-155v101q-11 28 -37 44q-29 17 -68 17q-38 0 -66 -17q-27 -16 -39 -44v-358q11 -27 39 -43q27 -18 66 -18q38 0 66 17q27 16 39 44
v112h155v-156z" />
    <glyph glyph-name="uni0422" unicode="&#x422;" horiz-adv-x="538" 
d="M25 578v122h488v-122h-163v-578h-160v578h-165z" />
    <glyph glyph-name="uni0423" unicode="&#x423;" horiz-adv-x="579" 
d="M548 700v-89l-213 -542q-37 -43 -82 -59q-48 -17 -113 -17q-35 0 -59 6v114q22 -2 38 -2q29 0 55 8q23 8 35 21l15 43l-193 428v89h135l124 -327h18l115 327h125z" />
    <glyph glyph-name="uni0424" unicode="&#x424;" horiz-adv-x="783" 
d="M638 608q67 -40 99 -103v-310q-31 -61 -99 -102q-70 -41 -143 -41h-32v-92h-141v92h-32q-72 0 -142 41q-68 40 -100 102v310q32 63 100 103t142 40h32v92h141v-92h32q75 0 143 -40zM322 175v350h-19q-33 0 -63 -15q-32 -15 -45 -39v-242q14 -23 45 -38q29 -16 63 -16h19z
M590 471q-14 25 -44 39q-32 15 -64 15h-19v-350h19q33 0 64 16q30 14 44 38v242z" />
    <glyph glyph-name="uni0425" unicode="&#x425;" horiz-adv-x="598" 
d="M196 350l-160 261v89h143l117 -234h18l120 234h127v-89l-159 -260l159 -262v-89h-142l-115 234h-19l-119 -234h-130v89z" />
    <glyph glyph-name="uni0426" unicode="&#x426;" horiz-adv-x="691" 
d="M666 122v-251h-135v129h-473v700h160v-578h208v578h160v-578h80z" />
    <glyph glyph-name="uni0427" unicode="&#x427;" horiz-adv-x="633" 
d="M575 700v-700h-160v263q-59 -33 -136 -33q-85 0 -144 32q-58 31 -83 76v362h160v-310q9 -14 37 -29q25 -13 64 -13q31 0 58 9q25 9 44 23v320h160z" />
    <glyph glyph-name="uni0428" unicode="&#x428;" horiz-adv-x="925" 
d="M867 700v-700h-809v700h160v-578h165v578h160v-578h164v578h160z" />
    <glyph glyph-name="uni0429" unicode="&#x429;" horiz-adv-x="973" 
d="M948 122v-251h-135v129h-755v700h160v-578h165v578h160v-578h164v578h160v-578h81z" />
    <glyph glyph-name="uni042A" unicode="&#x42a;" horiz-adv-x="685" 
d="M562 415q55 -31 87 -85v-211q-25 -49 -80 -84t-126 -35h-296v581h-122v119h282v-254h135q65 0 120 -31zM503 279q-12 20 -36 34q-25 13 -54 13h-106v-207h102q65 0 94 50v110z" />
    <glyph glyph-name="uni042B" unicode="&#x42b;" horiz-adv-x="842" 
d="M218 446h121q66 0 121 -31t87 -85v-211q-25 -49 -80 -84q-56 -35 -126 -35h-283v700h160v-254zM784 700v-700h-160v700h160zM400 169v110q-10 20 -36 34q-25 13 -54 13h-92v-207h88q65 0 94 50z" />
    <glyph glyph-name="uni042C" unicode="&#x42c;" horiz-adv-x="596" 
d="M218 446h134q65 0 121 -31q55 -31 87 -85v-211q-25 -49 -80 -84q-56 -35 -126 -35h-296v700h160v-254zM413 169v110q-10 20 -36 34q-25 13 -54 13h-105v-207h101q65 0 94 50z" />
    <glyph glyph-name="uni042D" unicode="&#x42d;" horiz-adv-x="615" 
d="M134 28q-64 44 -92 99v118h154v-74q14 -28 40 -44q28 -17 66 -17t67 18q27 17 38 43v128h-207v117h207v113q-12 28 -39 44q-28 17 -66 17q-39 0 -67 -17q-28 -16 -39 -44v-65h-154v110q27 53 92 98q62 43 168 43q107 0 172 -46q67 -47 93 -107v-423q-26 -60 -93 -107
t-172 -47q-106 0 -168 43z" />
    <glyph glyph-name="uni042E" unicode="&#x42e;" horiz-adv-x="889" 
d="M751 669q64 -47 90 -107v-423q-27 -61 -90 -108q-64 -46 -169 -46q-106 0 -168 46q-63 47 -90 108v158h-106v-297h-160v700h160v-281h106v143q29 62 91 108q61 45 167 45q105 0 169 -46zM681 529q-12 28 -36 44q-26 17 -63 17q-36 0 -62 -17q-25 -16 -36 -44v-358
q13 -28 37 -44q25 -17 61 -17q37 0 63 17q24 16 36 44v358z" />
    <glyph glyph-name="uni042F" unicode="&#x42f;" horiz-adv-x="613" 
d="M556 700v-700h-160v258h-78l-143 -258h-130v89l117 187q-76 29 -116 102v203q32 56 88 88q55 31 121 31h301zM396 579h-105q-32 0 -56 -12q-25 -13 -37 -37v-106q12 -24 36 -36q23 -13 57 -13h105v204z" />
    <glyph glyph-name="uni0430" unicode="&#x430;" horiz-adv-x="557" 
d="M428 516q60 -43 82 -95v-421h-143v39q-59 -54 -147 -54q-76 0 -119 28q-44 26 -61 56v162q16 32 61 63q44 29 119 29q84 0 142 -47v115q-10 21 -34 37q-23 14 -56 14q-31 0 -52 -12q-19 -11 -31 -26v-37h-137v86q26 36 77 70q52 34 143 34q95 0 156 -41zM325 96
q23 10 37 29v59q-14 19 -37 29q-27 11 -59 11q-31 0 -50 -10q-22 -11 -30 -22v-72q10 -14 30 -24q20 -11 50 -11q32 0 59 11z" />
    <glyph glyph-name="uni0431" unicode="&#x431;" horiz-adv-x="552" 
d="M445 434q46 -40 67 -92v-221q-25 -54 -81 -95q-54 -41 -151 -41q-94 0 -153 42q-58 40 -81 94v418q26 44 75 77q52 33 137 49q69 13 99 23q26 9 41 27h101v-110q-29 -24 -69 -36q-37 -12 -109 -22q-106 -13 -138 -53v-71q59 51 137 51q79 0 125 -40zM364 310
q-9 21 -33 36q-26 14 -60 14q-26 0 -50 -8q-25 -9 -38 -25v-177q10 -22 34 -36q22 -15 56 -15q33 0 58 15q24 15 33 36v160z" />
    <glyph glyph-name="uni0432" unicode="&#x432;" horiz-adv-x="539" 
d="M50 542h279q55 0 97 -27q40 -27 66 -65v-119q-7 -13 -26 -27t-38 -23q50 -20 68 -51v-137q-25 -39 -67 -65q-43 -28 -100 -28h-279v542zM288 320q25 0 42 10q18 9 27 24v49q-23 36 -73 36h-92v-119h96zM284 104q32 0 48 9q18 10 28 27v53q-7 14 -27 25q-19 10 -45 10h-96
v-124h92z" />
    <glyph glyph-name="uni0433" unicode="&#x433;" horiz-adv-x="451" 
d="M425 542v-109h-227v-433h-148v542h375z" />
    <glyph glyph-name="uni0434" unicode="&#x434;" horiz-adv-x="629" 
d="M15 109q27 7 53 26q26 17 35 37l44 370h385v-433h75v-227h-125v118h-342v-118h-125v227zM384 109v324h-114l-31 -282q-10 -19 -30 -34v-8h175z" />
    <glyph glyph-name="uni0435" unicode="&#x435;" horiz-adv-x="549" 
d="M191 234v-85q11 -21 34 -36t55 -15t58 15q24 15 33 36v36h138v-83q-23 -41 -79 -79q-58 -38 -150 -38q-95 0 -155 42q-59 40 -82 94v300q23 54 82 95q61 41 155 41t150 -37t79 -80v-206h-318zM224 430q-23 -15 -33 -37v-72h180v72q-9 22 -33 37q-25 14 -58 14t-56 -14z
" />
    <glyph glyph-name="uni0436" unicode="&#x436;" horiz-adv-x="766" 
d="M27 81l110 210l-104 171v80h111l119 -210h50v210h141v-210h49l118 210h112v-80l-105 -173l112 -208v-81h-120l-116 223h-50v-223h-141v223h-51l-116 -223h-119v81z" />
    <glyph glyph-name="uni0437" unicode="&#x437;" horiz-adv-x="528" 
d="M418 275q49 -28 68 -64v-118q-28 -42 -81 -75t-143 -33q-93 0 -145 34q-54 35 -79 74v86h142v-41q11 -17 32 -29q19 -13 50 -13q30 0 52 13q22 14 29 29v51q-7 14 -28 27q-22 11 -52 11h-72v96h72q31 0 51 11q21 11 29 26v45q-7 15 -29 29q-22 12 -52 12t-51 -12
q-23 -14 -31 -29v-37h-142v82q22 38 78 73q53 34 146 34q91 0 145 -33q55 -36 79 -74v-111q-23 -39 -68 -64z" />
    <glyph glyph-name="uni0438" unicode="&#x438;" horiz-adv-x="592" 
d="M403 0v331h-15l-181 -331h-157v542h138v-331h16l180 331h158v-542h-139z" />
    <glyph glyph-name="uni0439" unicode="&#x439;" horiz-adv-x="592" 
d="M403 0v331h-15l-181 -331h-157v542h138v-331h16l180 331h158v-542h-139zM231 738v-28q5 -11 22 -22t43 -11q27 0 44 11t21 22v28h108v-50q-20 -41 -63 -65q-44 -24 -110 -24t-109 25q-45 25 -64 64v50h108z" />
    <glyph glyph-name="uni043A" unicode="&#x43a;" horiz-adv-x="528" 
d="M507 0h-118l-140 223h-51v-223h-148v542h148v-210h50l146 210h106v-80l-132 -177l139 -204v-81z" />
    <glyph glyph-name="uni043B" unicode="&#x43b;" horiz-adv-x="576" 
d="M525 0h-148v433h-113l-40 -355q-30 -48 -74 -64q-46 -18 -135 -18v112q28 0 49 12q22 11 29 27l47 395h385v-542z" />
    <glyph glyph-name="uni043C" unicode="&#x43c;" horiz-adv-x="682" 
d="M245 542l91 -225h17l87 225h192v-542h-139v344h-16l-99 -229h-75l-99 229h-16v-344h-138v542h195z" />
    <glyph glyph-name="uni043D" unicode="&#x43d;" horiz-adv-x="588" 
d="M198 542v-208h191v208h149v-542h-149v225h-191v-225h-148v542h148z" />
    <glyph glyph-name="uni043E" unicode="&#x43e;" horiz-adv-x="561" 
d="M126 516q61 41 155 41q95 0 156 -41q60 -43 82 -95v-300q-23 -53 -82 -94q-60 -42 -156 -42q-95 0 -155 42q-60 39 -83 94v300q23 54 83 95zM224 116q24 -15 57 -15t57 15q24 13 33 35v240q-9 21 -33 36t-57 15t-57 -15t-33 -36v-240q9 -22 33 -35z" />
    <glyph glyph-name="uni043F" unicode="&#x43f;" horiz-adv-x="566" 
d="M368 0v433h-170v-433h-148v542h466v-542h-148z" />
    <glyph glyph-name="uni0440" unicode="&#x440;" horiz-adv-x="560" 
d="M454 517q44 -36 64 -85v-321q-20 -49 -64 -85q-47 -38 -120 -38q-82 0 -137 51v-205h-148v708h143v-44q56 56 142 56q74 0 120 -37zM369 397q-9 14 -30 28q-22 13 -54 13q-29 0 -51 -9q-24 -10 -37 -24v-267q13 -14 37 -24q21 -10 52 -10t53 13q21 14 30 28v252z" />
    <glyph glyph-name="uni0441" unicode="&#x441;" horiz-adv-x="545" 
d="M125 516q61 41 155 41t150 -37t79 -80v-110h-138v61q-9 21 -33 36q-25 15 -58 15q-32 0 -55 -15t-34 -36v-240q11 -22 33 -35q22 -15 56 -15q32 0 58 15q24 13 33 35v62h138v-111q-24 -43 -79 -79q-58 -38 -150 -38q-95 0 -155 42q-59 40 -82 94v300q23 54 82 95z" />
    <glyph glyph-name="uni0442" unicode="&#x442;" horiz-adv-x="488" 
d="M25 433v109h438v-109h-144v-433h-149v433h-145z" />
    <glyph glyph-name="uni0443" unicode="&#x443;" horiz-adv-x="533" 
d="M502 542v-80l-184 -554q-29 -34 -78 -56q-48 -22 -116 -22q-26 0 -48 3q-26 3 -36 7v102l51 -2q34 0 58 10t38 24l10 34l-168 452v82h141l89 -334h17l96 334h130z" />
    <glyph glyph-name="uni0444" unicode="&#x444;" horiz-adv-x="776" 
d="M672 517q46 -38 62 -81v-330q-16 -43 -62 -81q-46 -37 -115 -37q-51 0 -98 26v-172h-141v173q-45 -27 -99 -27q-70 0 -114 37q-45 36 -62 81v330q17 45 62 81q44 37 114 37q59 0 99 -28v174h141v-173q41 27 98 27q69 0 115 -37zM318 116v310q-25 14 -53 14t-47 -11
q-19 -10 -27 -25v-266q8 -14 26 -24q19 -11 47 -11q32 0 54 13zM586 404q-10 15 -27 25q-19 11 -47 11q-30 0 -53 -13v-311q23 -13 53 -13q28 0 48 11q19 11 26 24v266z" />
    <glyph glyph-name="uni0445" unicode="&#x445;" horiz-adv-x="514" 
d="M153 273l-122 188v81h130l91 -183h9l93 183h129v-81l-123 -188l123 -192v-81h-131l-91 183h-9l-94 -183h-127v81z" />
    <glyph glyph-name="uni0446" unicode="&#x446;" horiz-adv-x="612" 
d="M590 109v-227h-125v118h-415v542h148v-433h170v433h148v-433h74z" />
    <glyph glyph-name="uni0447" unicode="&#x447;" horiz-adv-x="546" 
d="M496 542v-542h-149v195q-42 -19 -101 -19q-75 0 -123 24q-49 22 -76 60v282h148v-224q25 -31 83 -31q41 0 69 16v239h149z" />
    <glyph glyph-name="uni0448" unicode="&#x448;" horiz-adv-x="815" 
d="M764 542v-542h-714v542h148v-433h135v433h148v-433h135v433h148z" />
    <glyph glyph-name="uni0449" unicode="&#x449;" horiz-adv-x="863" 
d="M838 109v-227h-125v118h-663v542h148v-433h135v433h148v-433h135v433h148v-433h74z" />
    <glyph glyph-name="uni044A" unicode="&#x44a;" horiz-adv-x="618" 
d="M515 337q42 -25 71 -67v-177q-29 -44 -72 -68q-43 -25 -92 -25h-283v434h-114v108h262v-180h132q53 0 96 -25zM446 217q-9 15 -28 27q-20 11 -46 11h-85v-148h85q24 0 44 11t30 26v73z" />
    <glyph glyph-name="uni044B" unicode="&#x44b;" horiz-adv-x="755" 
d="M50 542h148v-180h125q53 0 96 -25q42 -25 71 -67v-177q-29 -44 -72 -68q-43 -25 -92 -25h-276v542zM556 542h148v-542h-148v542zM276 107q23 0 43 11t31 26v73q-9 15 -28 27q-20 11 -46 11h-77v-148h77z" />
    <glyph glyph-name="uni044C" unicode="&#x44c;" horiz-adv-x="530" 
d="M198 542v-180h133q53 0 96 -25q42 -25 71 -67v-177q-29 -44 -72 -68q-43 -25 -92 -25h-284v542h148zM199 107h85q23 0 43 11t31 26v73q-11 16 -28 27q-20 11 -46 11h-85v-148z" />
    <glyph glyph-name="uni044D" unicode="&#x44d;" horiz-adv-x="549" 
d="M39 446q25 43 82 77q56 34 149 34q94 0 153 -37q61 -38 83 -84v-329q-22 -46 -83 -84q-60 -38 -153 -38q-94 0 -148 35q-58 35 -83 76v91h143v-42q9 -19 33 -33q25 -14 55 -14t55 14t33 32v81h-172v97h172v76q-7 19 -32 33q-23 13 -56 13q-32 0 -55 -13q-24 -13 -33 -33
v-39h-143v87z" />
    <glyph glyph-name="uni044E" unicode="&#x44e;" horiz-adv-x="806" 
d="M682 516q60 -43 82 -95v-300q-23 -53 -82 -94q-60 -42 -156 -42q-95 0 -155 42q-60 41 -83 94v101h-90v-222h-148v542h148v-211h90v90q23 53 83 95q61 41 155 41q95 0 156 -41zM616 394q-9 21 -33 36q-25 14 -57 14q-33 0 -56 -14q-23 -15 -34 -36v-246q11 -22 34 -35
q22 -15 56 -15q33 0 57 15q24 13 33 35v246z" />
    <glyph glyph-name="uni044F" unicode="&#x44f;" horiz-adv-x="556" 
d="M506 542v-542h-148v186h-70l-122 -186h-121v80l96 121q-55 23 -93 78v171q27 42 72 68q42 24 91 24h295zM358 433h-95q-24 0 -43 -10q-21 -11 -31 -26v-68q10 -16 28 -26q19 -12 46 -12h95v142z" />
    <glyph glyph-name="uni0451" unicode="&#x451;" horiz-adv-x="549" 
d="M191 234v-85q11 -21 34 -36t55 -15t58 15q24 15 33 36v36h138v-83q-23 -41 -79 -79q-58 -38 -150 -38q-95 0 -155 42q-59 40 -82 94v300q23 54 82 95q61 41 155 41t150 -37t79 -80v-206h-318zM224 430q-23 -15 -33 -37v-72h180v72q-9 22 -33 37q-25 14 -58 14t-56 -14z
M176 745q45 0 71 -29v-82q-24 -30 -71 -30q-44 0 -71 30v82q26 29 71 29zM349 737q16 8 43 8q46 0 72 -29v-82q-24 -30 -72 -30q-28 0 -43 9q-14 7 -28 21v82q13 13 28 21z" />
    <glyph glyph-name="uni0452" unicode="&#x452;" horiz-adv-x="575" 
d="M464 493q44 -37 63 -85v-441q-23 -54 -82 -95q-61 -41 -155 -41v111q34 0 57 16q23 17 32 42v374q-9 14 -30 28q-23 12 -54 12q-29 0 -51 -9q-25 -12 -37 -25v-380h-148v575h-40v78h40v47h148v-47h155v-78h-155v-94q56 50 137 50q73 0 120 -38z" />
    <glyph glyph-name="uni0453" unicode="&#x453;" horiz-adv-x="451" 
d="M425 542v-109h-227v-433h-148v542h375zM216 767h139v-63l-80 -100h-112v15z" />
    <glyph glyph-name="uni0454" unicode="&#x454;" horiz-adv-x="549" 
d="M367 359v39q-9 20 -33 33q-23 13 -55 13q-33 0 -56 -13q-25 -14 -32 -33v-76h172v-97h-172v-81q8 -18 33 -32t55 -14t55 14q24 14 33 33v42h143v-91q-24 -40 -82 -76q-55 -35 -149 -35t-152 38q-61 37 -84 84v329q22 46 83 84q59 37 153 37q92 0 150 -34q57 -34 81 -77
v-87h-143z" />
    <glyph glyph-name="uni0455" unicode="&#x455;" horiz-adv-x="518" 
d="M176 174v-43q10 -17 33 -27q22 -11 50 -11t52 11q20 10 31 27v47q-14 24 -68 35l-56 12q-78 15 -120 40q-45 26 -59 50v138q25 36 79 71q52 33 141 33t141 -33q50 -31 80 -71v-81h-138v39q-11 17 -31 27q-24 11 -52 11q-27 0 -51 -11q-21 -10 -32 -27v-41q13 -22 69 -34
l55 -12q79 -17 120 -41q44 -26 60 -49v-145q-26 -38 -78 -71q-54 -33 -143 -33t-141 34q-54 33 -79 70v85h137z" />
    <glyph glyph-name="uni0456" unicode="&#x456;" horiz-adv-x="249" 
d="M198 542v-542h-148v542h148zM74 734q20 12 50 12q32 0 52 -12q19 -12 27 -29v-60q-7 -16 -27 -28t-52 -12q-30 0 -50 12q-22 13 -29 28v60q7 15 29 29z" />
    <glyph glyph-name="uni0457" unicode="&#x457;" horiz-adv-x="289" 
d="M2 736q16 8 43 8q46 0 72 -29v-80q-26 -29 -72 -29q-28 0 -43 9q-15 7 -28 20v80q13 13 28 21zM200 736q16 8 43 8q46 0 72 -29v-80q-26 -29 -72 -29q-28 0 -43 9q-15 7 -28 20v80q13 13 28 21zM218 542v-542h-148v542h148z" />
    <glyph glyph-name="uni0458" unicode="&#x458;" horiz-adv-x="247" 
d="M16 -42q22 16 33 42v542h148v-577q-23 -54 -82 -95q-61 -42 -156 -42v114q34 0 57 16zM74 734q20 12 50 12q32 0 52 -12q19 -12 27 -29v-60q-7 -16 -27 -28t-52 -12q-30 0 -50 12q-22 13 -29 28v60q7 15 29 29z" />
    <glyph glyph-name="uni0459" unicode="&#x459;" horiz-adv-x="857" 
d="M754 337q42 -25 71 -67v-177q-29 -44 -72 -68q-43 -25 -92 -25h-284v433h-113l-40 -355q-30 -48 -74 -64q-46 -18 -135 -18v112q28 0 49 12q22 11 29 27l47 395h385v-180h133q53 0 96 -25zM685 217q-9 15 -28 27q-20 11 -46 11h-85v-148h85q23 0 43 11t31 26v73z" />
    <glyph glyph-name="uni045A" unicode="&#x45a;" horiz-adv-x="852" 
d="M751 333q43 -25 71 -68v-172q-29 -44 -72 -68q-43 -25 -92 -25h-282v250h-178v-250h-148v542h148v-183h178v183h149v-184h130q53 0 96 -25zM682 213q-9 15 -28 27q-20 11 -46 11h-83v-144h83q23 0 43 11t31 26v69z" />
    <glyph glyph-name="uni045B" unicode="&#x45b;" horiz-adv-x="574" 
d="M59 653v47h148v-47h155v-78h-155v-94q56 50 137 50q73 0 120 -38q44 -37 63 -85v-408h-148v374q-9 14 -30 28q-23 12 -54 12q-29 0 -51 -9q-25 -12 -37 -25v-380h-148v575h-40v78h40z" />
    <glyph glyph-name="uni045C" unicode="&#x45c;" horiz-adv-x="528" 
d="M507 0h-118l-140 223h-51v-223h-148v542h148v-210h50l146 210h106v-80l-132 -177l139 -204v-81zM254 767h139v-63l-80 -100h-112v15z" />
    <glyph glyph-name="uni045E" unicode="&#x45e;" horiz-adv-x="533" 
d="M502 542v-80l-184 -554q-29 -34 -78 -56q-48 -22 -116 -22q-26 0 -48 3q-26 3 -36 7v102l51 -2q34 0 58 10t38 24l10 34l-168 452v82h141l89 -334h17l96 334h130zM198 738v-28q5 -11 22 -22t43 -11q27 0 44 11t21 22v28h108v-50q-20 -41 -63 -65t-110 -24q-66 0 -109 25
q-45 25 -64 64v50h108z" />
    <glyph glyph-name="uni045F" unicode="&#x45f;" horiz-adv-x="572" 
d="M522 0h-173v-118h-125v118h-174v542h148v-433h175v433h149v-542z" />
    <glyph glyph-name="uni0490" unicode="&#x490;" horiz-adv-x="501" 
d="M342 700v114h134v-236h-258v-578h-160v700h284z" />
    <glyph glyph-name="uni0491" unicode="&#x491;" horiz-adv-x="458" 
d="M304 542v86h124v-195h-230v-433h-148v542h254z" />
    <glyph glyph-name="Wgrave" unicode="&#x1e80;" horiz-adv-x="926" 
d="M31 700h152l81 -488h18l109 488h143l110 -488h18l80 488h153v-89l-120 -611h-213l-96 400h-18l-95 -400h-202l-120 611v89zM334 907h133l54 -145v-15h-108l-79 96v64z" />
    <glyph glyph-name="wgrave" unicode="&#x1e81;" horiz-adv-x="798" 
d="M31 542h141l68 -377h18l82 377h135l81 -377h17l70 377h127v-81l-113 -461h-176l-72 300h-14l-72 -300h-179l-113 461v81zM263 765h138l54 -148v-15h-111l-81 99v64z" />
    <glyph glyph-name="Wacute" unicode="&#x1e82;" horiz-adv-x="926" 
d="M31 700h152l81 -488h18l109 488h143l110 -488h18l80 488h153v-89l-120 -611h-213l-96 400h-18l-95 -400h-202l-120 611v89zM456 907h135v-64l-80 -96h-108v15z" />
    <glyph glyph-name="wacute" unicode="&#x1e83;" horiz-adv-x="798" 
d="M31 542h141l68 -377h18l82 377h135l81 -377h17l70 377h127v-81l-113 -461h-176l-72 300h-14l-72 -300h-179l-113 461v81zM389 767h139v-63l-80 -100h-112v15z" />
    <glyph glyph-name="Wdieresis" unicode="&#x1e84;" horiz-adv-x="926" 
d="M31 700h152l81 -488h18l109 488h143l110 -488h18l80 488h153v-89l-120 -611h-213l-96 400h-18l-95 -400h-202l-120 611v89zM355 886q48 0 71 -29v-77q-20 -29 -71 -29q-45 0 -71 29v77q26 29 71 29zM571 886q46 0 72 -29v-77q-23 -29 -72 -29q-45 0 -71 29v77
q26 29 71 29z" />
    <glyph glyph-name="wdieresis" unicode="&#x1e85;" horiz-adv-x="798" 
d="M31 542h141l68 -377h18l82 377h135l81 -377h17l70 377h127v-81l-113 -461h-176l-72 300h-14l-72 -300h-179l-113 461v81zM290 742q45 0 71 -29v-82q-24 -30 -71 -30q-44 0 -71 30v82q26 29 71 29zM463 734q16 8 43 8q46 0 72 -29v-82q-24 -30 -72 -30q-28 0 -43 9
q-14 7 -28 21v82q13 13 28 21z" />
    <glyph glyph-name="Ygrave" unicode="&#x1ef2;" horiz-adv-x="581" 
d="M27 611v89h147l115 -239h18l115 239h132v-89l-187 -335v-276h-161v292zM161 907h133l54 -145v-15h-108l-79 96v64z" />
    <glyph glyph-name="ygrave" unicode="&#x1ef3;" horiz-adv-x="533" 
d="M502 542v-80l-184 -554q-29 -34 -78 -56q-48 -22 -116 -22q-26 0 -48 3q-26 3 -36 7v102l51 -2q34 0 58 10t38 24l10 34l-168 452v82h141l89 -334h17l96 334h130zM127 765h138l54 -148v-15h-111l-81 99v64z" />
    <glyph glyph-name="endash" unicode="&#x2013;" horiz-adv-x="567" 
d="M532 393v-117h-497v117h497z" />
    <glyph glyph-name="emdash" unicode="&#x2014;" horiz-adv-x="867" 
d="M832 393v-117h-797v117h797z" />
    <glyph glyph-name="quoteleft" unicode="&#x2018;" horiz-adv-x="225" 
d="M164 586q22 -15 28 -29v-79q-7 -15 -28 -28q-19 -13 -50 -13q-33 0 -52 13q-21 12 -28 28v163q7 23 37 48q29 24 69 24h38v-63h-29q-9 0 -20 -6q-11 -8 -15 -16v-30q29 0 50 -12z" />
    <glyph glyph-name="quoteright" unicode="&#x2019;" horiz-adv-x="225" 
d="M165 703q20 -14 27 -29v-163q-8 -24 -36 -48q-29 -24 -70 -24h-38v63h29q11 0 21 7q9 5 14 15v30q-30 0 -49 13q-22 13 -29 28v79q6 14 28 29q20 12 50 12q32 0 53 -12z" />
    <glyph glyph-name="quotesinglbase" unicode="&#x201a;" horiz-adv-x="225" 
d="M165 135q20 -14 27 -29v-163q-8 -24 -36 -48q-29 -24 -70 -24h-38v63h29q11 0 21 6q9 7 14 16v30q-30 0 -49 12q-22 14 -29 29v79q6 14 28 29q20 12 50 12q32 0 53 -12z" />
    <glyph glyph-name="quotedblleft" unicode="&#x201c;" horiz-adv-x="435" 
d="M164 587q22 -15 28 -29v-79q-7 -15 -28 -28q-19 -13 -50 -13q-33 0 -52 13q-21 12 -28 28v163q7 23 37 48q29 24 69 24h38v-63h-29q-9 0 -20 -6q-11 -8 -15 -16v-30q29 0 50 -12zM374 587q22 -15 28 -29v-79q-7 -15 -28 -28q-19 -13 -50 -13q-33 0 -52 13q-21 12 -28 28
v163q7 23 37 48q29 24 69 24h38v-63h-29q-9 0 -20 -6q-11 -8 -15 -16v-30q29 0 50 -12z" />
    <glyph glyph-name="quotedblright" unicode="&#x201d;" horiz-adv-x="435" 
d="M165 703q20 -14 27 -29v-163q-8 -24 -36 -48q-29 -24 -70 -24h-38v63h29q11 0 21 7q9 5 14 15v30q-30 0 -49 13q-22 13 -29 28v79q6 14 28 29q20 12 50 12q32 0 53 -12zM375 703q20 -14 27 -29v-163q-8 -24 -36 -48t-70 -24h-38v63h29q11 0 21 7q9 5 14 15v30
q-30 0 -49 13q-22 13 -29 28v79q6 14 28 29q19 12 50 12q32 0 53 -12z" />
    <glyph glyph-name="quotedblbase" unicode="&#x201e;" horiz-adv-x="436" 
d="M165 135q20 -14 27 -29v-163q-8 -24 -36 -48q-29 -24 -70 -24h-38v63h29q11 0 21 6q9 7 14 16v30q-30 0 -49 12q-22 14 -29 29v79q6 14 28 29q20 12 50 12q32 0 53 -12zM375 135q20 -14 27 -29v-163q-8 -24 -36 -48t-70 -24h-38v63h29q11 0 21 6q9 7 14 16v30
q-30 0 -49 12q-22 14 -29 29v79q6 14 28 29q20 12 50 12q32 0 53 -12z" />
    <glyph glyph-name="dagger" unicode="&#x2020;" horiz-adv-x="644" 
d="M616 478v-132h-96l-124 11l-14 -525h-124l-13 525l-121 -11h-96v132h96l118 -11l-2 89v144h161v-144l-2 -89l121 11h96z" />
    <glyph glyph-name="daggerdbl" unicode="&#x2021;" horiz-adv-x="664" 
d="M408 421l-3 -146l125 12h96v-133h-96l-128 12l-9 -334h-124l-8 334l-127 -12h-96v133h96l124 -12l-4 146l-120 -11h-96v132h96l118 -11l-1 25v144h161v-144l-1 -25l119 11h96v-132h-96z" />
    <glyph glyph-name="bullet" unicode="&#x2022;" horiz-adv-x="351" 
d="M99 459q34 17 75 17t77 -17q34 -16 51 -44v-139q-16 -28 -50 -45q-36 -17 -78 -17q-43 0 -76 18q-34 18 -50 45v138q17 26 51 44z" />
    <glyph glyph-name="ellipsis" unicode="&#x2026;" horiz-adv-x="659" 
d="M61 133q20 12 50 12q32 0 53 -12q20 -14 27 -29v-75q-7 -16 -28 -28q-20 -13 -52 -13q-31 0 -50 13q-21 13 -28 28v75q7 16 28 29zM279 133q19 12 50 12q32 0 53 -12q20 -14 27 -29v-75q-7 -16 -28 -28q-20 -13 -52 -13q-31 0 -50 13q-21 12 -28 28v75q7 16 28 29z
M496 133q20 12 50 12q32 0 53 -12q20 -14 27 -29v-75q-7 -16 -28 -28q-20 -13 -52 -13q-31 0 -50 13q-21 12 -28 28v75q7 16 28 29z" />
    <glyph glyph-name="perthousand" unicode="&#x2030;" horiz-adv-x="1297" 
d="M102 682q43 27 110 27t112 -27q45 -30 58 -65v-181q-15 -36 -59 -64q-43 -27 -111 -27q-66 0 -110 27q-44 28 -59 64v181q15 38 59 65zM660 700h66v-62l-476 -638h-66v62zM174 431q16 -9 38 -9q24 0 40 9q17 8 23 20v151q-6 12 -23 22q-18 8 -40 8q-21 0 -39 -8
q-17 -10 -23 -22v-151q6 -13 24 -20zM585 329q43 27 110 27t111 -27q43 -28 59 -65v-181q-15 -38 -59 -65t-111 -27q-68 0 -111 28q-45 28 -58 64v181q14 36 59 65zM975 329q43 27 110 27t110 -27q43 -28 59 -65v-181q-15 -39 -58 -65q-44 -27 -111 -27q-68 0 -111 28
q-45 28 -58 64v181q14 36 59 65zM656 77q16 -9 39 -9t39 9q17 8 23 21v151q-6 12 -23 22q-18 8 -39 8t-39 -8q-17 -10 -23 -22v-151q6 -13 23 -21zM1046 77q16 -9 39 -9t39 9q17 8 23 21v151q-6 12 -23 22q-18 8 -39 8t-39 -8q-19 -9 -23 -22v-151q4 -13 23 -21z" />
    <glyph glyph-name="guilsinglleft" unicode="&#x2039;" horiz-adv-x="354" 
d="M35 344l173 198h108v-78l-161 -176l161 -177v-79h-108l-173 198v114z" />
    <glyph glyph-name="guilsinglright" unicode="&#x203a;" horiz-adv-x="354" 
d="M199 288l-161 176v78h109l173 -198v-114l-173 -198h-109v79z" />
    <glyph glyph-name="fraction" unicode="&#x2044;" horiz-adv-x="189" 
d="M299 700h66v-62l-475 -638h-67v62z" />
    <glyph glyph-name="uni20A8" unicode="&#x20a8;" horiz-adv-x="514" 
d="M497 626h-105q20 -20 35 -50v-64h70v-74h-70v-51q-25 -52 -76 -85q-53 -35 -110 -39l186 -184v-79h-137l-242 262v94h137q27 0 53 15q25 13 36 40v27h-226v74h226v29q-10 23 -37 39q-26 15 -52 15h-137v105h449v-74z" />
    <glyph glyph-name="Euro" unicode="&#x20ac;" horiz-adv-x="599" 
d="M420 507v41q-9 21 -35 36q-25 15 -59 15t-60 -15t-36 -36v-92h219v-73h-219v-57h219v-74h-219v-99q9 -21 36 -36q26 -15 60 -15t59 15q26 15 35 36v40h142v-92q-11 -22 -42 -49q-31 -28 -79 -47q-51 -20 -115 -20q-66 0 -118 21q-53 21 -84 52q-34 31 -47 61v133h-49v74
h49v57h-49v73h49v126q13 28 47 61q33 30 85 51q51 21 117 21q63 0 114 -20q46 -18 79 -46q28 -24 43 -49v-93h-142z" />
    <glyph glyph-name="uni20BA" unicode="&#x20ba;" horiz-adv-x="589" 
d="M567 253v-138q-12 -23 -42 -48q-31 -28 -80 -47q-51 -20 -115 -20h-241v214l-62 -30v86l62 30v68l-62 -30v85l62 30v247h153v-173l176 86v-85l-176 -86v-68l176 86v-86l-176 -86v-172h88q34 0 60 15t36 36v86h141z" />
    <glyph glyph-name="uni20BD" unicode="&#x20bd;" horiz-adv-x="605" 
d="M482 669q55 -31 88 -88v-189q-28 -51 -83 -85q-55 -33 -127 -33h-130v-59h245v-75h-245v-140h-160v140h-50v75h50v59h-50v104h50v322h290q67 0 122 -31zM416 532q-13 24 -38 37q-26 12 -55 12h-93v-203h93q31 0 56 13q23 12 37 36v105z" />
    <glyph glyph-name="uni2116" unicode="&#x2116;" horiz-adv-x="1018" 
d="M686 676q44 31 121 31q74 0 120 -31q44 -30 65 -73v-161q-19 -40 -65 -72q-47 -32 -120 -32q-74 0 -120 32q-47 32 -66 72v161q21 43 65 73zM236 700l153 -425h17v425h149v-700h-178l-154 424h-17v-424h-148v700h178zM762 435q18 -12 45 -12q26 0 46 12q18 12 27 29v118
q-9 17 -27 29q-20 11 -46 11t-45 -11q-18 -11 -28 -29v-118q10 -18 28 -29zM992 296v-92h-371v92h371z" />
    <glyph glyph-name="uni2117" unicode="&#x2117;" horiz-adv-x="797" 
d="M82 534q50 83 133 132t183 49t185 -49q85 -50 134 -132q49 -83 49 -184t-49 -183q-49 -83 -134 -133q-85 -49 -185 -49t-183 49q-84 49 -133 133q-50 83 -50 183q0 99 50 184zM550 86q68 40 109 111q39 71 39 153t-39 153q-41 71 -109 111q-70 41 -152 41q-83 0 -151 -41
q-69 -40 -108 -111q-40 -70 -40 -153t40 -153q39 -71 108 -111q68 -41 151 -41q82 0 152 41zM449 565q45 0 82 -24q39 -25 56 -64v-128q-17 -39 -56 -64q-37 -24 -82 -24h-92v-133h-105v437h197zM462 348q15 9 24 27v77q-9 17 -24 26q-16 9 -33 9h-72v-148h72q18 0 33 9z
" />
    <glyph glyph-name="trademark" unicode="&#x2122;" horiz-adv-x="806" 
d="M23 700h289v-78h-95v-312h-99v312h-95v78zM762 700v-390h-92v241h-10l-74 -241h-63l-74 241h-11v-241h-92v390h139l67 -219h10l68 219h132z" />
    <glyph glyph-name="uni2154" unicode="&#x2154;" horiz-adv-x="1048" 
d="M231 511q30 23 36 33v62q-7 10 -24 18q-15 7 -39 7q-21 0 -38 -6q-15 -7 -23 -15v-56h-98v90q21 24 58 44q38 21 101 21q66 0 109 -25q45 -27 61 -55v-109q-7 -13 -44 -39l-147 -112v-3h193v-86h-334v78zM737 700h66v-62l-475 -638h-67v62zM769 129v-35q5 -9 24 -17
q18 -8 39 -8q22 0 40 8t23 17v55q-6 13 -22 20q-18 8 -41 8h-61v76h59q20 0 38 8q16 7 23 16v53q-8 8 -23 15q-16 6 -38 6q-20 0 -37 -6q-17 -7 -24 -15v-35h-98v69q16 22 56 44q41 21 103 21q64 0 108 -24q43 -25 59 -53v-90q-7 -9 -24 -22t-42 -22q22 -8 44 -23
q17 -14 27 -29v-95q-16 -29 -60 -54q-42 -26 -110 -26q-65 0 -104 23q-43 23 -57 44v71h98z" />
    <glyph glyph-name="oneeighth" unicode="&#x215b;" horiz-adv-x="1002" 
d="M125 350v263l-70 -4v64l88 27h89v-350h66v-70h-242v70h69zM674 700h66v-62l-475 -638h-67v62zM958 162v-91q-16 -28 -61 -55q-43 -25 -109 -25t-109 25q-45 27 -61 55v91q16 31 59 54q-26 14 -49 39v109q15 21 57 44q41 21 103 21q63 0 102 -21q37 -21 57 -44v-109
q-23 -25 -48 -39q43 -23 59 -54zM727 271q8 -8 24 -14q15 -7 37 -7q23 0 38 7q15 6 22 14v59q-8 8 -22 15q-16 6 -38 6q-21 0 -36 -6q-15 -7 -25 -15v-59zM851 157q-7 11 -24 18q-18 8 -39 8t-39 -8q-17 -7 -24 -18v-63q5 -9 24 -17q18 -8 39 -8q22 0 40 8t23 17v63z" />
    <glyph glyph-name="threeeighths" unicode="&#x215c;" horiz-adv-x="1048" 
d="M142 409v-35q5 -9 24 -17q18 -8 39 -8q22 0 40 8t23 17v55q-6 13 -22 20q-18 8 -41 8h-61v76h59q20 0 38 8q16 7 23 16v53q-8 8 -23 15q-17 6 -38 6q-20 0 -37 -6q-16 -7 -24 -15v-35h-98v69q16 22 56 44q40 21 103 21q65 0 108 -24q43 -25 59 -53v-90q-7 -9 -24 -22
q-17 -12 -42 -22q22 -8 44 -23q17 -14 27 -29v-95q-17 -29 -60 -54q-44 -26 -110 -26q-63 0 -104 23q-43 23 -57 44v71h98zM720 700h66v-62l-475 -638h-67v62zM1004 162v-91q-16 -28 -61 -55q-43 -25 -109 -25t-109 25q-45 27 -61 55v91q16 31 59 54q-26 14 -49 39v109
q15 21 57 44q41 21 103 21q63 0 102 -21q37 -21 57 -44v-109q-23 -25 -48 -39q43 -23 59 -54zM773 271q8 -8 24 -14q15 -7 37 -7q23 0 38 7q15 6 22 14v59q-8 8 -22 15q-16 6 -38 6q-21 0 -36 -6q-15 -7 -25 -15v-59zM897 157q-7 11 -24 18q-18 8 -39 8t-39 -8
q-17 -7 -24 -18v-63q5 -9 24 -17q18 -8 39 -8q22 0 40 8t23 17v63z" />
    <glyph glyph-name="fiveeighths" unicode="&#x215d;" horiz-adv-x="1039" 
d="M322 537q34 -19 46 -45v-154q-17 -23 -56 -45q-40 -22 -105 -22q-63 0 -103 22q-40 21 -58 45v68h98v-32q6 -10 24 -18t39 -8t40 8q17 8 24 18v82q-9 12 -24 19t-39 7q-20 0 -37 -9q-16 -9 -22 -18h-98v245h315v-85h-217v-88q37 28 93 28q46 0 80 -18zM711 700h66v-62
l-475 -638h-67v62zM995 162v-91q-16 -28 -61 -55q-43 -25 -109 -25t-109 25q-45 27 -61 55v91q16 31 59 54q-26 14 -49 39v109q15 21 57 44q40 21 103 21t102 -21q37 -21 57 -44v-109q-22 -25 -48 -39q43 -23 59 -54zM764 271q8 -8 24 -14q15 -7 37 -7q23 0 38 7q15 6 22 14
v59q-8 8 -22 15q-17 6 -38 6t-36 -6q-15 -7 -25 -15v-59zM888 157q-8 11 -24 18q-18 8 -39 8t-39 -8q-16 -7 -24 -18v-63q5 -9 24 -17q18 -8 39 -8q22 0 40 8t23 17v63z" />
    <glyph glyph-name="seveneighths" unicode="&#x215e;" horiz-adv-x="961" 
d="M232 609v6h-205v85h316v-72l-160 -348h-96v61zM633 700h66v-62l-475 -638h-67v62zM917 162v-91q-16 -28 -61 -55q-43 -25 -109 -25t-109 25q-45 27 -61 55v91q16 31 59 54q-26 14 -49 39v109q15 21 57 44q40 21 103 21t102 -21q37 -21 57 -44v-109q-22 -25 -48 -39
q43 -23 59 -54zM686 271q8 -8 24 -14q15 -7 37 -7q23 0 38 7q15 6 22 14v59q-8 8 -22 15q-16 6 -38 6q-21 0 -36 -6q-15 -7 -25 -15v-59zM810 157q-8 11 -24 18q-18 8 -39 8t-39 -8q-16 -7 -24 -18v-63q5 -9 24 -17q18 -8 39 -8q22 0 40 8t23 17v63z" />
    <glyph glyph-name="arrowleft" unicode="&#x2190;" horiz-adv-x="760" 
d="M760 410v-121h-555l207 -198v-91h-100l-312 312v75l312 313h100v-91l-208 -199h556z" />
    <glyph glyph-name="arrowup" unicode="&#x2191;" horiz-adv-x="760" 
d="M118 361h-88v87l313 312h75l312 -312v-87h-88l-192 196v-557h-138v557z" />
    <glyph glyph-name="arrowright" unicode="&#x2192;" horiz-adv-x="760" 
d="M348 609v91h100l312 -313v-75l-312 -312h-100v91l207 198h-555v121h556z" />
    <glyph glyph-name="arrowdown" unicode="&#x2193;" horiz-adv-x="760" 
d="M312 700h138v-557l192 196h88v-87l-312 -312h-75l-313 312v87h88l194 -196v557z" />
    <glyph glyph-name="partialdiff" unicode="&#x2202;" horiz-adv-x="561" 
d="M401 648q88 -57 118 -127v-399q-23 -54 -83 -95q-60 -42 -155 -42t-155 42q-59 40 -84 94v219q10 32 36 63q26 30 67 50q42 20 94 20q45 0 74 -10t58 -30v56q-19 49 -89 93q-70 43 -149 70l75 82q103 -28 193 -86zM224 347q-23 -15 -34 -36v-163q11 -22 34 -35
q24 -15 56 -15t58 15q24 15 33 35v177q-14 16 -36 26q-23 10 -54 10q-32 0 -57 -14z" />
    <glyph glyph-name="product" unicode="&#x220f;" horiz-adv-x="635" 
d="M579 700v-800h-160v682h-202v-682h-160v800h522z" />
    <glyph glyph-name="summation" unicode="&#x2211;" horiz-adv-x="553" 
d="M241 582v-22l134 -209v-101l-134 -210v-22h276v-118h-482v100l184 301l-184 299v100h482v-118h-276z" />
    <glyph glyph-name="minus" unicode="&#x2212;" horiz-adv-x="587" 
d="M552 393v-117h-517v117h517z" />
    <glyph glyph-name="radical" unicode="&#x221a;" horiz-adv-x="593" 
d="M570 700v-79l-180 -621h-193l-123 431h-53v111h167l99 -354h18l133 512h132z" />
    <glyph glyph-name="infinity" unicode="&#x221e;" horiz-adv-x="750" 
d="M602 532q45 -30 58 -65v-254q-13 -36 -58 -64q-43 -28 -111 -28q-69 0 -116 30q-47 -30 -116 -30q-67 0 -110 27q-44 27 -59 65v254q15 38 59 65q43 27 110 27q69 0 116 -30q47 30 116 30q67 0 111 -27zM321 453q-5 12 -21 21q-18 8 -40 8t-40 -8q-17 -9 -23 -21v-226
q6 -12 23 -20q17 -9 40 -9q24 0 40 9q16 7 21 20v226zM553 453q-6 13 -23 21q-18 8 -39 8q-22 0 -40 -8q-17 -9 -23 -21v-226q6 -12 23 -20q17 -9 40 -9q21 0 39 8q17 8 23 21v226z" />
    <glyph glyph-name="integral" unicode="&#x222b;" horiz-adv-x="426" 
d="M64 -70q57 0 74 35v653q16 39 57 68q40 28 113 28q30 0 56 -3q27 -5 41 -9v-99h-44q-59 0 -74 -36v-652q-14 -39 -56 -68q-41 -28 -115 -28q-30 0 -55 3q-27 5 -41 9v99h44z" />
    <glyph glyph-name="approxequal" unicode="&#x2248;" horiz-adv-x="587" 
d="M53 282q19 12 50 22q30 10 69 10q34 0 65 -6q50 -12 76 -20q39 -12 69 -18q27 -7 58 -7q30 0 54 10q27 11 42 22q16 10 16 12v-129q0 -1 -15 -10q-15 -8 -40 -16q-27 -8 -56 -8q-37 0 -66 7q-37 7 -77 19q-24 8 -67 19q-30 6 -61 6q-34 0 -65 -11q-33 -13 -50 -25
q-21 -13 -21 -15v124q0 1 19 14zM53 497q19 12 50 22q30 10 69 10q34 0 65 -6q50 -12 76 -20q39 -12 69 -18q27 -7 58 -7q30 0 54 10q27 11 42 22q16 10 16 12v-129q0 -1 -15 -10q-15 -8 -40 -16q-27 -8 -56 -8q-37 0 -66 7q-37 7 -77 19q-24 8 -67 19q-30 6 -61 6
q-34 0 -65 -11q-33 -13 -50 -25q-21 -14 -21 -15v124q0 1 19 14z" />
    <glyph glyph-name="notequal" unicode="&#x2260;" horiz-adv-x="587" 
d="M372 383l-37 -96h217v-118h-263l-36 -94h-120l36 94h-134v118h180l37 96h-217v117h262l36 93h120l-36 -93h135v-117h-180z" />
    <glyph glyph-name="lessequal" unicode="&#x2264;" horiz-adv-x="587" 
d="M444 594h108v-81l-332 -122l332 -124v-80h-108l-409 150v78zM552 135v-118h-517v118h517z" />
    <glyph glyph-name="greaterequal" unicode="&#x2265;" horiz-adv-x="587" 
d="M367 391l-332 122v81h107l410 -179v-78l-410 -150h-107v80zM552 135v-118h-517v118h517z" />
    <glyph glyph-name="lozenge" unicode="&#x25ca;" horiz-adv-x="600" 
d="M570 350l-186 -350h-162l-186 350l186 350h162zM408 350l-105 190l-105 -190l105 -190z" />
    <glyph glyph-name="uniE000" unicode="&#xe000;" horiz-adv-x="1052" 
d="M280 575v32q-8 11 -24 18q-15 7 -39 7q-25 0 -40 -7q-17 -8 -23 -18v-90q40 30 94 30q48 0 83 -18q34 -18 48 -44v-147q-18 -23 -58 -45t-104 -22q-66 0 -109 25q-45 27 -61 55v278q16 28 61 55q43 25 109 25q63 0 103 -21q39 -22 59 -46v-67h-99zM154 456v-83
q5 -9 23 -17t40 -8q21 0 39 8t24 17v76q-6 10 -23 18q-17 7 -41 7q-34 0 -62 -18zM724 700h66v-62l-475 -638h-67v62zM1008 162v-91q-16 -28 -61 -55q-43 -25 -109 -25t-109 25q-45 27 -61 55v91q16 31 59 54q-26 14 -49 39v109q15 21 57 44q41 21 103 21q63 0 102 -21
q37 -21 57 -44v-109q-23 -25 -48 -39q43 -23 59 -54zM777 271q8 -8 24 -14q15 -7 37 -7q23 0 38 7q15 6 22 14v59q-8 8 -22 15q-17 6 -38 6t-36 -6q-15 -7 -25 -15v-59zM901 157q-7 11 -24 18q-18 8 -39 8t-39 -8q-17 -7 -24 -18v-63q5 -9 24 -17q18 -8 39 -8q22 0 40 8
t23 17v63z" />
    <glyph glyph-name="uniE001" unicode="&#xe001;" horiz-adv-x="1310" 
d="M125 350v263l-70 -4v64l88 27h89v-350h66v-70h-242v70h69zM674 700h66v-62l-475 -638h-67v62zM689 70v263l-70 -4v64l88 27h89v-350h66v-70h-242v70h69zM1165 295v32q-7 11 -24 18q-15 7 -39 7q-25 0 -40 -7q-17 -8 -23 -18v-90q41 30 94 30q49 0 83 -18t48 -44v-147
q-18 -23 -58 -45t-104 -22q-66 0 -109 25q-45 27 -61 55v278q16 28 61 55q43 25 109 25q62 0 103 -21q39 -22 59 -46v-67h-99zM1039 176v-83q5 -9 23 -17t40 -8q21 0 39 8t24 17v76q-6 10 -23 18q-17 7 -41 7q-33 0 -62 -18z" />
    <glyph glyph-name="acute.case" 
d="M190 907h135v-64l-80 -96h-108v15z" />
    <glyph glyph-name="ampersand.alt" horiz-adv-x="667" 
d="M531 305v-173q23 -33 83 -33q20 0 36 2v-102q-3 -1 -27 -6q-27 -5 -64 -5q-75 0 -122 30q-65 -33 -144 -33q-99 0 -159 41q-61 40 -86 95v153q28 58 90 91q-56 27 -83 68v154q14 29 43 57q31 29 80 50t115 21q96 0 155 -40q59 -41 83 -89v-72h-148v45q-10 17 -33 31
q-24 12 -57 12t-56 -13t-34 -30v-105q11 -17 34 -27q24 -12 56 -12h90v46h148v-46h119v-110h-119zM383 305h-90q-35 0 -61 -14q-26 -15 -36 -37v-106q12 -24 37 -37t60 -13q28 0 53 11q24 11 37 27v169z" />
    <glyph glyph-name="breve.case" 
d="M165 882v-28q4 -11 22 -22q17 -11 43 -11q27 0 44 11t21 22v28h108v-51q-19 -40 -63 -64q-43 -25 -110 -25q-66 0 -109 25q-45 25 -64 64v51h108z" />
    <glyph glyph-name="caron.alt" 
d="M182 700h116v-76l-48 -135h-89v15z" />
    <glyph glyph-name="caron.case" 
d="M56 907h105l69 -95l69 95h105v-16l-78 -144h-191l-79 144v16z" />
    <glyph glyph-name="circumflex.case" 
d="M135 907h191l78 -145v-15h-105l-69 94l-69 -94h-105v15z" />
    <glyph glyph-name="dieresis.case" 
d="M123 886q48 0 71 -29v-77q-20 -29 -71 -29q-45 0 -71 29v77q26 29 71 29zM339 886q46 0 72 -29v-77q-23 -29 -72 -29q-45 0 -71 29v77q26 29 71 29z" />
    <glyph glyph-name="dotaccent.case" 
d="M180 885q19 12 50 12q32 0 52 -12q19 -12 27 -29v-60q-8 -17 -27 -29q-20 -12 -52 -12q-31 0 -50 13q-22 13 -29 28v60q7 15 29 29z" />
    <glyph glyph-name="eight.dnom" horiz-adv-x="428" 
d="M384 162v-91q-16 -28 -61 -55q-43 -25 -109 -25t-109 25q-45 27 -61 55v91q16 31 59 54q-26 14 -49 39v109q15 21 57 44q40 21 103 21t102 -21q37 -21 57 -44v-109q-23 -25 -48 -39q43 -23 59 -54zM153 271q8 -8 24 -14q15 -7 37 -7q23 0 38 7q15 6 22 14v59q-8 8 -22 15
q-17 6 -38 6t-36 -6q-15 -7 -25 -15v-59zM277 157q-7 11 -24 18q-18 8 -39 8t-39 -8q-17 -7 -24 -18v-63q5 -9 24 -17q18 -8 39 -8q22 0 40 8t23 17v63z" />
    <glyph glyph-name="eight.numr" horiz-adv-x="428" 
d="M384 442v-91q-16 -28 -61 -55q-43 -25 -109 -25t-109 25q-45 27 -61 55v91q16 31 59 54q-26 14 -49 39v109q15 21 57 44q40 21 103 21t102 -21q37 -21 57 -44v-109q-23 -25 -48 -39q43 -23 59 -54zM153 551q8 -8 24 -14q15 -7 37 -7q23 0 38 7q15 6 22 14v59q-8 8 -22 15
q-17 6 -38 6t-36 -6q-15 -7 -25 -15v-59zM277 437q-7 11 -24 18q-18 8 -39 8t-39 -8q-17 -7 -24 -18v-63q5 -9 24 -17q18 -8 39 -8q22 0 40 8t23 17v63z" />
    <glyph glyph-name="eight.tf" horiz-adv-x="580" 
d="M503 317q24 -25 36 -51v-147q-12 -29 -46 -61q-32 -31 -84 -52t-118 -21q-65 0 -118 21t-84 52q-34 31 -47 61v147q13 25 36 50t59 45q-49 28 -80 71v175q27 39 84 73q58 35 149 35t150 -35q56 -34 84 -73v-175q-30 -42 -81 -70q35 -20 60 -45zM199 452q9 -15 35 -29
q25 -14 56 -14q32 0 57 14q26 14 35 29v104q-10 16 -35 30q-23 13 -57 13q-33 0 -56 -13q-25 -14 -35 -30v-104zM386 260q-10 21 -36 36t-60 15t-59 -15t-36 -36v-107q9 -21 36 -36q25 -15 59 -15t60 15t36 36v107z" />
    <glyph glyph-name="five.dnom" horiz-adv-x="412" 
d="M322 257q34 -19 46 -45v-154q-17 -23 -56 -45q-40 -22 -105 -22q-63 0 -103 22q-40 21 -58 45v68h98v-32q6 -10 24 -18t39 -8t40 8q17 8 24 18v82q-9 12 -24 19t-39 7q-20 0 -37 -9q-16 -9 -22 -18h-98v245h315v-85h-217v-88q37 28 93 28q46 0 80 -18z" />
    <glyph glyph-name="five.numr" horiz-adv-x="412" 
d="M322 537q34 -19 46 -45v-154q-17 -23 -56 -45q-40 -22 -105 -22q-63 0 -103 22q-40 21 -58 45v68h98v-32q6 -10 24 -18t39 -8t40 8q17 8 24 18v82q-9 12 -24 19t-39 7q-20 0 -37 -9q-16 -9 -22 -18h-98v245h315v-85h-217v-88q37 28 93 28q46 0 80 -18z" />
    <glyph glyph-name="five.tf" horiz-adv-x="580" 
d="M458 421q49 -31 69 -76v-244q-24 -40 -83 -78q-58 -38 -153 -38q-94 0 -152 37q-61 39 -85 79v106h142v-54q10 -21 36 -36t59 -15t60 15q26 15 35 36v140q-9 21 -35 36q-25 15 -59 15q-58 0 -90 -42h-141v398h463v-124h-322v-170q59 47 138 47q68 0 118 -32z" />
    <glyph glyph-name="four.dnom" horiz-adv-x="443" 
d="M197 420h158v-257h52v-79h-52v-84h-102v84h-222v77zM253 325h-12l-110 -162h122v162z" />
    <glyph glyph-name="four.numr" horiz-adv-x="443" 
d="M197 700h158v-257h52v-79h-52v-84h-102v84h-222v77zM253 605h-12l-110 -162h122v162z" />
    <glyph glyph-name="four.tf" horiz-adv-x="580" 
d="M261 700h227v-435h78v-117h-78v-148h-147v148h-322v112zM341 558h-17l-164 -293h181v293z" />
    <glyph glyph-name="grave.case" 
d="M137 907h133l54 -145v-15h-108l-79 96v64z" />
    <glyph glyph-name="hungarumlaut.case" 
d="M97 901h114v-52l-57 -108h-96v15zM292 901h114v-52l-56 -108h-95v15z" />
    <glyph glyph-name="i.TRK" horiz-adv-x="249" 
d="M198 542v-542h-148v542h148zM74 734q20 12 50 12q32 0 52 -12q19 -12 27 -29v-60q-7 -16 -27 -28t-52 -12q-30 0 -50 12q-22 13 -29 28v60q7 15 29 29z" />
    <glyph glyph-name="l.ss01" horiz-adv-x="282" 
d="M103 16q-42 27 -57 66v618h148v-568q22 -34 83 -34v-105q-38 -5 -55 -5q-78 0 -119 28z" />
    <glyph glyph-name="lacute.ss01" horiz-adv-x="282" 
d="M103 16q-42 27 -57 66v618h148v-568q22 -34 83 -34v-105q-38 -5 -55 -5q-78 0 -119 28zM111 914h139v-63l-80 -100h-112v15z" />
    <glyph glyph-name="lcaron.ss01" horiz-adv-x="392" 
d="M103 16q-42 27 -57 66v618h148v-568q22 -34 83 -34v-105q-38 -5 -55 -5q-78 0 -119 28zM271 700h116v-76l-48 -135h-89v15z" />
    <glyph glyph-name="lcommaaccent.ss01" horiz-adv-x="282" 
d="M103 16q-42 27 -57 66v618h148v-568q22 -34 83 -34v-105q-38 -5 -55 -5q-78 0 -119 28zM209 -57q18 -6 26 -15v-106q-8 -22 -31 -39q-26 -18 -66 -18h-49v47h36q31 0 37 14v21h-3q-27 0 -49 5q-19 6 -27 14v62q7 9 27 15q18 7 49 7q32 0 50 -7z" />
    <glyph glyph-name="ldot.ss01" horiz-adv-x="435" 
d="M103 16q-42 27 -57 66v618h148v-568q22 -34 83 -34v-105q-38 -5 -55 -5q-78 0 -119 28zM291 423q19 12 50 12q33 0 52 -12t27 -29v-60q-7 -16 -27 -28q-19 -12 -52 -12q-31 0 -50 12q-22 13 -29 28v60q7 15 29 29z" />
    <glyph glyph-name="lslash.ss01" horiz-adv-x="348" 
d="M331 98v-105q-38 -5 -55 -5q-78 0 -119 28q-42 27 -57 66v185l-71 -41v119l71 41v314h148v-228l72 42v-119l-72 -42v-221q22 -34 83 -34z" />
    <glyph glyph-name="macron.case" 
d="M403 859v-99h-345v99h345z" />
    <glyph glyph-name="nine.dnom" horiz-adv-x="423" 
d="M316 404q43 -25 60 -55v-278q-16 -28 -61 -55q-43 -25 -109 -25q-63 0 -103 22q-40 21 -58 45v64h98v-29q5 -9 24 -17q18 -8 39 -8t39 8t24 17v84q-41 -30 -94 -30q-49 0 -83 18q-33 17 -47 45v152q14 21 56 44q43 23 105 23q66 0 110 -25zM269 237v90q-7 11 -24 18
q-15 7 -39 7t-39 -7q-18 -7 -24 -18v-82q5 -9 24 -17q18 -8 40 -8q33 0 62 17z" />
    <glyph glyph-name="nine.numr" horiz-adv-x="423" 
d="M316 684q43 -25 60 -55v-278q-16 -28 -61 -55q-43 -25 -109 -25q-63 0 -103 22q-40 21 -58 45v64h98v-29q5 -9 24 -17q18 -8 39 -8t39 8t24 17v84q-41 -30 -94 -30q-49 0 -83 18q-33 17 -47 45v152q14 21 56 44q43 23 105 23q66 0 110 -25zM269 517v90q-7 11 -24 18
q-15 7 -39 7t-39 -7q-18 -7 -24 -18v-82q5 -9 24 -17q18 -8 40 -8q33 0 62 17z" />
    <glyph glyph-name="nine.tf" horiz-adv-x="580" 
d="M400 694q51 -21 84 -51q34 -34 46 -61v-463q-14 -29 -47 -62q-33 -31 -84 -51q-51 -21 -117 -21q-94 0 -152 37q-60 37 -85 79v99h142v-47q9 -21 35 -36t60 -15t60 15q24 14 35 36v144q-58 -49 -140 -49q-71 0 -121 32q-51 32 -71 76v244q13 22 43 49q32 27 80 46
q51 20 114 20q66 0 118 -21zM377 389v159q-11 21 -36 36t-59 15t-60 -15t-35 -36v-143q9 -20 35 -34t62 -14q50 0 93 32z" />
    <glyph glyph-name="one.dnom" horiz-adv-x="361" 
d="M125 70v263l-70 -4v64l88 27h89v-350h66v-70h-242v70h69z" />
    <glyph glyph-name="one.numr" horiz-adv-x="361" 
d="M125 350v263l-70 -4v64l88 27h89v-350h66v-70h-242v70h69z" />
    <glyph glyph-name="one.tf" horiz-adv-x="580" 
d="M70 114h160v431l-161 -69v116l202 108h113v-586h149v-114h-463v114z" />
    <glyph glyph-name="ring.case" 
d="M156 878q31 18 74 18q42 0 75 -18q32 -18 47 -47v-89q-15 -29 -47 -47q-33 -18 -75 -18t-74 18q-33 18 -48 47v89q15 29 48 47zM197 742q14 -8 32 -8q19 0 33 8q13 7 19 16v57q-4 8 -18 16q-13 7 -34 7q-19 0 -32 -7q-15 -8 -19 -16v-57q6 -9 19 -16z" />
    <glyph glyph-name="seven.dnom" horiz-adv-x="374" 
d="M232 329v6h-205v85h316v-72l-160 -348h-96v61z" />
    <glyph glyph-name="seven.numr" horiz-adv-x="374" 
d="M232 609v6h-205v85h316v-72l-160 -348h-96v61z" />
    <glyph glyph-name="seven.tf" horiz-adv-x="580" 
d="M368 561v15h-311v124h469v-112l-246 -588h-132v89z" />
    <glyph glyph-name="six.dnom" horiz-adv-x="425" 
d="M280 295v32q-8 11 -24 18q-15 7 -39 7q-25 0 -40 -7q-17 -8 -23 -18v-90q40 30 94 30q48 0 83 -18q34 -18 48 -44v-147q-18 -23 -58 -45t-104 -22q-66 0 -109 25q-45 27 -61 55v278q16 28 61 55q43 25 109 25q63 0 103 -21q39 -22 59 -46v-67h-99zM154 176v-83
q5 -9 23 -17t40 -8q21 0 39 8t24 17v76q-6 10 -23 18q-17 7 -41 7q-34 0 -62 -18z" />
    <glyph glyph-name="six.numr" horiz-adv-x="425" 
d="M280 575v32q-8 11 -24 18q-15 7 -39 7q-25 0 -40 -7q-17 -8 -23 -18v-90q40 30 94 30q48 0 83 -18q34 -18 48 -44v-147q-18 -23 -58 -45t-104 -22q-66 0 -109 25q-45 27 -61 55v278q16 28 61 55q43 25 109 25q63 0 103 -21q39 -22 59 -46v-67h-99zM154 456v-83
q5 -9 23 -17t40 -8q21 0 39 8t24 17v76q-6 10 -23 18q-17 7 -41 7q-34 0 -62 -18z" />
    <glyph glyph-name="six.tf" horiz-adv-x="580" 
d="M393 494v54q-9 21 -35 36t-60 15t-59 -15t-36 -36v-155q61 50 142 50q71 0 120 -31q48 -31 70 -77v-234q-15 -25 -43 -49q-31 -28 -79 -47q-51 -20 -115 -20q-66 0 -117 21q-53 21 -84 52q-34 31 -47 61v463q14 30 48 62q31 30 83 51q52 20 117 20q95 0 153 -37
q59 -38 84 -78v-106h-142zM203 302v-149q11 -21 36 -36q26 -15 59 -15q34 0 60 15t35 36v132q-9 21 -35 35q-28 14 -62 14q-50 0 -93 -32z" />
    <glyph glyph-name="three.dnom" horiz-adv-x="421" 
d="M142 129v-35q5 -9 24 -17q18 -8 39 -8q22 0 40 8t23 17v55q-6 13 -22 20q-18 8 -41 8h-61v76h59q20 0 38 8q16 7 23 16v53q-8 8 -23 15q-17 6 -38 6q-20 0 -37 -6q-16 -7 -24 -15v-35h-98v69q16 22 56 44q40 21 103 21q65 0 108 -24q43 -25 59 -53v-90q-7 -9 -24 -22
t-42 -22q22 -8 44 -23q17 -14 27 -29v-95q-17 -29 -60 -54q-42 -26 -110 -26q-65 0 -104 23q-43 23 -57 44v71h98z" />
    <glyph glyph-name="three.numr" horiz-adv-x="421" 
d="M142 409v-35q5 -9 24 -17q18 -8 39 -8q22 0 40 8t23 17v55q-6 13 -22 20q-18 8 -41 8h-61v76h59q20 0 38 8q16 7 23 16v53q-8 8 -23 15q-17 6 -38 6q-20 0 -37 -6q-16 -7 -24 -15v-35h-98v69q16 22 56 44q40 21 103 21q65 0 108 -24q43 -25 59 -53v-90q-7 -9 -24 -22
q-17 -12 -42 -22q22 -8 44 -23q17 -14 27 -29v-95q-17 -29 -60 -54q-44 -26 -110 -26q-63 0 -104 23q-43 23 -57 44v71h98z" />
    <glyph glyph-name="three.tf" horiz-adv-x="580" 
d="M185 211v-58q11 -21 36 -36t60 -15t60 15q24 13 35 36v95q-11 26 -35 41q-25 16 -60 16h-89v111h85q31 0 57 15q25 15 35 33v91q-12 19 -35 31q-25 13 -57 13q-33 0 -56 -13q-25 -13 -36 -31v-60h-141v112q13 20 42 46q27 23 78 43q48 19 113 19q64 0 116 -20
q51 -21 83 -50q33 -30 46 -56v-147q-9 -17 -37 -40q-24 -20 -61 -36q38 -17 65 -41q28 -25 40 -51v-155q-13 -29 -47 -60q-32 -31 -84 -52q-51 -22 -117 -22q-63 0 -114 20q-49 19 -80 47q-28 24 -43 49v110h141z" />
    <glyph glyph-name="tilde.case" 
d="M338 863v20h87v-59q-7 -32 -38 -55t-76 -23q-30 0 -51 8q-16 6 -45 22q-17 10 -27 15q-12 5 -25 5q-17 0 -27 -7t-13 -17v-21h-88v59q9 34 39 57q29 22 75 22q30 0 52 -8q15 -6 44 -22q15 -11 27 -15q13 -5 25 -5q17 0 27 7q9 5 14 17z" />
    <glyph glyph-name="two.dnom" horiz-adv-x="438" 
d="M231 231q30 23 36 33v62q-7 10 -24 18q-15 7 -39 7q-21 0 -38 -6q-15 -7 -23 -15v-56h-98v90q21 24 58 44q37 21 101 21q66 0 109 -25q45 -27 61 -55v-109q-7 -13 -44 -39l-147 -112v-3h193v-86h-334v78z" />
    <glyph glyph-name="two.numr" horiz-adv-x="438" 
d="M231 511q30 23 36 33v62q-7 10 -24 18q-15 7 -39 7q-21 0 -38 -6q-15 -7 -23 -15v-56h-98v90q21 24 58 44q38 21 101 21q66 0 109 -25q45 -27 61 -55v-109q-7 -13 -44 -39l-147 -112v-3h193v-86h-334v78z" />
    <glyph glyph-name="two.tf" horiz-adv-x="574" 
d="M317 382q49 46 54 63v103q-11 22 -35 36q-26 15 -60 15q-33 0 -56 -13q-23 -12 -35 -31v-94h-142v146q27 40 83 73q59 35 150 35q66 0 118 -21q51 -21 84 -51q34 -34 46 -61v-172q-4 -10 -23 -34q-19 -22 -48 -48l-206 -197v-8h281v-123h-489v115z" />
    <glyph glyph-name="uni0326.alt" horiz-adv-x="0" 
d="M-180 707q21 -13 28 -29v-48q-7 -16 -28 -28q-19 -13 -50 -13q-32 0 -52 13q-20 12 -27 28v124q6 19 35 39q28 18 71 18h38v-56h-23q-38 0 -46 -14v-22h4q30 0 50 -12z" />
    <glyph glyph-name="zero.dnom" horiz-adv-x="434" 
d="M108 404q43 25 109 25t109 -25q45 -27 61 -55v-278q-16 -28 -61 -55q-43 -25 -109 -25t-109 25q-45 27 -61 55v278q16 28 61 55zM178 77q18 -8 39 -8t39 8t24 17v232q-8 10 -24 18q-15 7 -39 7t-39 -7q-16 -8 -24 -18v-232q6 -9 24 -17z" />
    <glyph glyph-name="zero.numr" horiz-adv-x="434" 
d="M108 684q43 25 109 25t109 -25q45 -27 61 -55v-278q-16 -28 -61 -55q-43 -25 -109 -25t-109 25q-45 27 -61 55v278q16 28 61 55zM178 357q18 -8 39 -8t39 8t24 17v232q-8 10 -24 18q-15 7 -39 7t-39 -7q-16 -8 -24 -18v-232q6 -9 24 -17z" />
    <glyph glyph-name="zero.tf" horiz-adv-x="580" 
d="M89 643q31 30 84 51q51 21 117 21t118 -21q51 -21 84 -51q33 -33 47 -61v-463q-14 -30 -47 -61q-32 -31 -84 -52t-118 -21t-117 21q-53 21 -84 52q-34 31 -47 61v463q13 28 47 61zM231 117q25 -15 59 -15t60 15q24 14 35 36v395q-11 21 -36 36q-26 15 -59 15
q-34 0 -59 -15t-36 -36v-395q11 -21 36 -36z" />
    </font>
</defs>
</svg>
